SplineFontDB: 3.2
FontName: LibertinusSerif-Bold
FullName: Libertinus Serif Bold
FamilyName: Libertinus Serif
Weight: Bold
UComments: "2003-08-29: Created.+AAoA-2004-07-25: v(1.0) release candidate+AAoA-2005-12-28: v(1.1.0) stable+AAoA-2006-01-01: v(2.0.0) stable+AAoA-2006-09-05: v(2.2.0) stable+AAoA-2006-12-04: v(2.3.0) stable+AAoA-2007-03-11: v(2.4.0) stable+AAoA-2007-06-11: v(2.6.0) stable+AAoA-2007-12-00: v(2.7.0) stable+AAoA-2008-06-00: v(2.8.14) stable+AAoA"
Version: 5.1.4
ItalicAngle: 0
UnderlinePosition: -98
UnderlineWidth: 40
Ascent: 754
Descent: 246
InvalidEm: 0
LayerCount: 2
Layer: 0 0 "Back" 1
Layer: 1 0 "Fore" 0
XUID: [1021 993 1524925707 4740893]
FSType: 0
OS2Version: 0
OS2_WeightWidthSlopeOnly: 0
OS2_UseTypoMetrics: 1
CreationTime: 1156455862
ModificationTime: 1647193840
PfmFamily: 17
TTFWeight: 700
TTFWidth: 5
LineGap: 0
VLineGap: 0
OS2TypoAscent: 894
OS2TypoAOffset: 0
OS2TypoDescent: -246
OS2TypoDOffset: 0
OS2TypoLinegap: 0
OS2WinAscent: 894
OS2WinAOffset: 0
OS2WinDescent: 246
OS2WinDOffset: 0
HheadAscent: 894
HheadAOffset: 0
HheadDescent: -246
HheadDOffset: 0
OS2CapHeight: 645
OS2XHeight: 433
OS2FamilyClass: 261
OS2Vendor: 'QUE '
Lookup: 258 0 0 "'kern' Smallcap kerning" { "'kern' Small Caps" [150,15,4] } ['kern' ('DFLT' <'dflt' > 'grek' <'dflt' > 'latn' <'AZE ' 'CRT ' 'TRK ' 'dflt' > ) ]
Lookup: 258 0 0 "'kern' Cyrillic kerning" { "'kern' Cyrillic Kerning" [150,0,6] } ['kern' ('DFLT' <'dflt' > 'cyrl' <'dflt' > ) ]
Lookup: 258 0 0 "'kern' Greek kerning" { "'kern' Greek Kerning" [150,0,6] } ['kern' ('DFLT' <'dflt' > 'grek' <'dflt' > ) ]
Lookup: 257 0 0 "'cpsp' Versalabstaende" { "'cpsp' Versalabstaende 1"  } ['cpsp' ('DFLT' <'dflt' > 'cyrl' <'dflt' > 'grek' <'dflt' > 'latn' <'AZE ' 'CRT ' 'TRK ' 'dflt' > ) ]
Lookup: 258 0 0 "'kern' Kerning" { "'kern' Latin kerning" [150,0,4] } ['kern' ('DFLT' <'dflt' > 'cyrl' <'dflt' > 'grek' <'dflt' > 'latn' <'AZE ' 'CRT ' 'TRK ' 'dflt' > ) ]

StartChar: exclam
Encoding: 33 33 0
Width: 266
GlyphClass: 2
Flags: MW
LayerCount: 2
Fore
SplineSet
133 658 m 0
 170 658 205 634 205 583 c 0
 205 548 197 510 191 477 c 0
 174.7 379.1 162 279 161 230 c 0
 160.6 211 156.1 188 133 188 c 0
 106.9 188 104 208 103 242 c 0
 101.7 289.7 87.8 409.6 75 480 c 0
 68 515 61 544 61 583 c 0
 61 639 102 658 133 658 c 0
EndSplineSet
Refer: 256 46 N 1 0 0 1 11 0 2
EndChar

StartChar: numbersign
Encoding: 35 35 2
Width: 514
GlyphClass: 2
Flags: MW
LayerCount: 2
Fore
SplineSet
288.5 253 m 1
 305.5 360 l 1
 211.5 360 l 1
 205.5 323 198.5 290 192.5 253 c 1
 288.5 253 l 1
358.5 360 m 1
 341.5 253 l 1
 459.5 253 l 1
 451.5 187 l 1
 332.5 187 l 1
 322.5 127 314.5 72 304.5 14 c 1
 251.5 14 l 1
 280.5 187 l 1
 184.5 187 l 1
 173.5 127 165.5 72 154.5 14 c 1
 99.5 14 l 1
 127.5 187 l 1
 28.5 187 l 1
 37.5 253 l 1
 137.5 253 l 1
 143.5 290 149.5 323 154.5 360 c 1
 54.5 360 l 1
 63.5 426 l 1
 163.5 426 l 1
 173.5 484 182.5 541 192.5 599 c 1
 248.5 599 l 1
 218.5 426 l 1
 315.5 426 l 1
 325.5 484 333.5 541 343.5 599 c 1
 395.5 599 l 1
 368.5 426 l 1
 485.5 426 l 1
 476.5 360 l 1
 358.5 360 l 1
EndSplineSet
EndChar

StartChar: dollar
Encoding: 36 36 3
Width: 514
GlyphClass: 2
Flags: MW
LayerCount: 2
Fore
SplineSet
246.5 392.3 m 1
 256.3 571.6 l 1
 214 567.6 182 537.4 182 489 c 0
 182 453.3 214.2 417.6 246.5 392.3 c 1
277.5 216.1 m 1
 267.3 31.1 l 1
 315.1 37 350 66.1 350 107 c 0
 350 152.4 315 187.8 277.5 216.1 c 1
423 585 m 1
 429 531 433 493 433 444 c 1
 423 436 400 435 387 439 c 1
 372.4 491.3 352 551.6 296.8 567.8 c 1
 285.7 366.3 l 1
 290 364 l 2
 326 345 383 317 419 277 c 0
 446 247 467 219 467 171 c 0
 467 114 436.9 70.1 404 41 c 0
 367.2 8.4 319.5 -7.8 265.1 -8.9 c 1
 260.5 -93.2 l 1
 253.2 -97.4 229.6 -98.3 219.6 -98.3 c 1
 224.5 -8.5 l 1
 130.1 -5.6 123.7 9 76 9 c 1
 66 43 58 92 58 162 c 1
 73 166 88 171 104 165 c 1
 120.7 91.1 172.3 42.7 226.7 32.2 c 1
 238.2 242.3 l 1
 195.3 267.3 132.9 297.4 97 345 c 0
 76 373 66 414 66 450 c 0
 66 495 91 538 126 566 c 0
 162.4 594.9 217.1 608.3 258.4 609.9 c 1
 262.8 689.5 l 1
 272 693 291 694.5 303.8 694.5 c 1
 299.1 609 l 1
 358.9 605.2 379 591 423 585 c 1
EndSplineSet
EndChar

StartChar: percent
Encoding: 37 37 4
Width: 637
GlyphClass: 2
Flags: MW
LayerCount: 2
Fore
SplineSet
144 369 m 0
 144 355.7 147 336 164 336 c 0
 184.7 336 204.4 352.7 218 376 c 0
 234.6 404.4 243 442.8 243 473 c 0
 243 525 218 530 204 530 c 0
 184.1 530 165.7 507.7 156 478 c 0
 144.8 443.7 144 399.6 144 369 c 0
51 407 m 0
 51 487 104 566 193 566 c 0
 219 566 243.8 560.4 261.1 543.9 c 1
 302.9 542.4 346.6 519 364 519 c 0
 406 519 473 525 514 569 c 1
 561 548 l 1
 150 -16 l 1
 96 -4 l 1
 462 497 l 1
 423 481 384 474 354 474 c 0
 332.5 474 303.3 482.7 284 492.8 c 1
 284.7 487.3 285 481.3 285 475 c 0
 285 376 231 297 152 297 c 0
 119.7 297 90.7 305.5 74 327 c 0
 60 345 51 370 51 407 c 0
EndSplineSet
Refer: 1372 -1 N 1 0 0 1 350 0 2
EndChar

StartChar: parenleft
Encoding: 40 40 5
Width: 315
GlyphClass: 2
Flags: MW
LayerCount: 2
Fore
SplineSet
36 253 m 0
 36 435 139 607 270 720 c 1
 298 686 l 1
 268 651 151 517 151 253 c 0
 151 -11 266 -145 298 -181 c 1
 268 -213 l 1
 41 -17 36 208 36 253 c 0
EndSplineSet
EndChar

StartChar: parenright
Encoding: 41 41 6
Width: 315
GlyphClass: 2
Flags: MW
LayerCount: 2
Fore
SplineSet
279 251 m 0
 279 69 176 -103 45 -216 c 1
 17 -182 l 1
 47 -147 164 -13 164 251 c 0
 164 515 49 649 17 685 c 1
 47 717 l 1
 274 521 279 296 279 251 c 0
EndSplineSet
EndChar

StartChar: asterisk
Encoding: 42 42 7
Width: 433
GlyphClass: 2
Flags: MW
LayerCount: 2
Fore
SplineSet
197 566 m 1
 184 568 171 573 156 571 c 0
 111 563 75 563 75 608 c 0
 75 622 84 640 108 640 c 0
 142 640 159 607 203 588 c 1
 199 628 173 653 173 679 c 0
 173 700 193 718 211 718 c 0
 229 718 251 707 251 683 c 0
 251 656 228 618 226 588 c 1
 271 607 282 642 315 642 c 0
 346 642 354 618 354 608 c 0
 354 578 320 568 285 568 c 0
 266 568 249 568 231 565 c 1
 265 529 316 531 316 480 c 0
 316 462 298 451 284 451 c 0
 235 451 238 513 213 552 c 1
 188 507 202 451 143 451 c 0
 126 451 114 464 114 479 c 0
 114 533 164 528 197 566 c 1
EndSplineSet
EndChar

StartChar: plus
Encoding: 43 43 8
Width: 537
GlyphClass: 2
Flags: MW
LayerCount: 2
Fore
SplineSet
306 269 m 1
 477 269 l 1
 477 195 l 1
 306 195 l 1
 306 32 l 1
 232 32 l 1
 232 195 l 1
 61 195 l 1
 61 269 l 1
 232 269 l 1
 232 433 l 1
 306 433 l 1
 306 269 l 1
EndSplineSet
EndChar

StartChar: slash
Encoding: 47 47 9
Width: 316
GlyphClass: 2
Flags: MW
LayerCount: 2
Fore
SplineSet
302 682 m 1
 65 -21 l 1
 2 -21 l 1
 239 682 l 1
 302 682 l 1
EndSplineSet
EndChar

StartChar: one
Encoding: 49 49 10
Width: 514
GlyphClass: 2
Flags: MW
LayerCount: 2
Fore
SplineSet
367 122 m 2
 367 39 415 35 470 32 c 1
 480 26 480 4 470 -2 c 1
 388 -1 343 0 303 0 c 0
 263 0 216 -1 134 -2 c 1
 124 4 124 26 134 32 c 1
 189 35 237 39 237 122 c 2
 237 435 l 2
 237 485 231 489 218 489 c 0
 204 489 168 487 114 464 c 1
 100 474 93 490 92 507 c 1
 179 543 247 567 308 595 c 0
 331 606 348 610 358 610 c 0
 367 610 375 606 375 593 c 2
 375 593 367 536 367 483 c 2
 367 122 l 2
EndSplineSet
EndChar

StartChar: two
Encoding: 50 50 11
Width: 514
GlyphClass: 2
Flags: MW
LayerCount: 2
Fore
SplineSet
50 454 m 0
 50 516 119 610 262 610 c 0
 365 610 453 553 453 449 c 0
 453 356 413 332 294 222 c 2
 235 168 l 2
 202 138 192 111 189 79 c 1
 319 79 l 2
 364 79 393 106 415 174 c 1
 438 174 447 170 460 164 c 1
 453 107 441 38 429 0 c 1
 43 0 l 1
 39 32 l 1
 42 59 59 87 183 205 c 2
 268 286 l 2
 321 336 325 379 325 446 c 0
 325 506 290 569 239 569 c 0
 191 569 156 523 156 500 c 0
 156 489 159 481 162 474 c 0
 165 465 167 458 167 453 c 0
 167 422 138 400 109 400 c 0
 73 400 50 429 50 454 c 0
EndSplineSet
EndChar

StartChar: three
Encoding: 51 51 12
Width: 514
GlyphClass: 2
Flags: MW
LayerCount: 2
Fore
SplineSet
248 568 m 0
 214 568 172 565 161 504 c 0
 155 472 143 449 99 449 c 0
 66 449 61 472 61 486 c 0
 61 499 67 526 89 546 c 0
 121 575 163 610 267 610 c 0
 405 610 429 543 429 499 c 0
 429 438 380 385 336 363 c 1
 420 357 467 294 467 222 c 0
 467 83 335 -10 217 -10 c 0
 168 -10 115 3 79 21 c 0
 57 32 46 47 46 68 c 0
 46 85 64 111 95 111 c 0
 132 111 149 89 160 74 c 0
 173 57 194 32 233 32 c 0
 270 32 338 57 338 172 c 0
 338 292 265 307 213 307 c 0
 198 307 186 305 165 299 c 1
 158 339 l 1
 250 360 311 421 311 497 c 0
 311 544 290 568 248 568 c 0
EndSplineSet
EndChar

StartChar: four
Encoding: 52 52 13
Width: 514
GlyphClass: 2
Flags: MW
LayerCount: 2
Fore
SplineSet
261 501 m 1
 208 429 127 293 77 209 c 1
 261 209 l 1
 261 501 l 1
483 209 m 2
 494 209 498 203 498 193 c 0
 498 181 483 162 469 162 c 2
 385 162 l 1
 385 122 l 2
 385 39 423 35 478 32 c 1
 488 26 488 4 478 -2 c 1
 396 -1 364 0 324 0 c 0
 284 0 250 -1 168 -2 c 1
 158 4 158 26 168 32 c 1
 223 35 261 39 261 122 c 2
 261 162 l 1
 84 162 l 2
 60 162 56 164 51 169 c 0
 44 177 22 202 22 210 c 0
 22 213 27 219 29 223 c 0
 111 347 219 519 295 610 c 1
 385 610 l 1
 385 209 l 1
 483 209 l 2
EndSplineSet
EndChar

StartChar: five
Encoding: 53 53 14
Width: 514
GlyphClass: 2
Flags: MW
LayerCount: 2
Fore
SplineSet
323 188 m 0
 323 288 287 338 240 338 c 0
 190 338 172 331 99 304 c 1
 86 312 l 1
 126 610 l 1
 183 606 215 600 256 600 c 0
 316 600 353 606 426 613 c 1
 449 600 l 1
 430 514 l 1
 369 510 351 508 315 508 c 0
 273 508 202 510 170 513 c 1
 151 381 l 1
 175 387 238 394 269 394 c 0
 387 394 459 319 459 219 c 0
 459 99 372 -10 239 -10 c 0
 191 -10 131 -2 92 18 c 0
 67 31 52 54 52 71 c 0
 52 93 67 118 103 118 c 0
 140 118 165 99 178 79 c 0
 194 54 213 34 233 34 c 0
 288 34 323 90 323 188 c 0
EndSplineSet
EndChar

StartChar: six
Encoding: 54 54 15
Width: 514
GlyphClass: 2
Flags: MW
LayerCount: 2
Fore
SplineSet
171 289 m 1
 170 278 170 253 170 242 c 0
 170 68 225 29 275 29 c 0
 311 29 343 78 343 186 c 0
 343 246 315 315 248 315 c 0
 230 315 209 313 171 289 c 1
450 569 m 1
 393 566 324 557 265 509 c 0
 218 471 184 402 176 330 c 1
 214 352 248 365 286 365 c 0
 434 365 477 253 477 204 c 0
 477 116 419 -10 263 -10 c 0
 162 -10 44 32 44 246 c 0
 44 342 76 447 152 513 c 0
 228 579 303 606 444 610 c 1
 452 600 453 581 450 569 c 1
EndSplineSet
EndChar

StartChar: seven
Encoding: 55 55 16
Width: 514
GlyphClass: 2
Flags: MW
LayerCount: 2
Fore
SplineSet
184 498 m 2
 151 498 117 491 95 411 c 1
 83 409 73 410 60 414 c 1
 68 466 79 563 80 611 c 0
 80 614 81 614 84 614 c 1
 102 610 104 600 138 600 c 2
 473 600 l 1
 479 591 l 1
 350 319 296 169 229 -2 c 1
 127 -12 l 1
 121 0 l 1
 199 144 313 362 379 498 c 1
 184 498 l 2
EndSplineSet
EndChar

StartChar: nine
Encoding: 57 57 17
Width: 514
GlyphClass: 2
Flags: MW
LayerCount: 2
Fore
SplineSet
350 311 m 1
 351 322 351 347 351 358 c 0
 351 532 296 571 246 571 c 0
 210 571 178 522 178 414 c 0
 178 354 206 285 273 285 c 0
 291 285 312 287 350 311 c 1
71 31 m 1
 128 34 197 43 256 91 c 0
 303 129 336 198 344 270 c 1
 306 248 273 235 235 235 c 0
 87 235 44 347 44 396 c 0
 44 484 102 610 258 610 c 0
 359 610 477 568 477 354 c 0
 477 258 445 153 369 87 c 0
 293 21 218 -6 77 -10 c 1
 69 0 68 19 71 31 c 1
EndSplineSet
EndChar

StartChar: less
Encoding: 60 60 19
Width: 512
GlyphClass: 2
Flags: MW
LayerCount: 2
Fore
SplineSet
153 240 m 1
 471 124 l 1
 471 62 l 1
 42 218 l 1
 42 262 l 1
 471 418 l 1
 471 356 l 1
 153 240 l 1
EndSplineSet
EndChar

StartChar: equal
Encoding: 61 61 20
Width: 551
GlyphClass: 2
Flags: MW
LayerCount: 2
Fore
SplineSet
493 198 m 1
 493 142 l 1
 59 142 l 1
 59 198 l 1
 493 198 l 1
493 323 m 1
 493 266 l 1
 59 266 l 1
 59 323 l 1
 493 323 l 1
EndSplineSet
EndChar

StartChar: greater
Encoding: 62 62 21
Width: 512
GlyphClass: 2
Flags: MW
LayerCount: 2
Fore
SplineSet
359 238 m 1
 42 354 l 1
 42 416 l 1
 471 259 l 1
 471 215 l 1
 42 60 l 1
 42 122 l 1
 359 238 l 1
EndSplineSet
EndChar

StartChar: question
Encoding: 63 63 22
Width: 430
GlyphClass: 2
Flags: MW
LayerCount: 2
Fore
SplineSet
127 570 m 0
 127 549 136 543 136 516 c 0
 136 491 113 475 83 475 c 0
 59 475 26 495 26 533 c 0
 26 568 45 591 79 619 c 0
 109 644 155 658 216 658 c 0
 330 658 401 597 401 505 c 0
 401 431 338 385 288 348 c 0
 260 328 225 301 225 229 c 2
 225 216 l 2
 225 191 220.5 182 192 182 c 0
 165.5 182 160 194 160 216 c 2
 160 231 l 2
 160 272 160 329 231 394 c 0
 266 425 286 462 286 512 c 0
 286 570 262.1 622 206 622 c 0
 162 622 127 598 127 570 c 0
EndSplineSet
Refer: 256 46 N 1 0 0 1 72 0 2
EndChar

StartChar: at
Encoding: 64 64 23
Width: 988
GlyphClass: 2
Flags: MW
LayerCount: 2
Fore
SplineSet
586 320 m 0
 586 355 582 381 557 381 c 0
 543 381 511 381 476 343 c 0
 431 295 414 227 414 164 c 0
 414 117 423 72 470 72 c 0
 500 72 530 107 557 193 c 0
 567 226 586 296 586 320 c 0
640 80 m 0
 640 67 647 66 658 66 c 0
 695 66 805 129 805 273 c 0
 805 494 621 584 504 584 c 0
 349 584 186 459 186 228 c 0
 186 80 277 -121 521 -121 c 0
 598 -121 669 -97 731 -46 c 1
 752 -75 l 1
 688 -124 625 -160 502 -160 c 0
 265 -160 92 -7 92 221 c 0
 92 428 260 621 513 621 c 0
 739 621 890 476 890 287 c 0
 890 147 772 24 638 24 c 0
 606 24 573 27 560 39 c 0
 545.4 52.5 540 67 540 86 c 1
 507 44 458 26 434 26 c 0
 388.2 26 358.4 34.7 336 54 c 0
 307 79 297 122 297 158 c 0
 297 286 439 415 554 415 c 0
 602 415 631 398 648 377 c 1
 685 410 l 1
 712 399 l 1
 653 146 l 2
 647 120 640 91 640 80 c 0
EndSplineSet
EndChar

StartChar: A
Encoding: 65 65 24
Width: 740
GlyphClass: 2
Flags: MW
AnchorPoint: "below" 308 -110 basechar 0
AnchorPoint: "cedilla" 116 5 basechar 0
AnchorPoint: "above" 354 850 basechar 0
LayerCount: 2
Fore
SplineSet
273 283 m 2
 425 283 l 1
 343.1 520 l 1
 336.2 520 l 1
 247.8 296.3 l 2
 244 286 251 283 273 283 c 2
165 79 m 2
 149 38 196.4 34.6 234 32 c 1
 240 26 240 4 234 -2 c 1
 197 -1 142 0 101 0 c 0
 62 0 44 -1 7 -2 c 1
 1 4 1 26 7 32 c 1
 50.5 35 81 40 107 102 c 2
 323.8 614 l 1
 359 614 419 649 434 658 c 1
 640 86 l 2
 658 35 691.2 35.5 730 32 c 1
 736 26 736 4 730 -2 c 1
 693 -1 637 0 596 0 c 0
 557 0 462 -1 425 -2 c 1
 419 4 419 26 425 32 c 1
 472.6 35.4 513 31 499 72 c 2
 443 235 l 1
 253 235 l 2
 229 235 223 231 218 218 c 2
 165 79 l 2
EndSplineSet
Position2: "'cpsp' Versalabstaende 1" dx=2 dy=0 dh=5 dv=0
EndChar

StartChar: B
Encoding: 66 66 25
Width: 654
GlyphClass: 2
Flags: MW
AnchorPoint: "below" 268 -110 basechar 0
AnchorPoint: "cedilla" 250 0 basechar 0
AnchorPoint: "middle" 146 185 basechar 0
AnchorPoint: "above" 267 850 basechar 0
AnchorPoint: "right" 509 732 basechar 0
LayerCount: 2
Fore
SplineSet
242 562 m 2
 242 376 l 1
 298 376 l 2
 369 376 414 409 414 489 c 0
 414 587 358 605 312 605 c 0
 247 605 242 591 242 562 c 2
242 334 m 1
 242 84 l 2
 242 55 248 40 308 40 c 0
 440 40 461 127 461 187 c 0
 461 273 416 334 313 334 c 2
 242 334 l 1
173 645 m 0
 204.7 645 265 647 315 647 c 0
 516.8 647 554 560 554 491 c 0
 554 440 512 385 458 361 c 1
 458 359 l 1
 564 331 608 274 608 186 c 0
 608 84 542 -2 337 -2 c 0
 277 -2 213 0 173 0 c 0
 133 0 19 -2 19 -2 c 1
 9 4 9 26 19 32 c 1
 74 35 102 39 102 122 c 2
 102 523 l 2
 102 606 74 610 19 613 c 1
 9 619 9 641 19 647 c 1
 19 647 133 645 173 645 c 0
EndSplineSet
Position2: "'cpsp' Versalabstaende 1" dx=2 dy=0 dh=5 dv=0
EndChar

StartChar: C
Encoding: 67 67 26
Width: 706
GlyphClass: 2
Flags: MW
AnchorPoint: "below" 363 -110 basechar 0
AnchorPoint: "cedilla" 356 -7 basechar 0
AnchorPoint: "middle" 346 315 basechar 0
AnchorPoint: "above" 340 850 basechar 0
AnchorPoint: "right" 609 732 basechar 0
LayerCount: 2
Fore
SplineSet
397 -10 m 0
 300 -10 222 7 158 53 c 0
 77.8 110.7 37 221.1 37 315 c 0
 37 535.2 202 658 398 658 c 0
 521 658 566 618 617 613 c 1
 626 558 634 510 639 458 c 1
 627.7 452 608 449 596 453 c 1
 570 539 525 617 387 617 c 0
 268 617 188 489.4 188 334 c 0
 188 178 280 42 396 42 c 0
 466 42 547 68 618 146 c 1
 629 146 646 134 651 125 c 1
 583 36 494 -10 397 -10 c 0
EndSplineSet
Position2: "'cpsp' Versalabstaende 1" dx=2 dy=0 dh=5 dv=0
EndChar

StartChar: D
Encoding: 68 68 27
Width: 734
GlyphClass: 2
Flags: MW
AnchorPoint: "below" 279 -110 basechar 0
AnchorPoint: "cedilla" 279 4 basechar 0
AnchorPoint: "middle" 346 315 basechar 0
AnchorPoint: "above" 306 850 basechar 0
AnchorPoint: "right" 619 732 basechar 0
LayerCount: 2
Fore
SplineSet
254 119 m 2
 254 52 280 40 350 40 c 0
 426 40 535 102 535 284 c 0
 535 435 513 604 316 604 c 0
 280 604 254 584 254 529 c 2
 254 119 l 2
185 0 m 0
 145 0 31 -2 31 -2 c 1
 21 4 21 26 31 32 c 1
 86 35 114 39 114 122 c 2
 114 523 l 2
 114 606 86 610 31 613 c 1
 21 619 21 641 31 647 c 1
 31 647 145 645 185 645 c 0
 225 645 267 646 320 646 c 0
 566 646 686 494 686 309 c 0
 686 207.4 653 124 605 82 c 0
 534.3 20.2 434.5 -2 347 -2 c 0
 307 -2 225 0 185 0 c 0
EndSplineSet
Position2: "'cpsp' Versalabstaende 1" dx=2 dy=0 dh=5 dv=0
EndChar

StartChar: E
Encoding: 69 69 28
Width: 609
GlyphClass: 2
Flags: MW
AnchorPoint: "below" 284 -110 basechar 0
AnchorPoint: "cedilla" 284 4 basechar 0
AnchorPoint: "above" 278 850 basechar 0
AnchorPoint: "right" 524 732 basechar 0
LayerCount: 2
Fore
SplineSet
323 365 m 2
 390 365 411 374 414 429 c 1
 420 435 451 435 457 429 c 1
 456 399 455 376.5 455 343 c 0
 455 308.7 456 290 457 255 c 1
 451 249 420 249 414 255 c 1
 411 300 392 319 323 319 c 2
 242 319 l 1
 242 90 l 2
 242 63 261 42 283 42 c 2
 384 42 l 2
 460 42 505 98 525 170 c 1
 538.1 173.2 559.6 170.9 570 165 c 1
 562 114 557 48 543 -2 c 1
 543 -2 453 0 405 0 c 2
 170 0 l 1
 170 0 64 -1 15 -2 c 1
 9 4 9 26 15 32 c 1
 85 35 102 39 102 122 c 2
 102 522 l 2
 102 605 85 610 15 613 c 1
 9 619 9 641 15 647 c 1
 65 646 169 645 169 645 c 1
 464 645 l 2
 488 645 496 646 513 649 c 0
 516 649 517 648 517 646 c 0
 519 638 524 542 529 501 c 1
 519.2 496.3 498.4 494.2 486 496 c 1
 464 565 443 603 368 603 c 2
 283 603 l 2
 259 603 242 578 242 554 c 2
 242 365 l 1
 323 365 l 2
EndSplineSet
Position2: "'cpsp' Versalabstaende 1" dx=2 dy=0 dh=5 dv=0
EndChar

StartChar: F
Encoding: 70 70 29
Width: 545
GlyphClass: 2
Flags: MW
AnchorPoint: "below" 206 -110 basechar 0
AnchorPoint: "cedilla" 150 -1 basechar 0
AnchorPoint: "above" 281 850 basechar 0
AnchorPoint: "right" 504 732 basechar 0
LayerCount: 2
Fore
SplineSet
242 122 m 2
 242 39 280 35 335 32 c 1
 345 26 345 4 335 -2 c 1
 295 -1 213 0 173 0 c 0
 133 0 59 -1 19 -2 c 1
 9 4 9 26 19 32 c 1
 74 35 102 39 102 122 c 2
 102 522 l 2
 102 605 85 610 15 613 c 1
 9 619 9 641 15 647 c 1
 65 646 169 645 169 645 c 1
 466 645 l 2
 490 645 498 646 515 649 c 0
 518 649 518.7 648 519 646 c 0
 520.3 637.7 528.3 539.7 531 496 c 1
 521.2 491.3 508.4 489.2 496 491 c 1
 474 560 448 603 373 603 c 2
 283 603 l 2
 259 603 242 578 242 554 c 2
 242 345 l 1
 323 345 l 2
 390 345 411 354 414 409 c 1
 420 415 451 415 457 409 c 1
 455.5 380 455 345.5 455 323 c 0
 455 300 455 270 457 235 c 1
 451 229 420 229 414 235 c 1
 411 280 392 299 323 299 c 2
 242 299 l 1
 242 122 l 2
EndSplineSet
Position2: "'cpsp' Versalabstaende 1" dx=2 dy=0 dh=5 dv=0
EndChar

StartChar: G
Encoding: 71 71 30
Width: 732
GlyphClass: 2
Flags: MW
AnchorPoint: "komb_OR" 620 606 basechar 0
AnchorPoint: "below" 367 -110 basechar 0
AnchorPoint: "cedilla" 367 2 basechar 0
AnchorPoint: "middle" 308 335 basechar 0
AnchorPoint: "above" 365 850 basechar 0
AnchorPoint: "right" 631 732 basechar 0
LayerCount: 2
Fore
SplineSet
395 658 m 0
 519.5 658 572.5 623 625 623 c 1
 632 551 637 501 646 459 c 1
 634 453 618 451 602 453 c 1
 577 539 510.5 616 381 616 c 0
 328 616 273 595 234 542 c 0
 197 491 184 413 184 327 c 0
 184 195 238 32 407 32 c 0
 458 32 482 42 514 74 c 1
 514 223 l 2
 514 263 488 267 436 271 c 1
 430 277 430 302 436 308 c 1
 481 307 547 306 584 306 c 0
 622 306 669 307 697 308 c 1
 703 302 703 277 697 271 c 1
 669 268 654 258 654 223 c 2
 654 106 l 2
 654 95 659 87 669 78 c 1
 605 24 497 -10 385 -10 c 0
 280 -10 201 12 138 66 c 0
 69 124 33 217 33 307 c 0
 33 415 72 505 139 565 c 0
 208 627 297 658 395 658 c 0
EndSplineSet
Position2: "'cpsp' Versalabstaende 1" dx=2 dy=0 dh=5 dv=0
EndChar

StartChar: divide
Encoding: 247 247 37
Width: 540
GlyphClass: 2
Flags: MW
LayerCount: 2
Fore
SplineSet
207.1 384.6 m 0
 207.1 417.3 235.6 444.1 269.1 444.1 c 0
 302.6 444.1 329.5 419 329.5 386.3 c 0
 329.5 354.5 300.9 327.6 267.4 327.6 c 0
 233.9 327.6 207.1 352.8 207.1 384.6 c 0
207.1 84.6 m 0
 207.1 117.3 235.6 144.1 269.1 144.1 c 0
 302.6 144.1 329.5 119 329.5 86.3 c 0
 329.5 54.5 300.9 27.6 267.4 27.6 c 0
 233.9 27.6 207.1 52.8 207.1 84.6 c 0
EndSplineSet
Refer: 1205 8722 N 1 0 0 1 0 0 2
EndChar

StartChar: Eogonek
Encoding: 280 280 44
Width: 609
GlyphClass: 2
Flags: MW
AnchorPoint: "below" 279 -110 basechar 0
AnchorPoint: "cedilla" 279 4 basechar 0
AnchorPoint: "above" 273 850 basechar 0
AnchorPoint: "right" 519 732 basechar 0
LayerCount: 2
Fore
SplineSet
497 -177 m 1
 471 -213 427 -232 388 -232 c 0
 368.7 -232 352.4 -225.4 338 -216 c 0
 315.1 -201 299 -175.9 299 -136 c 0
 299 -87.6 346.4 -30.6 398.4 0 c 1
 170 0 l 1
 170 0 64 -1 15 -2 c 1
 9 4 9 26 15 32 c 1
 85 35 102 39 102 122 c 2
 102 522 l 2
 102 605 85 610 15 613 c 1
 9 619 9 641 15 647 c 1
 65 646 169 645 169 645 c 1
 464 645 l 2
 488 645 496 646 513 649 c 0
 516 649 517 648 517 646 c 0
 519 638 524 542 529 501 c 1
 519.2 496.3 498.4 494.2 486 496 c 1
 464 565 443 603 368 603 c 2
 283 603 l 2
 259 603 242 578 242 554 c 2
 242 365 l 1
 323 365 l 2
 390 365 411 374 414 429 c 1
 420 435 451 435 457 429 c 1
 456 399 455 376.5 455 343 c 0
 455 308.7 456 290 457 255 c 1
 451 249 420 249 414 255 c 1
 411 300 392 319 323 319 c 2
 242 319 l 1
 242 90 l 2
 242 63 261 42 283 42 c 2
 384 42 l 2
 460 42 505 98 525 170 c 1
 538.1 173.2 559.6 171 570 165 c 1
 562 114 557 48 543 -2 c 1
 543 -2 510.7 -1.3 474.4 -0.7 c 1
 428.4 -11.3 391 -69.8 391 -130 c 0
 391 -162 408.5 -172 426 -172 c 0
 443 -172 467 -169 482 -154 c 1
 497 -177 l 1
EndSplineSet
Position2: "'cpsp' Versalabstaende 1" dx=2 dy=0 dh=5 dv=0
EndChar

StartChar: eogonek
Encoding: 281 281 45
Width: 489
GlyphClass: 2
Flags: MW
AnchorPoint: "below" 70 -108 basechar 0
AnchorPoint: "above" 231 645 basechar 0
LayerCount: 2
Fore
SplineSet
177 275 m 1
 313 275 l 1
 315 277 315 290 315 296 c 0
 315 376 278 402 251 402 c 0
 239.7 402 212.9 391.8 197 368 c 0
 183.4 347.7 178 310 177 275 c 1
431 129 m 1
 441 129 446 111 446 98 c 1
 413.7 50.8 373.8 19.4 331 3.2 c 1
 297.4 -30 276 -61.2 276 -111 c 0
 276 -137.5 293.5 -148 311 -148 c 0
 328 -148 352 -145 367 -130 c 1
 377.9 -137.5 382 -149.5 382 -163 c 1
 356 -199 305 -218 266 -218 c 0
 216 -218 174 -187 174 -132 c 0
 174 -88 212.3 -45.6 255.9 -10 c 1
 186.4 -9.5 138.1 6.4 101 40 c 0
 58.2 78.8 37 139.5 37 198 c 0
 37 351 157 444 262 444 c 0
 409 444 442 351 442 266 c 0
 442 252 437 235 413 235 c 2
 173 235 l 1
 173 230 172 226 172 219 c 0
 172 121 220 76 298 76 c 0
 336 76 390 87 431 129 c 1
EndSplineSet
EndChar

StartChar: Hbar
Encoding: 294 294 58
Width: 817
GlyphClass: 2
Flags: MW
LayerCount: 2
Fore
SplineSet
564 493.1 m 1
 488.6 493.7 412.8 494 387 494 c 0
 366.9 494 314 493.9 254 493.5 c 1
 254 367 l 1
 564 367 l 1
 564 493.1 l 1
254.3 536.6 m 1
 317.8 536.2 374.9 536 396 536 c 0
 420.7 536 491.4 536.2 563.7 536.8 c 1
 560.6 606.5 532.8 610.2 481 613 c 1
 471 619 471 641 481 647 c 1
 521 646 595 645 635 645 c 0
 675 645 747 646 787 647 c 1
 797 641 797 619 787 613 c 1
 735.7 610.2 707.9 606.5 704.4 538.5 c 1
 724.8 538.9 740.6 539.4 749 540 c 1
 740 490 l 1
 732.8 490.5 720.3 490.9 704 491.3 c 1
 704 122 l 2
 704 39 732 35 787 32 c 1
 797 26 797 4 787 -2 c 1
 747 -1 675 0 635 0 c 0
 595 0 521 -1 481 -2 c 1
 471 4 471 26 481 32 c 1
 536 35 564 39 564 122 c 2
 564 319 l 1
 254 319 l 1
 254 122 l 2
 254 39 282 35 337 32 c 1
 347 26 347 4 337 -2 c 1
 297 -1 225 0 185 0 c 0
 145 0 71 -1 31 -2 c 1
 21 4 21 26 31 32 c 1
 86 35 114 39 114 122 c 2
 114 492.3 l 1
 68.8 491.7 32.2 490.9 18 490 c 1
 27 540 l 1
 40.2 539.1 72.8 538.5 113.7 537.9 c 1
 110.4 606.5 82.5 610.2 31 613 c 1
 21 619 21 641 31 647 c 1
 71 646 145 645 185 645 c 0
 225 645 297 646 337 647 c 1
 347 641 347 619 337 613 c 1
 285.2 610.2 257.3 606.5 254.3 536.6 c 1
EndSplineSet
Position2: "'cpsp' Versalabstaende 1" dx=2 dy=0 dh=5 dv=0
EndChar

StartChar: hbar
Encoding: 295 295 59
Width: 619
GlyphClass: 2
Flags: MW
LayerCount: 2
Fore
SplineSet
528 128 m 2
 528 44 544 35 605 32 c 1
 611 26 611 4 605 -2 c 1
 562 -1 518.4 0 463 0 c 0
 415.4 0 383 -1 341 -2 c 1
 335 4 335 26 341 32 c 1
 382 35 398 44 398 128 c 2
 398 295 l 2
 398 352 363 370 323 370 c 0
 305.1 370 271.5 358.1 230 331.6 c 1
 230 127 l 2
 230 44 245 35 287 32 c 1
 293 26 293 4 287 -2 c 1
 244 -1 212.6 0 165 0 c 0
 109.6 0 65 -1 23 -2 c 1
 17 4 17 26 23 32 c 1
 84 35 100 44 100 127 c 2
 100 523.4 l 1
 70.2 522.8 41.4 521.8 15 520 c 1
 24 570 l 1
 47.7 568.4 73.4 567.4 100 566.8 c 1
 99.9 633.6 94.5 635 32 640 c 1
 27 649 26 660 29 672 c 1
 100 675 180 686 217 698 c 1
 226 698 233 694 233 685 c 2
 233 685 230 648 230 583 c 2
 230 566.5 l 1
 262.3 567.1 293.5 568.1 322 570 c 1
 313 520 l 1
 287.2 521.7 259.1 522.8 230 523.4 c 1
 230 371.6 l 1
 286.8 407.4 358.2 444 395 444 c 0
 481 444 528 394 528 284 c 2
 528 128 l 2
EndSplineSet
EndChar

StartChar: itilde
Encoding: 297 297 61
Width: 322
GlyphClass: 2
Flags: MW
AnchorPoint: "below" 136 -110 basechar 0
AnchorPoint: "cedilla" 142 -2 basechar 0
AnchorPoint: "above" 139 795 basechar 0
LayerCount: 2
Fore
SplineSet
207.6 589 m 0
 220.2 589 239.1 596 251.7 632 c 1
 264.3 632 276.9 624 276.9 612 c 1
 261.6 554 228.3 519 195 519 c 0
 174.3 519 154.5 525 136.5 540 c 1
 118.5 553 100.5 557 84.3 557 c 0
 64.5 557 50.1 555 40.2 517 c 1
 29.4 517 16.8 521 16.8 535 c 1
 31.2 586 60 628 91.5 628 c 0
 119.4 628 140.1 619 158.1 603 c 0
 174.3 589 197.7 589 207.6 589 c 0
EndSplineSet
Refer: 419 305 N 1 0 0 1 0 0 2
EndChar

StartChar: imacron
Encoding: 299 299 63
Width: 322
GlyphClass: 2
Flags: MW
LayerCount: 2
Fore
SplineSet
274.2 543 m 2
 27.6 543 l 2
 17.7 543 14.1 552 14.1 561 c 0
 14.1 573 24.9 593 36.6 593 c 2
 285 593 l 2
 294 593 297.6 584 297.6 576 c 0
 297.6 563 286.8 543 274.2 543 c 2
EndSplineSet
Refer: 419 305 N 1 0 0 1 0 0 2
EndChar

StartChar: ibreve
Encoding: 301 301 65
Width: 322
GlyphClass: 2
Flags: MW
LayerCount: 2
Fore
SplineSet
53.9 667 m 1
 55.7 613 94.4 588 151.1 588 c 0
 193.4 588 244.7 603 247.4 667 c 1
 276.2 657 l 1
 267.2 552 197 514 151.1 514 c 0
 78.2 514 30.5 576 24.2 657 c 1
 53.9 667 l 1
EndSplineSet
Refer: 419 305 N 1 0 0 1 0 0 2
EndChar

StartChar: Iogonek
Encoding: 302 302 66
Width: 367
GlyphClass: 2
Flags: MW
AnchorPoint: "above" 146 850 basechar 0
LayerCount: 2
Fore
SplineSet
277 -177 m 1
 251 -213 207 -232 168 -232 c 0
 148.7 -232 132.4 -225.4 118 -216 c 0
 95.1 -201 79 -175.9 79 -136 c 0
 79 -87.6 126.4 -30.6 178.4 -0 c 1
 137.3 -0.1 68.9 -1.1 31 -2 c 1
 21 4 21 26 31 32 c 1
 86 35 114 39 114 122 c 2
 114 523 l 2
 114 606 86 610 31 613 c 1
 21 619 21 641 31 647 c 1
 71 646 145 645 185 645 c 0
 225 645 297 646 337 647 c 1
 347 641 347 619 337 613 c 1
 282 610 254 606 254 523 c 2
 254 122 l 2
 254 39 282 35 337 32 c 1
 347 26 347 4 337 -2 c 1
 315.6 -1.5 285 -0.9 255.1 -0.5 c 1
 208.8 -10.7 171 -69.5 171 -130 c 0
 171 -162 188.5 -172 206 -172 c 0
 223 -172 247 -169 262 -154 c 1
 277 -177 l 1
EndSplineSet
Position2: "'cpsp' Versalabstaende 1" dx=2 dy=0 dh=5 dv=0
EndChar

StartChar: iogonek
Encoding: 303 303 67
Width: 322
GlyphClass: 2
Flags: MW
AnchorPoint: "above" 132 825 basechar 0
LayerCount: 2
Fore
SplineSet
277 -177 m 1
 251 -213 207 -232 168 -232 c 0
 148.7 -232 132.4 -225.4 118 -216 c 0
 95.1 -201 79 -175.9 79 -136 c 0
 79 -87.6 126.4 -30.6 178.4 -0 c 1
 174.7 0 170.9 0 167 0 c 0
 113.6 0 72 -1 30 -2 c 1
 24 4 24 26 30 32 c 1
 91 37 102 39 102 122 c 2
 102 314 l 2
 102 371 91.5 378.9 37 384 c 1
 35 390 33 410 35 416 c 1
 104 425 184.5 433 213 444 c 1
 227 444 236 438 236 427 c 2
 236 427 232 371 232 321.3 c 2
 232 122 l 2
 232 39 243 36 304 32 c 1
 310 26 310 4 304 -2 c 1
 287.1 -1.6 270.6 -1.2 253.6 -0.9 c 1
 208 -12 171 -70.2 171 -130 c 0
 171 -162 188.5 -172 206 -172 c 0
 223 -172 247 -169 262 -154 c 1
 277 -177 l 1
EndSplineSet
Refer: 673 775 N 1 0 0 1 331 0 2
EndChar

StartChar: uni0408
Encoding: 1032 1032 69
Width: 445
GlyphClass: 2
Flags: MW
LayerCount: 2
Fore
SplineSet
353 522 m 2
 353 260 l 2
 353 117 295 65 251 28 c 0
 210 -7 159 -10 100 -10 c 0
 71 -10 2 14 2 61 c 0
 2 90 42 117 60 117 c 0
 100 117 111.5 92.4 118 72 c 0
 122.7 57.3 146 49 164 49 c 0
 193.7 49 213 78 213 258 c 2
 213 522 l 2
 213 605 196 610 116 613 c 1
 110 619 110 641 116 647 c 1
 166 646 217.3 645 282 645 c 0
 339.7 645 391.3 646 430 647 c 1
 436 641 436 619 430 613 c 1
 370 610 353 605 353 522 c 2
EndSplineSet
EndChar

StartChar: uni040D
Encoding: 1037 1037 71
Width: 814
GlyphClass: 2
Flags: MW
LayerCount: 2
Fore
SplineSet
114 523 m 2
 114 606 86 610 31 613 c 1
 21 619 21 641 31 647 c 1
 71 646 145 645 185 645 c 0
 225 645 297 646 337 647 c 1
 347 641 347 619 337 613 c 1
 282 610 254 606 254 523 c 2
 254 161.3 l 1
 558.4 553.3 l 1
 551.7 607.1 524.4 610.4 477 613 c 1
 467 619 467 641 477 647 c 1
 517 646 591 645 631 645 c 0
 671 645 743 646 783 647 c 1
 793 641 793 619 783 613 c 1
 728 610 700 606 700 523 c 2
 700 122 l 2
 700 39 728 35 783 32 c 1
 793 26 793 4 783 -2 c 1
 743 -1 671 0 631 0 c 0
 591 0 517 -1 477 -2 c 1
 467 4 467 26 477 32 c 1
 532 35 560 39 560 122 c 2
 560 477.3 l 1
 256.4 86.4 l 1
 264.2 37.7 291.3 34.5 337 32 c 1
 347 26 347 4 337 -2 c 1
 297 -1 225 0 185 0 c 0
 145 0 71 -1 31 -2 c 1
 21 4 21 26 31 32 c 1
 86 35 114 39 114 122 c 2
 114 523 l 2
EndSplineSet
Refer: 2228 -1 N 1 0 0 1 576 0 2
EndChar

StartChar: uni0414
Encoding: 1044 1044 74
Width: 662
GlyphClass: 2
Flags: MW
LayerCount: 2
Fore
SplineSet
492 645 m 2
 532 645 592 646 632 647 c 1
 638 641 638 619 632 613 c 1
 577 610 549 606 549 523 c 2
 549 122 l 2
 549 62 567 42 591 42 c 0
 616 42 620 30 621 22 c 2
 627 -136 l 1
 615 -141 600 -143 585 -140 c 1
 570 -69 526 0 448 0 c 2
 187 0 l 2
 109 0 65 -69 50 -140 c 1
 35 -143 20 -141 8 -136 c 1
 14 22 l 2
 14.5 34.5 30.2 41.2 44 44 c 0
 59 47 68.3 53.9 79 70.5 c 0
 102.5 107 116 145 148 301 c 1
 170 415 182 513 182 576 c 0
 182 608 158.2 610.2 111 613 c 1
 105 619 105 641 111 647 c 1
 111 647 191 645 221 645 c 2
 492 645 l 2
372 601 m 2
 274 601 l 2
 247 601 237 587 235 562 c 0
 227 461 211 361 199 293 c 0
 177 176 152 82 152 61 c 0
 152 49 165 44 179 44 c 2
 363 44 l 2
 387 44 409 57 409 94 c 2
 409 562 l 2
 409 593 403 601 372 601 c 2
EndSplineSet
EndChar

StartChar: uni0416
Encoding: 1046 1046 75
Width: 1014
GlyphClass: 2
Flags: MW
LayerCount: 2
Fore
SplineSet
1020 -1 m 1
 999 -4 957 -6 937 -6 c 0
 917 -6 882 -4 862 0 c 0
 799 12 768 55 713 161 c 0
 680.6 223.8 630.9 306.9 577 309.9 c 1
 577 122 l 2
 577 39 605 35 660 32 c 1
 670 26 670 4 660 -2 c 1
 620 -1 548 0 508 0 c 0
 468 0 394 -1 354 -2 c 1
 344 4 344 26 354 32 c 1
 409 35 437 39 437 122 c 2
 437 309.9 l 1
 383.1 306.9 333.4 223.8 301 161 c 0
 246 55 215 12 152 0 c 0
 132 -4 97 -6 77 -6 c 0
 57 -6 15 -4 -6 -1 c 1
 -12 5 -12 27 -6 33 c 1
 32 37 68 62 99 102 c 0
 144 161 182 244 227 296 c 0
 252 324 274 345 296 348 c 1
 296 353 l 1
 267 369 255 402 241 438 c 0
 228 472 209 514 191 536 c 0
 172 558 164 558 150 558 c 0
 139 558 126 555 118 547 c 0
 109 537 96 535 84 535 c 0
 65 535 40 575 40 612 c 0
 40 635 56 662 104 662 c 0
 162 662 208 614 236 564 c 1
 254 534 272 477 290 441 c 0
 325.6 368.8 349.5 352.4 437 352 c 1
 437 523 l 2
 437 606 409 610 354 613 c 1
 344 619 344 641 354 647 c 1
 394 646 468 645 508 645 c 0
 548 645 620 646 660 647 c 1
 670 641 670 619 660 613 c 1
 605 610 577 606 577 523 c 2
 577 352 l 1
 664.5 352.4 688.4 368.8 724 441 c 0
 742 477 760 534 778 564 c 1
 806 614 852 662 910 662 c 0
 958 662 974 635 974 612 c 0
 974 575 949 535 930 535 c 0
 918 535 905 537 896 547 c 0
 888 555 875 558 864 558 c 0
 850 558 842 558 823 536 c 0
 805 514 786 472 773 438 c 0
 759 402 747 369 718 353 c 1
 718 348 l 1
 740 345 762 324 787 296 c 0
 832 244 870 161 915 102 c 0
 946 62 982 37 1020 33 c 1
 1026 27 1026 5 1020 -1 c 1
EndSplineSet
EndChar

StartChar: uni0417
Encoding: 1047 1047 76
Width: 581
GlyphClass: 2
Flags: MW
LayerCount: 2
Fore
SplineSet
280 658 m 0
 399 658 486 611 486 515 c 0
 486 428 428 379 373 360 c 1
 373 356 l 1
 443 336 535 297 535 192 c 0
 535 50 387 -10 249 -10 c 0
 168 -10 104 19 73 43 c 0
 46 64 30 91 30 118 c 0
 30 144 47 165 70 165 c 0
 98 165 126 152 136 120 c 0
 160 48 198.5 32 252 32 c 0
 322 32 385 70 385 176 c 0
 385 227 376 328 259 331 c 2
 176 333 l 2
 165 333 160 342 160 354 c 0
 160 365 165 376 176 376 c 2
 223 378 l 2
 340 383 347 451 347 506 c 0
 347 573 313 616 256 616 c 0
 171 616 129 540 111 474 c 1
 97 470 72 470 61 479 c 1
 61 532 65 573 72 631 c 1
 127 639 187 658 280 658 c 0
EndSplineSet
EndChar

StartChar: uni0418
Encoding: 1048 1048 77
Width: 814
GlyphClass: 2
Flags: MW
LayerCount: 2
Fore
SplineSet
114 523 m 2
 114 606 86 610 31 613 c 1
 21 619 21 641 31 647 c 1
 71 646 145 645 185 645 c 0
 225 645 297 646 337 647 c 1
 347 641 347 619 337 613 c 1
 282 610 254 606 254 523 c 2
 254 161.3 l 1
 558.4 553.3 l 1
 551.7 607.1 524.4 610.4 477 613 c 1
 467 619 467 641 477 647 c 1
 517 646 591 645 631 645 c 0
 671 645 743 646 783 647 c 1
 793 641 793 619 783 613 c 1
 728 610 700 606 700 523 c 2
 700 122 l 2
 700 39 728 35 783 32 c 1
 793 26 793 4 783 -2 c 1
 743 -1 671 0 631 0 c 0
 591 0 517 -1 477 -2 c 1
 467 4 467 26 477 32 c 1
 532 35 560 39 560 122 c 2
 560 477.3 l 1
 256.4 86.4 l 1
 264.2 37.7 291.3 34.5 337 32 c 1
 347 26 347 4 337 -2 c 1
 297 -1 225 0 185 0 c 0
 145 0 71 -1 31 -2 c 1
 21 4 21 26 31 32 c 1
 86 35 114 39 114 122 c 2
 114 523 l 2
EndSplineSet
EndChar

StartChar: uni0423
Encoding: 1059 1059 83
Width: 667
GlyphClass: 2
Flags: MW
LayerCount: 2
Fore
SplineSet
552 543 m 2
 404 161 l 2
 361.7 51.7 296 -29 206 -29 c 0
 146 -29 99 8 99 40 c 0
 99 68 114 97 146 97 c 0
 171 97 188.2 87.1 197 75 c 0
 205 64 219 52 234 52 c 0
 264 52 287 53 311 115 c 1
 106 559 l 2
 84.7 605 54 609 15 613 c 1
 9 619 9 641 15 647 c 1
 52 646 108 645 149 645 c 0
 188 645 288 646 325 647 c 1
 331 641 331 619 325 613 c 1
 277 610 237.1 604.5 251 574 c 2
 380.6 289 l 2
 382.6 284.6 387.4 284.2 390 291 c 2
 494 566 l 2
 508.3 603.9 463 610 425 613 c 1
 419 619 419 641 425 647 c 1
 462 646 517 645 558 645 c 0
 597 645 625.8 646 652 647 c 1
 658 641 658 619 652 613 c 1
 608 610 575.4 603.4 552 543 c 2
EndSplineSet
EndChar

StartChar: uni0426
Encoding: 1062 1062 85
Width: 783
GlyphClass: 2
Flags: MW
LayerCount: 2
Fore
SplineSet
563 0 m 2
 563 0 451.8 -2 390 -2 c 0
 326.9 -2 246.7 0 183 0 c 0
 143 0 71 -1 31 -2 c 1
 21 4 21 26 31 32 c 1
 86 35 114 39 114 122 c 2
 114 523 l 2
 114 606 86 610 31 613 c 1
 21 619 21 641 31 647 c 1
 71 646 143 645 183 645 c 0
 223 645 297 646 337 647 c 1
 347 641 347 619 337 613 c 1
 282 610 254 606 254 523 c 2
 254 122 l 2
 254 52 282 45 337 42 c 1
 441 42 l 1
 496 45 524 52.5 524 122 c 2
 524 523 l 2
 524 606 496 610 441 613 c 1
 431 619 431 641 441 647 c 1
 481 646 553 645 593 645 c 0
 633 645 707 646 747 647 c 1
 757 641 757 619 747 613 c 1
 692 610 664 606 664 523 c 2
 664 122 l 2
 664 61.5 682 42 706 42 c 0
 731 42 735 30 736 22 c 2
 742 -136 l 1
 729.7 -141.3 715 -142.7 700 -140 c 1
 685 -69 641 0.9 563 0 c 2
EndSplineSet
EndChar

StartChar: uni0427
Encoding: 1063 1063 86
Width: 733
GlyphClass: 2
Flags: MW
LayerCount: 2
Fore
SplineSet
480 523 m 2
 480 606 452 610 397 613 c 1
 387 619 387 641 397 647 c 1
 437 646 511 645 551 645 c 0
 591 645 663 646 703 647 c 1
 713 641 713 619 703 613 c 1
 648 610 620 606 620 523 c 2
 620 122 l 2
 620 39 648 35 703 32 c 1
 713 26 713 4 703 -2 c 1
 663 -1 591 0 551 0 c 0
 511 0 437 -1 397 -2 c 1
 387 4 387 26 397 32 c 1
 452 35 480 39 480 122 c 2
 480 303 l 1
 407 252 319 238 261 238 c 0
 147 238 107 307 107 406 c 2
 107 523 l 2
 107 606 79 610 24 613 c 1
 14 619 14 641 24 647 c 1
 64 646 138 645 178 645 c 0
 218 645 290 646 330 647 c 1
 340 641 340 619 330 613 c 1
 275 610 247 606 247 523 c 2
 247 420 l 2
 247 338 261 311 333 311 c 0
 362 311 416 314 480 356 c 1
 480 523 l 2
EndSplineSet
EndChar

StartChar: uni0428
Encoding: 1064 1064 87
Width: 1188
GlyphClass: 2
Flags: MW
LayerCount: 2
Fore
SplineSet
1005 0 m 2
 1005 0 862 -2 800 -2 c 0
 737 -2 657 0 593 0 c 0
 553 0 431 -1 390 -2 c 1
 327 -2 247 0 183 0 c 0
 143 0 71 -1 31 -2 c 1
 21 4 21 26 31 32 c 1
 86 35 114 39 114 122 c 2
 114 523 l 2
 114 606 86 610 31 613 c 1
 21 619 21 641 31 647 c 1
 71 646 143 645 183 645 c 0
 223 645 297 646 337 647 c 1
 347 641 347 619 337 613 c 1
 282 610 254 606 254 523 c 2
 254 122 l 2
 254 52 281.9 42 337 42 c 2
 441 42 l 2
 496.1 42 524 52 524 122 c 2
 524 523 l 2
 524 606 496 610 441 613 c 1
 431 619 431 641 441 647 c 1
 481 646 553 645 593 645 c 0
 633 645 707 646 747 647 c 1
 757 641 757 619 747 613 c 1
 692 610 664 606 664 523 c 2
 664 122 l 2
 664 52 691.9 42 747 42 c 2
 851 42 l 2
 906.1 42 934 52 934 122 c 2
 934 523 l 2
 934 606 906 610 851 613 c 1
 841 619 841 641 851 647 c 1
 891 646 963 645 1003 645 c 0
 1043 645 1117 646 1157 647 c 1
 1167 641 1167 619 1157 613 c 1
 1102 610 1074 606 1074 523 c 2
 1074 122 l 2
 1074 39 1102 35 1157 32 c 1
 1167 26 1167 4 1157 -2 c 1
 1117 -1 1045 0.4 1005 0 c 2
EndSplineSet
EndChar

StartChar: uni0429
Encoding: 1065 1065 88
Width: 1193
GlyphClass: 2
Flags: MW
LayerCount: 2
Fore
SplineSet
664 122 m 2
 664 52 691.9 42 747 42 c 2
 851 42 l 2
 906.1 42 934 52.5 934 122 c 2
 934 523 l 2
 934 606 906 610 851 613 c 1
 841 619 841 641 851 647 c 1
 891 646 963 645 1003 645 c 0
 1043 645 1117 646 1157 647 c 1
 1167 641 1167 619 1157 613 c 1
 1102 610 1074 606 1074 523 c 2
 1074 122 l 2
 1074 61.5 1092 42 1116 42 c 0
 1141 42 1145 30 1146 22 c 2
 1152 -136 l 1
 1139.7 -141.3 1125 -142.7 1110 -140 c 1
 1095 -69 1051 0.9 973 0 c 2
 973 0 861.8 -2 800 -2 c 0
 736.9 -2 656.7 0 593 0 c 0
 553 0 431 -1 390 -2 c 1
 326.9 -2 246.7 0 183 0 c 0
 143 0 71 -1 31 -2 c 1
 21 4 21 26 31 32 c 1
 86 35 114 39 114 122 c 2
 114 523 l 2
 114 606 86 610 31 613 c 1
 21 619 21 641 31 647 c 1
 71 646 143 645 183 645 c 0
 223 645 297 646 337 647 c 1
 347 641 347 619 337 613 c 1
 282 610 254 606 254 523 c 2
 254 122 l 2
 254 52 281.9 42 337 42 c 2
 441 42 l 2
 496.1 42 524 52.5 524 122 c 2
 524 523 l 2
 524 606 496 610 441 613 c 1
 431 619 431 641 441 647 c 1
 481 646 553 645 593 645 c 0
 633 645 707 646 747 647 c 1
 757 641 757 619 747 613 c 1
 692 610 664 606 664 523 c 2
 664 122 l 2
EndSplineSet
EndChar

StartChar: uni042A
Encoding: 1066 1066 89
Width: 848
GlyphClass: 2
Flags: MW
LayerCount: 2
Fore
SplineSet
456 334 m 1
 456 84 l 2
 456 55 462 40 522 40 c 0
 654 40 675 127 675 187 c 0
 675 273 630 334 527 334 c 2
 456 334 l 1
316 524 m 2
 316 584 302 603 281 603 c 2
 221 603 l 2
 116 603 79 547 59 475 c 1
 47 473 26 475 16 480 c 1
 22 532 32 597 42 647 c 1
 42 647 133 645 162 645 c 2
 385 645 l 2
 424 645 539 647 539 647 c 1
 549 641 549 619 539 613 c 1
 484 610 456 606 456 523 c 2
 456 376 l 1
 512 376 l 2
 564 376 619.3 373.3 672 359 c 0
 777.8 330.3 822 274 822 186 c 0
 822 84 756 -2 551 -2 c 0
 491 -2 427 0 387 0 c 0
 347 0 233 -2 233 -2 c 1
 223 4 223 26 233 32 c 1
 288 35 316 39 316 122 c 2
 316 524 l 2
EndSplineSet
EndChar

StartChar: uni042C
Encoding: 1068 1068 91
Width: 628
GlyphClass: 2
Flags: MW
LayerCount: 2
Fore
SplineSet
242 334 m 1
 242 84 l 2
 242 55 248 40 308 40 c 0
 440 40 455 127 455 187 c 0
 455 273 416 334 313 334 c 2
 242 334 l 1
242 523 m 2
 242 376 l 1
 298 376 l 2
 350 376 404.2 375.2 458 366 c 0
 568.6 347.1 602 274 602 186 c 0
 602 84 521.6 -2 337 -2 c 0
 277 -2 213 0 173 0 c 0
 133 0 19 -2 19 -2 c 1
 9 4 9 26 19 32 c 1
 74 35 102 39 102 122 c 2
 102 523 l 2
 102 606 74 610 19 613 c 1
 9 619 9 641 19 647 c 1
 59 646 133 645 173 645 c 0
 213 645 285 646 325 647 c 1
 335 641 335 619 325 613 c 1
 270 610 242 606 242 523 c 2
EndSplineSet
EndChar

StartChar: uni042D
Encoding: 1069 1069 92
Width: 620
GlyphClass: 2
Flags: MW
AnchorPoint: "komb_OR" 580 606 basechar 0
AnchorPoint: "above" 285 850 basechar 0
AnchorPoint: "cedilla" 270 0 basechar 0
AnchorPoint: "below" 270 -110 basechar 0
LayerCount: 2
Fore
SplineSet
268 32 m 0
 377.5 32 430 161 432 295 c 1
 387 273 361 273 350 273 c 0
 288 273 245 311 186 311 c 0
 148 311 132 295 124 295 c 0
 120 295 115 303 115 312 c 0
 115 336 178 370 237 370 c 0
 303 370 332 339 390 339 c 0
 409 339 417 342 432 346 c 1
 423 550 331 616 251 616 c 0
 153 616 108 539 82 453 c 1
 70 449 50.3 452 39 458 c 1
 44 510 51.5 559.5 61 613 c 1
 112 618 146 658 269 658 c 0
 429 658 584 550 584 333 c 0
 584 113 435 -10 265 -10 c 0
 184 -10 120 19 89 43 c 0
 62 64 46 91 46 118 c 0
 46 144 63 165 86 165 c 0
 114 165 142 152 152 120 c 0
 176 48 214.5 32 268 32 c 0
EndSplineSet
EndChar

StartChar: uni042E
Encoding: 1070 1070 93
Width: 982
GlyphClass: 2
Flags: MW
AnchorPoint: "above" 335 850 basechar 0
AnchorPoint: "cedilla" 640 0 basechar 0
AnchorPoint: "below" 640 -110 basechar 0
LayerCount: 2
Fore
SplineSet
626 616 m 0
 553.2 616 487 537 487 327 c 0
 487 135 549 32 657 32 c 0
 753.3 32 792 131 792 310 c 0
 792 518 747.3 616 626 616 c 0
114 523 m 2
 114 606 86 610 31 613 c 1
 21 619 21 641 31 647 c 1
 71 646 145 645 185 645 c 0
 225 645 297 646 337 647 c 1
 347 641 347 619 337 613 c 1
 282 610 254 606 254 523 c 2
 254 349 l 1
 338 349 l 1
 353 526 468.3 658 638 658 c 0
 828.3 658 942 527 942 329 c 0
 942 129 835.3 -10 639 -10 c 0
 464.3 -10 341 109 337 300 c 1
 254 300 l 1
 254 122 l 2
 254 39 282 35 337 32 c 1
 347 26 347 4 337 -2 c 1
 297 -1 225 0 185 0 c 0
 145 0 71 -1 31 -2 c 1
 21 4 21 26 31 32 c 1
 86 35 114 39 114 122 c 2
 114 523 l 2
EndSplineSet
EndChar

StartChar: uni042F
Encoding: 1071 1071 94
Width: 716
GlyphClass: 2
Flags: MW
LayerCount: 2
Fore
SplineSet
272 477 m 0
 272 354.4 335 325 419 325 c 2
 462 325 l 1
 462 524 l 2
 462 592 455 613 402 613 c 0
 344 613 272 599 272 477 c 0
380 654 m 0
 420 654 645 647 685 647 c 1
 695 641 695 619 685 613 c 1
 630 610 602 606 602 523 c 2
 602 122 l 2
 602 39 630 35 685 32 c 1
 695 26 695 4 685 -2 c 1
 645 -1 571 0 531 0 c 0
 491 0 419 -1 379 -2 c 1
 369 4 369 26 379 32 c 1
 434 35 462 39 462 122 c 2
 462 283 l 1
 382.6 282.7 374 275.8 360 253 c 1
 243 79 l 2
 212 34 171 -10 111 -10 c 0
 70.7 -10 19 -7 9 -2 c 1
 5.5 4.9 6 24 10 32 c 1
 55 32 78 56 106 98 c 2
 242 308 l 1
 188 330 126 372 126 474 c 0
 126 522.3 146.9 584.3 209 621 c 0
 246 642.8 305 654 380 654 c 0
EndSplineSet
EndChar

StartChar: uni0447
Encoding: 1095 1095 95
Width: 623
GlyphClass: 2
Flags: MW
LayerCount: 2
Fore
SplineSet
389 237 m 1
 389 307 l 2
 389 390 373 399 332 402 c 1
 326 408 326 430 332 436 c 1
 354 435 406 434 454 434 c 0
 509 434 553 435 596 436 c 1
 602 430 602 408 596 402 c 1
 535 399 519 390 519 307 c 2
 519 127 l 2
 519 44 535 35 596 32 c 1
 602 26 602 4 596 -2 c 1
 553 -1 509 0 454 0 c 0
 399 0 354 -1 312 -2 c 1
 306 4 306 26 312 32 c 1
 373 35 389 44 389 127 c 2
 389 197 l 1
 342 152 287 115 227 115 c 0
 129 115 83 161 83 267 c 2
 83 307 l 2
 83 390 66.7 398.7 16 402 c 1
 10 408 10 430 16 436 c 1
 48 435 96.5 434 148 434 c 0
 195.6 434 247 435 270 436 c 1
 276 430 276 408 270 402 c 1
 229 399 213 390 213 307 c 2
 213 283 l 2
 213 205 240 186 270 186 c 0
 319 186 350 206.5 389 237 c 1
EndSplineSet
EndChar

StartChar: uni0448
Encoding: 1096 1096 96
Width: 928
GlyphClass: 2
Flags: MW
LayerCount: 2
Fore
SplineSet
169 0 m 2
 118 0 70 -1 27 -2 c 1
 21 4 21 26 27 32 c 1
 88 35 104 44 104 127 c 2
 104 307 l 2
 104 390 88 399 27 402 c 1
 21 408 21 430 27 436 c 1
 69 435 113.6 434 169 434 c 0
 216.6 434 268 435 291 436 c 1
 297 430 297 408 291 402 c 1
 250 399 234 390 234 307 c 2
 234 127 l 2
 234 49.5 250 47 291 44 c 0
 301 44 334 44 342 44 c 0
 383 47 399 49.5 399 127 c 2
 399 307 l 2
 399 390 383 399 342 402 c 1
 336 408 336 430 342 436 c 1
 365 435 416.4 434 464 434 c 0
 511.6 434 563 435 586 436 c 1
 592 430 592 408 586 402 c 1
 545 399 529 390 529 307 c 2
 529 127 l 2
 529 51.5 545 47 586 44 c 0
 596 44 629 44 637 44 c 0
 678 47 694 49.5 694 127 c 2
 694 307 l 2
 694 390 678 399 637 402 c 1
 631 408 631 430 637 436 c 1
 660 435 711.4 434 759 434 c 0
 814.4 434 859 435 901 436 c 1
 907 430 907 408 901 402 c 1
 840 399 824 390 824 307 c 2
 824 127 l 2
 824 44 840 35 901 32 c 1
 907 26 907 4 901 -2 c 1
 858 -1 811.7 0 759 0 c 2
 169 0 l 2
EndSplineSet
EndChar

StartChar: uni0449
Encoding: 1097 1097 97
Width: 928
GlyphClass: 2
Flags: MW
LayerCount: 2
Fore
SplineSet
824 127 m 2
 824 53.5 843.5 48 892 44 c 1
 897.5 37.5 899 20 899 7 c 2
 889 -124 l 1
 875.5 -131 859 -132.5 846 -128 c 1
 831.5 -60.5 817.5 0 741 0 c 2
 169 0 l 2
 118 0 70 -1 27 -2 c 1
 21 4 21 26 27 32 c 1
 88 35 104 44 104 127 c 2
 104 307 l 2
 104 390 88 399 27 402 c 1
 21 408 21 430 27 436 c 1
 69 435 113.6 434 169 434 c 0
 216.6 434 268 435 291 436 c 1
 297 430 297 408 291 402 c 1
 250 399 234 390 234 307 c 2
 234 127 l 2
 234 49.5 250 47 291 44 c 0
 301 44 334 44 342 44 c 0
 383 47 399 49.5 399 127 c 2
 399 307 l 2
 399 390 383 399 342 402 c 1
 336 408 336 430 342 436 c 1
 365 435 416.4 434 464 434 c 0
 511.6 434 563 435 586 436 c 1
 592 430 592 408 586 402 c 1
 545 399 529 390 529 307 c 2
 529 127 l 2
 529 51.5 545 47 586 44 c 0
 596 44 629 44 637 44 c 0
 678 47 694 49.5 694 127 c 2
 694 307 l 2
 694 390 678 399 637 402 c 1
 631 408 631 430 637 436 c 1
 660 435 711.4 434 759 434 c 0
 814.4 434 859 435 901 436 c 1
 907 430 907 408 901 402 c 1
 840 399 824 390 824 307 c 2
 824 127 l 2
EndSplineSet
EndChar

StartChar: uni044A
Encoding: 1098 1098 98
Width: 608
GlyphClass: 2
Flags: MW
LayerCount: 2
Fore
SplineSet
463 132 m 0
 463 172 458 234 383 234 c 2
 324 234 l 1
 324 79 l 2
 324 43 333 36 379 36 c 0
 438 36 463 74 463 132 c 0
194 307 m 2
 194 370 182 392 150 392 c 0
 98.2 392 74 354 52 285 c 1
 40 283 19 285 9 290 c 1
 14 331 19 427 21 435 c 0
 21 437 22 438 25 438 c 0
 42 435 50 434 74 434 c 2
 259 434 l 1
 259 434 358 435 401 436 c 1
 407 430 407 408 401 402 c 1
 340 399 324 390 324 307 c 2
 324 272 l 1
 392 272 l 2
 505 272 593 251 593 141 c 0
 593 37 529 -2 398 -2 c 1
 259 0 l 2
 203.6 0 160 -1 117 -2 c 1
 111 4 111 26 117 32 c 1
 178 35 194 44 194 127 c 2
 194 307 l 2
EndSplineSet
EndChar

StartChar: uni044C
Encoding: 1100 1100 100
Width: 518
GlyphClass: 2
Flags: MW
LayerCount: 2
Fore
SplineSet
373 132 m 0
 373 172 368 234 293 234 c 2
 234 234 l 1
 234 79 l 2
 234 43 243.2 36 289 36 c 0
 348 36 373 74 373 132 c 0
169 0 m 2
 113.6 0 70 -1 27 -2 c 1
 21 4 21 26 27 32 c 1
 88 35 104 44 104 127 c 2
 104 307 l 2
 104 390 88 399 27 402 c 1
 21 408 21 430 27 436 c 1
 69 435 113.6 434 169 434 c 0
 224.4 434 268 435 311 436 c 1
 317 430 317 408 311 402 c 1
 250 399 234 390 234 307 c 2
 234 272 l 1
 302 272 l 2
 415 272 503 251.5 503 141 c 0
 503 37 439 -2 308 -2 c 1
 169 0 l 2
EndSplineSet
EndChar

StartChar: uni044D
Encoding: 1101 1101 101
Width: 475
GlyphClass: 2
Flags: MW
LayerCount: 2
Fore
SplineSet
203 444 m 0
 357 444 438 335 438 225 c 0
 438 59 333 -10 187 -10 c 0
 92 -10 35 42 35 81 c 0
 35 108 49 130 77 130 c 0
 105 130 123.3 110.9 131 89 c 0
 144.5 50.5 161 32 197 32 c 0
 293 32 296 126 297 203 c 1
 280 191 252 174 228 174 c 0
 184 174 155 209 120 209 c 0
 108 209 98 202 90 202 c 0
 84 202 83 214 83 219 c 0
 83 239 128 262 171 262 c 0
 216 262 232 238 270 238 c 0
 280 238 290 237 297 235 c 1
 295 308 258 402 187 402 c 0
 141 402 102 370 77 309 c 1
 59 306 48 307 38 314 c 1
 38 350 44 388 53 420 c 1
 85 434 148 444 203 444 c 0
EndSplineSet
EndChar

StartChar: uni044E
Encoding: 1102 1102 102
Width: 838
GlyphClass: 2
Flags: MW
LayerCount: 2
Fore
SplineSet
557 402 m 0
 490 402 484 321 484 229 c 0
 484 155 506 32 588 32 c 0
 624 32 661 63.9 661 184 c 0
 661 321 625 402 557 402 c 0
234 196 m 1
 234 127 l 2
 234 44 250 35 311 32 c 1
 317 26 317 4 311 -2 c 1
 268 -1 224.4 0 169 0 c 0
 113.6 0 69 -1 27 -2 c 1
 21 4 21 26 27 32 c 1
 88 35 104 44 104 127 c 2
 104 307 l 2
 104 390 88 399 27 402 c 1
 21 408 21 430 27 436 c 1
 70 435 113.6 434 169 434 c 0
 224.4 434 269 435 311 436 c 1
 317 430 317 408 311 402 c 1
 250 399 234 390 234 307 c 2
 234 240 l 1
 345.8 240 l 1
 347.5 286 364.8 334.5 395.7 370 c 0
 435.2 415.4 490.1 444 573 444 c 0
 721.5 444 801 346.8 801 216 c 0
 801 160.3 783.6 91.3 733 46 c 0
 691.9 9.2 642.5 -10 572 -10 c 0
 441.4 -10 349.3 71.6 344.2 196 c 1
 234 196 l 1
EndSplineSet
EndChar

StartChar: uni044F
Encoding: 1103 1103 103
Width: 563
GlyphClass: 2
Flags: MW
LayerCount: 2
Fore
SplineSet
329 226 m 1
 329 307 l 2
 329 390 326.7 398 282 398 c 0
 231.8 398 200 368 200 321 c 0
 200 271 213 226 269 226 c 2
 329 226 l 1
189.7 192.5 m 1
 189 194.4 l 1
 135.7 198.5 72 240.2 72 315 c 0
 72 404.5 152 436 250.5 436 c 0
 292.1 436 338 434 394 434 c 0
 449.4 434 493 435 536 436 c 1
 542 430 542 408 536 402 c 1
 475 399 459 390 459 307 c 2
 459 127 l 2
 459 44 475 35 536 32 c 1
 542 26 542 4 536 -2 c 1
 494 -1 449.4 0 394 0 c 0
 346.4 0 295 -1 272 -2 c 1
 266 4 266 26 272 32 c 1
 313 35 329 44 329 127 c 2
 329 184 l 1
 309 184 l 2
 249.5 184 236 145 215 84 c 1
 202 43 182.7 0.6 150 0 c 2
 150 0 42 -1 19 -2 c 1
 13.3 3.3 14 24.3 19 32 c 1
 61.7 35.3 80.7 67.4 109 136 c 0
 124.6 173.9 142.4 183.9 189.7 192.5 c 1
EndSplineSet
EndChar

StartChar: uni04AE
Encoding: 1198 1198 104
Width: 541
GlyphClass: 2
Flags: MW
LayerCount: 2
Fore
SplineSet
232 75 m 2
 232 282 l 1
 235 280 l 1
 179 376 123 473 67 569 c 0
 54 592 47 604 42 607 c 0
 38 609 32 611 25 611 c 2
 10 611 l 1
 1 612 -19 615 -19 622 c 2
 -19 638 l 1
 -9 647 l 1
 -9 647 96 645 109 645 c 0
 115 645 236 647 236 647 c 1
 246 638 l 1
 246 623 l 2
 246 617 237 611 218 611 c 2
 189 611 l 2
 187 611 186 608 186 602 c 0
 186 594 189 585 195 575 c 0
 240 500 268 454 313 377 c 1
 350 443 386 509 421 575 c 0
 427 586 430 595 430 602 c 0
 430 609 429 611 426 611 c 2
 396 611 l 1
 374 613 370 618 370 622 c 2
 370 638 l 1
 379 647 l 1
 379 647 471 645 484 645 c 0
 492 645 584 647 584 647 c 1
 593 638 l 1
 593 623 l 2
 593 614 582 611 562 611 c 2
 541 611 l 2
 526 611 517 600 500 569 c 2
 353 292 l 1
 355 293 l 1
 355 75 l 2
 355 47 365 35 388 35 c 2
 414 35 l 2
 430 35 444 31 444 23 c 2
 444 8 l 1
 435 -1 l 1
 435 -1 334 1 296 1 c 0
 261 1 154 -1 154 -1 c 1
 145 8 l 1
 145 23 l 2
 145 31 156 35 174 35 c 2
 200 35 l 2
 224 35 232 50 232 75 c 2
EndSplineSet
EndChar

StartChar: uni04D4
Encoding: 1236 1236 110
Width: 956
GlyphClass: 2
Flags: MW
LayerCount: 2
Fore
SplineSet
112 102 m 2
 364 562 l 2
 383.8 598.1 358 613 312 613 c 0
 306 613 304 616 304 620 c 2
 304 645 l 1
 306 647 l 1
 513 645 l 1
 811 645 l 2
 835 645 843 646 860 649 c 0
 863 649 864 648 864 646 c 0
 866 638 871 542 876 501 c 1
 866.2 496.3 845.4 494.2 833 496 c 1
 811 565 790 603 715 603 c 2
 630 603 l 2
 606 603 589 578 589 554 c 2
 589 367 l 1
 670 367 l 2
 737 367 758 374 761 429 c 1
 767 435 798 435 804 429 c 1
 803 399 802 377 802 343 c 0
 802 309 803 290 804 255 c 1
 798 249 767 249 761 255 c 1
 758 300 739 317 670 317 c 2
 589 317 l 1
 589 90 l 2
 589 63 608 42 630 42 c 2
 731 42 l 2
 807 42 852 98 872 170 c 1
 885.1 173.2 906.6 171 917 165 c 1
 909 114 904 48 890 -2 c 1
 890 -2 800 0 752 0 c 2
 516 0 l 1
 516 0 411 -1 362 -2 c 1
 356 4 356 26 362 32 c 1
 432 35 449 39 449 122 c 2
 449 266 l 1
 271 266 l 1
 170 79 l 2
 148.9 40 201.4 34.6 239 32 c 1
 245 26 245 4 239 -2 c 1
 202 -1 147 0 106 0 c 0
 67 0 49 -1 12 -2 c 1
 6 4 6 26 12 32 c 1
 55.5 35 80.2 44 112 102 c 2
297 316 m 1
 449 316 l 1
 449 545 l 2
 449 571 437 578 420 546 c 2
 297 316 l 1
EndSplineSet
EndChar

StartChar: uni1E14
Encoding: 7700 7700 149
Width: 609
GlyphClass: 2
Flags: MW
LayerCount: 2
Fore
SplineSet
31.7 894.4 m 1
 12.5 883.8 -8.4 864.5 -18.4 846 c 1
 -16.1 835.4 l 1
 94.8 784.4 l 2
 105.6 779.1 114.9 778.2 121.8 778.2 c 0
 128.7 778.2 137.2 784.4 137.2 791.4 c 0
 137.2 797.6 137.2 802.9 129.5 809.9 c 0
 113.3 825.7 62.5 869.8 31.7 894.4 c 1
323 365 m 2
 390 365 411 374 414 429 c 1
 420 435 451 435 457 429 c 1
 456 399 455 376.5 455 343 c 0
 455 308.7 456 290 457 255 c 1
 451 249 420 249 414 255 c 1
 411 300 392 319 323 319 c 2
 242 319 l 1
 242 90 l 2
 242 63 261 42 283 42 c 2
 384 42 l 2
 460 42 505 98 525 170 c 1
 538.1 173.2 559.6 171 570 165 c 1
 562 114 557 48 543 -2 c 1
 543 -2 453 0 405 0 c 2
 170 0 l 1
 170 0 64 -1 15 -2 c 1
 9 4 9 26 15 32 c 1
 85 35 102 39 102 122 c 2
 102 522 l 2
 102 605 85 610 15 613 c 1
 9 619 9 641 15 647 c 1
 65 646 169 645 169 645 c 1
 464 645 l 2
 488 645 496 646 513 649 c 0
 516 649 517 648 517 646 c 0
 519 638 524 542 529 501 c 1
 519.2 496.3 498.4 494.2 486 496 c 1
 464 565 443 603 368 603 c 2
 283 603 l 2
 259 603 242 578 242 554 c 2
 242 365 l 1
 323 365 l 2
EndSplineSet
Refer: 1418 772 N 1 0 0 1 515 195 2
EndChar

StartChar: uni1E15
Encoding: 7701 7701 150
Width: 489
GlyphClass: 2
Flags: MW
LayerCount: 2
Fore
SplineSet
228.2 774.6 m 1
 283.4 663 l 2
 286.6 656.7 290.6 646.8 290.6 639.6 c 0
 290.6 631.5 284.2 625.2 277 625.2 c 0
 270.6 625.2 262.6 629.7 249 643.2 c 2
 152.2 737.7 l 1
 153.8 747.6 l 1
 160.2 755.7 183.4 776.4 212.2 776.4 c 0
 216.2 776.4 225 775.5 228.2 774.6 c 1
EndSplineSet
Refer: 417 275 N 1 0 0 1 0 0 2
EndChar

StartChar: uni1E16
Encoding: 7702 7702 151
Width: 609
GlyphClass: 2
Flags: MW
LayerCount: 2
Fore
SplineSet
535.1 894.1 m 1
 554.2 883.9 575.2 863.7 585.1 845.6 c 1
 582.8 835.1 l 1
 472 784 l 2
 460.9 778.9 451.9 777.9 445 777.9 c 0
 438.1 777.9 429.6 784.1 429.6 791.1 c 0
 429.6 797.3 429.8 802.3 437.3 809.6 c 0
 453.5 825.4 504.3 869.5 535.1 894.1 c 1
EndSplineSet
Refer: 692 917 N 1 0 0 1 0 0 2
Refer: 1418 772 N 1 0 0 1 458 195 2
EndChar

StartChar: uni1E17
Encoding: 7703 7703 152
Width: 489
GlyphClass: 2
Flags: MW
LayerCount: 2
Fore
SplineSet
274 778.6 m 1
 276.4 779.5 282.8 780.4 286.8 780.4 c 0
 310.8 780.4 326 767.8 332.4 758.8 c 1
 340.4 738.1 l 1
 244.4 640.9 l 2
 233.2 630.1 222 626.5 214 626.5 c 0
 207.6 626.5 201.2 633.7 201.2 639.1 c 0
 201.2 644.5 202.8 652.6 207.6 660.7 c 2
 274 778.6 l 1
EndSplineSet
Refer: 417 275 N 1 0 0 1 0 0 2
EndChar

StartChar: uni1E27
Encoding: 7719 7719 168
Width: 619
GlyphClass: 2
Flags: MW
LayerCount: 2
Fore
SplineSet
409 573 m 0
 409 602 433 626 463 626 c 0
 492 626 517 602 517 573 c 0
 517 543 492 519 463 519 c 0
 433 519 409 543 409 573 c 0
269 571 m 0
 269 600 294 625 323 625 c 0
 353 625 377 600 377 571 c 0
 377 542 353 517 323 517 c 0
 294 517 269 542 269 571 c 0
EndSplineSet
Refer: 288 104 N 1 0 0 1 0 0 2
EndChar

StartChar: uni1E28
Encoding: 7720 7720 169
Width: 817
GlyphClass: 2
Flags: MW
LayerCount: 2
Fore
SplineSet
564 523 m 2
 564 606 536 610 481 613 c 1
 471 619 471 641 481 647 c 1
 521 646 595 645 635 645 c 0
 675 645 747 646 787 647 c 1
 797 641 797 619 787 613 c 1
 732 610 704 606 704 523 c 2
 704 122 l 2
 704 39 732 35 787 32 c 1
 797 26 797 4 787 -2 c 1
 747 -1 675 0 635 0 c 0
 595 0 521 -1 481 -2 c 1
 471 4 471 26 481 32 c 1
 536 35 564 39 564 122 c 2
 564 319 l 1
 254 319 l 1
 254 122 l 2
 254 39 282 35 337 32 c 1
 347 26 347 4 337 -2 c 1
 297 -1 225 0 185 0 c 0
 181.1 0 176.9 0 172.4 -0 c 1
 157 -37 l 1
 202.4 -46.1 249.9 -66.5 249.9 -121.1 c 0
 249.9 -171.3 197.8 -211 133 -211 c 0
 101 -211 92 -206.2 69 -194 c 1
 69 -184 69.9 -172.2 79 -168 c 1
 106 -178 117 -182 137 -182 c 0
 167 -182 187 -168 187 -141 c 0
 187 -103.4 134 -99 98 -97 c 1
 92 -91 l 1
 137.4 -0.3 l 1
 100.4 -0.7 58 -1.3 31 -2 c 1
 21 4 21 26 31 32 c 1
 86 35 114 39 114 122 c 2
 114 523 l 2
 114 606 86 610 31 613 c 1
 21 619 21 641 31 647 c 1
 71 646 145 645 185 645 c 0
 225 645 297 646 337 647 c 1
 347 641 347 619 337 613 c 1
 282 610 254 606 254 523 c 2
 254 367 l 1
 564 367 l 1
 564 523 l 2
EndSplineSet
EndChar

StartChar: uni1E29
Encoding: 7721 7721 170
Width: 619
GlyphClass: 2
Flags: MW
LayerCount: 2
Fore
SplineSet
89 -95 m 1
 83 -89 l 1
 127.4 -0.2 l 1
 88.6 -0.5 55.1 -1.2 23 -2 c 1
 17 4 17 26 23 32 c 1
 84 35 100 44 100 127 c 2
 100 565 l 2
 100 633.6 95 635 32 640 c 1
 27 649 26 660 29 672 c 1
 100 675 180 686 217 698 c 1
 226 698 233 694 233 685 c 2
 233 685 230 648 230 583 c 2
 230 371.6 l 1
 286.8 407.4 358.2 444 395 444 c 0
 481 444 528 394 528 284 c 2
 528 128 l 2
 528 44 544 35 605 32 c 1
 611 26 611 4 605 -2 c 1
 562 -1 518.4 0 463 0 c 0
 415.4 0 383 -1 341 -2 c 1
 335 4 335 26 341 32 c 1
 382 35 398 44 398 128 c 2
 398 295 l 2
 398 352 363 370 323 370 c 0
 305.1 370 271.5 358.1 230 331.6 c 1
 230 127 l 2
 230 44 245 35 287 32 c 1
 293 26 293 4 287 -2 c 1
 244 -1 212.6 0 165 0 c 0
 164.2 0 163.4 0 162.6 -0 c 2
 148 -35 l 1
 193.4 -44.1 240.9 -64.5 240.9 -119.1 c 0
 240.9 -169.3 188.8 -209 124 -209 c 0
 92 -209 83 -204.2 60 -192 c 1
 60 -182 60.9 -170.2 70 -166 c 1
 97 -176 108 -180 128 -180 c 0
 158 -180 178 -166 178 -139 c 0
 178 -101.4 125 -97 89 -95 c 1
EndSplineSet
EndChar

StartChar: uni1E2E
Encoding: 7726 7726 175
Width: 367
GlyphClass: 2
Flags: MW
AnchorPoint: "above" 148 874 basechar 0
LayerCount: 2
Fore
SplineSet
254.1 894.1 m 1
 273.2 883.9 294.2 863.7 304.1 845.6 c 1
 301.8 835.1 l 1
 191 784 l 2
 179.9 778.9 170.9 777.9 164 777.9 c 0
 157.1 777.9 148.6 784.1 148.6 791.1 c 0
 148.6 797.3 148.8 802.3 156.3 809.6 c 0
 172.5 825.4 223.3 869.5 254.1 894.1 c 1
EndSplineSet
Refer: 2225 -1 N 1 0 0 1 423 -20 2
Refer: 258 73 N 1 0 0 1 0 0 2
EndChar

StartChar: uni1E2F
Encoding: 7727 7727 176
Width: 322
GlyphClass: 2
Flags: MW
LayerCount: 2
Fore
SplineSet
206.2 770.1 m 1
 208.5 771 214.7 771.9 218.5 771.9 c 0
 241.6 771.9 256.2 759.6 262.4 750.8 c 1
 270.1 730.5 l 1
 177.7 635.5 l 2
 166.9 624.9 156.2 621.4 148.5 621.4 c 0
 142.3 621.4 136.1 628.4 136.1 633.7 c 0
 136.1 639 137.7 646.9 142.3 654.8 c 2
 206.2 770.1 l 1
EndSplineSet
Refer: 390 239 N 1 0 0 1 0 0 2
EndChar

StartChar: uni1E4C
Encoding: 7756 7756 205
Width: 730
GlyphClass: 2
Flags: MW
LayerCount: 2
Fore
SplineSet
608.1 893.1 m 1
 627.2 882.9 648.2 862.7 658.1 844.6 c 1
 655.8 834.1 l 1
 545 783 l 2
 533.9 777.9 524.9 776.9 518 776.9 c 0
 511.1 776.9 502.6 783.1 502.6 790.1 c 0
 502.6 796.3 502.8 801.3 510.3 808.6 c 0
 526.5 824.4 577.3 868.5 608.1 893.1 c 1
423.4 772.9 m 0
 435.3 772.9 453.1 780.6 465 820.2 c 1
 476.9 820.2 488.8 811.4 488.8 798.2 c 1
 474.4 734.4 443 695.9 411.5 695.9 c 0
 392 695.9 373.2 702.5 356.2 719 c 1
 339.2 733.3 322.3 737.7 307 737.7 c 0
 288.3 737.7 274.7 735.5 265.3 693.7 c 1
 255.1 693.7 243.2 698.1 243.2 713.5 c 1
 256.8 769.6 284 815.8 313.8 815.8 c 0
 340.1 815.8 359.7 805.9 376.7 788.3 c 0
 392 772.9 414 772.9 423.4 772.9 c 0
EndSplineSet
Refer: 264 79 N 1 0 0 1 0 0 2
EndChar

StartChar: uni1E4D
Encoding: 7757 7757 206
Width: 551
GlyphClass: 2
Flags: MW
LayerCount: 2
Fore
SplineSet
350.2 720.1 m 1
 352.5 721 358.7 721.9 362.5 721.9 c 0
 385.6 721.9 400.2 709.6 406.4 700.8 c 1
 414.1 680.5 l 1
 321.7 585.5 l 2
 310.9 574.9 300.2 571.4 292.5 571.4 c 0
 286.3 571.4 280.1 578.4 280.1 583.7 c 0
 280.1 589 281.7 596.9 286.3 604.8 c 2
 350.2 720.1 l 1
EndSplineSet
Refer: 672 771 N 1 0 0 1 388 -70 2
Refer: 295 111 N 1 0 0 1 0 0 2
EndChar

StartChar: uni1E4E
Encoding: 7758 7758 207
Width: 730
GlyphClass: 2
Flags: MW
LayerCount: 2
Fore
SplineSet
80 717 m 0
 80 749 104 774 136 774 c 0
 168 774 192 749 192 717 c 0
 192 685 168 661 136 661 c 0
 104 661 80 685 80 717 c 0
539 717 m 0
 539 749 564 774 596 774 c 0
 628 774 651 749 651 717 c 0
 651 685 628 661 596 661 c 0
 564 661 539 685 539 717 c 0
351 616 m 0
 261.9 616 188 533 188 329 c 0
 188 141 274 32 384 32 c 0
 485 32 543 141.9 543 308 c 0
 543 511 458 616 351 616 c 0
694 329 m 0
 694 230.9 663.2 148.5 608 89 c 0
 550.6 27.1 467 -10 364 -10 c 0
 194 -10 37 111 37 309 c 0
 37 401.4 66.2 484.2 118.1 546 c 0
 151.5 585.8 194.2 616.8 243.5 636 c 1
 237.7 638.7 233.2 644 233.2 653.5 c 1
 246.8 709.6 274 755.8 303.8 755.8 c 0
 330.1 755.8 349.7 745.9 366.7 728.3 c 0
 382 712.9 404 712.9 413.4 712.9 c 0
 425.3 712.9 443.1 720.6 455 760.2 c 1
 466.9 760.2 478.8 751.4 478.8 738.2 c 1
 469.7 697.9 453.8 667.7 435.4 650.9 c 1
 583.5 621.3 694 500.9 694 329 c 0
257.1 640.9 m 1
 285.4 650.5 315.8 656.3 347.7 657.7 c 1
 347.2 658.1 346.7 658.5 346.2 659 c 0
 329.2 673.3 312.3 677.7 297 677.7 c 0
 279.4 677.7 266.4 675.7 257.1 640.9 c 1
EndSplineSet
EndChar

StartChar: uni1E50
Encoding: 7760 7760 209
Width: 730
GlyphClass: 2
Flags: MW
LayerCount: 2
Fore
SplineSet
86.7 927.4 m 1
 67.5 916.8 46.6 897.5 36.6 879 c 1
 38.9 868.4 l 1
 149.8 817.4 l 2
 160.6 812.1 169.9 811.2 176.8 811.2 c 0
 183.7 811.2 192.2 817.4 192.2 824.4 c 0
 192.2 830.6 192.2 835.9 184.5 842.9 c 0
 168.3 858.7 117.5 902.8 86.7 927.4 c 1
473.8 770 m 2
 240.9 770 l 2
 231.5 770 228.2 779 228.2 788 c 0
 228.2 800 238.3 820 249.4 820 c 2
 484 820 l 2
 492.5 820 495.9 811 495.9 803 c 0
 495.9 790 485.7 770 473.8 770 c 2
EndSplineSet
Refer: 264 79 N 1 0 0 1 0 0 2
EndChar

StartChar: uni1E51
Encoding: 7761 7761 210
Width: 551
GlyphClass: 2
Flags: MW
LayerCount: 2
Fore
SplineSet
229.3 728.1 m 1
 282.4 619 l 2
 285.5 612.8 289.3 603.1 289.3 596.1 c 0
 289.3 595 289.2 594 289 593 c 1
 419 593 l 2
 429 593 433 584 433 576 c 0
 433 563 421 543 407 543 c 2
 133 543 l 2
 122 543 118 552 118 561 c 0
 118 573 130 593 143 593 c 2
 256.2 593 l 1
 254.1 594.9 251.8 597.1 249.3 599.6 c 2
 156.1 692 l 1
 157.7 701.7 l 1
 163.9 709.6 186.2 729.9 213.9 729.9 c 0
 217.8 729.9 226.2 729 229.3 728.1 c 1
EndSplineSet
Refer: 295 111 N 1 0 0 1 0 0 2
EndChar

StartChar: uni1E52
Encoding: 7762 7762 211
Width: 730
GlyphClass: 2
Flags: MW
LayerCount: 2
Fore
SplineSet
603.1 928 m 1
 622.2 917.8 643.3 897.7 653.2 879.6 c 1
 650.9 869.1 l 1
 540 818 l 2
 528.9 812.9 519.9 811.9 513 811.9 c 0
 506.1 811.9 497.6 818.1 497.6 825.1 c 0
 497.6 831.3 497.8 836.3 505.3 843.6 c 0
 521.5 859.4 572.3 903.4 603.1 928 c 1
451.8 770 m 2
 218.9 770 l 2
 209.5 770 206.2 779 206.2 788 c 0
 206.2 800 216.3 820 227.4 820 c 2
 462 820 l 2
 470.5 820 473.9 811 473.9 803 c 0
 473.9 790 463.7 770 451.8 770 c 2
EndSplineSet
Refer: 264 79 N 1 0 0 1 0 0 2
EndChar

StartChar: uni1E53
Encoding: 7763 7763 212
Width: 551
GlyphClass: 2
Flags: MW
LayerCount: 2
Fore
SplineSet
282.2 737.1 m 1
 284.5 738 290.7 738.9 294.5 738.9 c 0
 317.6 738.9 332.2 726.6 338.4 717.8 c 1
 346.1 697.5 l 1
 253.7 602.5 l 2
 249.4 598.3 245.1 595.2 241 593 c 1
 419 593 l 2
 429 593 433 584 433 576 c 0
 433 563 421 543 407 543 c 2
 133 543 l 2
 122 543 118 552 118 561 c 0
 118 573 130 593 143 593 c 2
 215.6 593 l 1
 213.5 595.3 212.1 598.2 212.1 600.7 c 0
 212.1 606 213.7 613.9 218.3 621.8 c 2
 282.2 737.1 l 1
EndSplineSet
Refer: 295 111 N 1 0 0 1 0 0 2
EndChar

StartChar: uni1E65
Encoding: 7781 7781 230
Width: 427
GlyphClass: 2
Flags: MW
LayerCount: 2
Fore
SplineSet
48.8 590.4 m 0
 48.8 617.4 69.5 646.2 111.8 646.2 c 0
 149.6 646.2 170.3 613.8 170.3 586.8 c 0
 170.3 563.4 146.9 531 106.4 531 c 0
 70.4 531 48.8 560.7 48.8 590.4 c 0
EndSplineSet
Refer: 670 769 N 1 0 0 1 392 -37 2
Refer: 1939 115 N 1 0 0 1 0 0 2
EndChar

StartChar: uni1E67
Encoding: 7783 7783 232
Width: 427
GlyphClass: 2
Flags: MW
LayerCount: 2
Fore
SplineSet
231 514 m 1
 181 514 l 1
 152 560 114 603.3 79 643 c 1
 103 661 l 1
 120.4 649 135.2 638.5 149.5 627.3 c 1
 147.7 633.2 146.8 639.3 146.8 645.4 c 0
 146.8 672.4 167.5 701.2 209.8 701.2 c 0
 247.6 701.2 268.3 668.8 268.3 641.8 c 0
 268.3 638.6 267.8 635.3 267 631.9 c 1
 279.8 641.5 293.3 650.8 308 661 c 1
 332 643 l 1
 296 603 260 561 231 514 c 1
195.4 586.6 m 1
 198.5 583.5 201.7 580.4 205 577 c 1
 208.2 580.4 211.3 583.6 214.4 586.7 c 1
 211.2 586.3 207.9 586 204.4 586 c 0
 201.3 586 198.3 586.2 195.4 586.6 c 1
EndSplineSet
Refer: 1939 115 N 1 0 0 1 0 0 2
EndChar

StartChar: uni1E6B
Encoding: 7787 7787 236
Width: 358
GlyphClass: 2
Flags: MW
LayerCount: 2
Fore
SplineSet
87 637 m 0
 87 667 110 699 157 699 c 0
 199 699 222 663 222 633 c 0
 222 617.5 212.8 598.5 195.8 585.6 c 1
 204.9 588.1 212.4 589.8 215.3 589.8 c 0
 220 589.8 223 587.4 223 581 c 2
 223 581 220 534.6 218 468 c 2
 217 434 l 1
 334 434 l 2
 339 434 342 432 342 428 c 2
 342 397 l 2
 342 388 328 384 318 384 c 2
 217 384 l 1
 217 284 218 177 218 127 c 0
 218 77 240 60 262 60 c 0
 281 60 306 64 319 74 c 1
 331 64 337 58 337 46 c 1
 317 18 256.3 -10 201 -10 c 0
 177.4 -10 140.5 -1.3 118 18 c 0
 96.6 36.3 88 70 88 105 c 0
 88 155 88.7 283.3 91 384 c 1
 26 384 l 2
 22 384 21 385 21 390 c 2
 21 419 l 1
 33.7 430 49 433.9 63 434 c 2
 91 434.1 l 1
 91 513.5 95 540.5 102 550 c 0
 108.4 558.7 135 564.4 152.2 571 c 1
 151 571 l 2
 111 571 87 604 87 637 c 0
EndSplineSet
EndChar

StartChar: uni1E78
Encoding: 7800 7800 249
Width: 732
GlyphClass: 2
Flags: MW
LayerCount: 2
Fore
SplineSet
594.1 955 m 1
 613.2 944.8 634.3 924.7 644.2 906.6 c 1
 641.9 896.1 l 1
 531 845 l 2
 519.9 839.9 510.9 838.9 504 838.9 c 0
 497.1 838.9 488.6 845.1 488.6 852.1 c 0
 488.6 858.3 488.8 863.3 496.3 870.6 c 0
 512.5 886.4 563.3 930.4 594.1 955 c 1
227 522 m 2
 227 269 l 2
 227 204 229 129 278 82 c 0
 308.1 53.1 349 32 397 32 c 0
 566 32 581 165 581 277 c 2
 581 522 l 2
 581 605 564.5 606.5 489 613 c 1
 483 619 483 641 489 647 c 1
 534.8 646 586.8 645 616 645 c 0
 643.8 645 684 646 723 647 c 1
 729 641 729 619 723 613 c 1
 664 607 646 605 646 522 c 2
 646 295 l 2
 646 117 581 -10 376 -10 c 0
 328.6 -10 236.9 -8.9 174 32 c 0
 117.5 68.7 87 139 87 236 c 2
 87 522 l 2
 87 605 70 610 10 613 c 1
 4 619 4 641 10 647 c 1
 60 646 110.7 645 156 645 c 0
 180.3 645 209.4 645.2 238.6 645.6 c 1
 238.3 647.1 238.2 648.7 238.2 650.5 c 0
 251.8 706.6 278.9 752.8 308.7 752.8 c 0
 335 752.8 354.6 742.9 371.6 725.3 c 0
 386.9 709.9 409 709.9 418.3 709.9 c 0
 430.2 709.9 448.1 717.6 460 757.2 c 1
 471.9 757.2 483.8 748.4 483.8 735.2 c 1
 469.3 671.4 438 632.9 406.5 632.9 c 0
 387 632.9 368.2 639.5 351.2 656 c 1
 334.2 670.3 317.2 674.7 301.9 674.7 c 0
 285.8 674.7 273.5 673.1 264.4 646 c 1
 283.7 646.3 302.3 646.7 319 647 c 1
 325 641 325 619 319 613 c 1
 242 610 227 605 227 522 c 2
EndSplineSet
EndChar

StartChar: uni1E79
Encoding: 7801 7801 250
Width: 598
GlyphClass: 2
Flags: MW
LayerCount: 2
Fore
SplineSet
320.2 749.1 m 1
 322.5 750 328.7 750.9 332.5 750.9 c 0
 355.6 750.9 370.2 738.6 376.4 729.8 c 1
 384.1 709.5 l 1
 291.7 614.5 l 2
 291.1 613.9 290.5 613.3 289.9 612.8 c 1
 294.8 609.9 299.5 606.6 304 603 c 0
 322 589 348 589 359 589 c 0
 373 589 394 596 408 632 c 1
 422 632 436 624 436 612 c 1
 419 554 382 519 345 519 c 0
 322 519 300 525 280 540 c 1
 260 553 240 557 222 557 c 0
 200 557 184 555 173 517 c 1
 161 517 147 521 147 535 c 1
 163 586 195 628 230 628 c 0
 238.1 628 245.6 627.4 252.7 626.2 c 1
 253.6 628.7 254.8 631.2 256.3 633.8 c 2
 320.2 749.1 l 1
EndSplineSet
Refer: 301 117 N 1 0 0 1 0 0 2
EndChar

StartChar: ampersand
Encoding: 38 38 252
Width: 729
GlyphClass: 2
Flags: MW
LayerCount: 2
Fore
SplineSet
236.2 317.1 m 1
 174.6 265.6 167 218.3 167 170 c 0
 167 87.9 215 42 256 42 c 0
 304.8 42 340.8 52.8 385.4 100.9 c 1
 338.3 163.7 262.5 276.5 236.2 317.1 c 1
601.4 324 m 0
 579.5 287 530 212 485.3 156.3 c 1
 513.3 111.3 551 51 601 51 c 0
 633.3 51 660.3 72.3 681 97.3 c 1
 691 97.3 698.7 76.3 699 61 c 1
 661 10 611 -10 566 -10 c 0
 510 -10 465.6 -0.900002 415.8 66.1 c 1
 373.3 23.8 311.4 -10 232 -10 c 0
 117.5 -10 39 27.8 39 144 c 0
 39 212.9 80.5 284.7 214.5 349.5 c 1
 170.6 411.3 151 444.9 151 491 c 0
 151 520.5 160 565 192 600 c 0
 222.7 633.6 276.7 658 342 658 c 0
 434 658 485 597 485 547 c 0
 485 466.3 421 410.3 335 376 c 1
 339 371 l 1
 355 343 453.1 207 453.1 207 c 2
 457.7 200.6 464.2 201 468 205.5 c 0
 503.2 247.1 523.5 282 544.3 326.3 c 0
 557.8 355.1 568 397.5 510 402 c 1
 504 408 504 430 510 436 c 1
 537 435 574 434 611 434 c 0
 633 434 682 435 704 436 c 1
 710 430 710 408 704 402 c 1
 652.5 396 627.5 368.1 601.4 324 c 0
258 536 m 0
 258 505.3 281 457 307 419 c 1
 312 413 l 1
 353.7 446 383 500 383 537 c 0
 383 580 358.3 616 324 616 c 0
 282.5 616 258 581.8 258 536 c 0
EndSplineSet
EndChar

StartChar: quotesingle
Encoding: 39 39 253
Width: 215
GlyphClass: 2
Flags: MW
LayerCount: 2
Fore
SplineSet
98 411 m 1
 83 415 l 1
 83 415 51 585 51 591 c 0
 51 614 73 645 116 645 c 0
 158 645 161 626 161 608 c 0
 161 593 124 417 124 417 c 1
 98 411 l 1
EndSplineSet
EndChar

StartChar: comma
Encoding: 44 44 254
Width: 244
GlyphClass: 2
Flags: MW
LayerCount: 2
Fore
SplineSet
112 127 m 0
 165.5 127 199 86 199 4 c 0
 199 -31 173.3 -79.7 145 -108 c 0
 116.5 -136.5 72.9 -160.7 36 -167 c 1
 24.9 -159.5 23.8 -148.8 29 -136 c 1
 74 -124 125 -53.5 125 -27 c 0
 125 -5 102.3 2.7 89 6 c 0
 69.7 10.8 49 39 49 64 c 0
 49 86.5 86 127 112 127 c 0
EndSplineSet
EndChar

StartChar: hyphen
Encoding: 45 45 255
Width: 358
GlyphClass: 2
Flags: MW
LayerCount: 2
Fore
SplineSet
273 215 m 2
 75 215 l 2
 51 215 38 225 38 236 c 0
 38 253 63 294 84 294 c 2
 284 294 l 2
 312 294 320 284 320 273 c 0
 320 260 296 215 273 215 c 2
EndSplineSet
EndChar

StartChar: period
Encoding: 46 46 256
Width: 244
GlyphClass: 2
Flags: MW
LayerCount: 2
Fore
SplineSet
49 58 m 0
 49 97 83 129 123 129 c 0
 163 129 195 99 195 60 c 0
 195 22 161 -10 121 -10 c 0
 81 -10 49 20 49 58 c 0
EndSplineSet
EndChar

StartChar: zero
Encoding: 48 48 257
Width: 514
GlyphClass: 2
Flags: MW
LayerCount: 2
Fore
SplineSet
260 568 m 0
 220 568 173 530 173 287 c 0
 173 202 174 32 256 32 c 0
 296 32 342 87 342 327 c 0
 342 504 299 568 260 568 c 0
255 -10 m 0
 109 -10 30 134 30 298 c 0
 30 498 131 610 260 610 c 0
 361 610 484 543 484 307 c 0
 484 69 354 -10 255 -10 c 0
EndSplineSet
EndChar

StartChar: I
Encoding: 73 73 258
Width: 367
GlyphClass: 2
Flags: MW
AnchorPoint: "below" 147 -110 basechar 0
AnchorPoint: "cedilla" 147 1 basechar 0
AnchorPoint: "middle" 148 325 basechar 0
AnchorPoint: "above" 150 850 basechar 0
LayerCount: 2
Fore
SplineSet
114 523 m 2
 114 606 86 610 31 613 c 1
 21 619 21 641 31 647 c 1
 71 646 145 645 185 645 c 0
 225 645 297 646 337 647 c 1
 347 641 347 619 337 613 c 1
 282 610 254 606 254 523 c 2
 254 122 l 2
 254 39 282 35 337 32 c 1
 347 26 347 4 337 -2 c 1
 297 -1 225 0 185 0 c 0
 145 0 71 -1 31 -2 c 1
 21 4 21 26 31 32 c 1
 86 35 114 39 114 122 c 2
 114 523 l 2
EndSplineSet
Position2: "'cpsp' Versalabstaende 1" dx=2 dy=0 dh=6 dv=0
EndChar

StartChar: J
Encoding: 74 74 259
Width: 373
GlyphClass: 2
Flags: MW
AnchorPoint: "middle" 186 315 basechar 0
AnchorPoint: "above" 182 850 basechar 0
LayerCount: 2
Fore
SplineSet
281 522 m 2
 281 103 l 2
 281 -40 223 -92 179 -129 c 0
 138 -164 87 -187 28 -187 c 0
 -1 -187 -70 -163 -70 -116 c 0
 -70 -87 -30 -60 -12 -60 c 0
 28 -60 33 -88 46 -105 c 0
 56 -118 74 -128 92 -128 c 0
 135 -128 141 -99 141 81 c 2
 141 522 l 2
 141 605 124 610 44 613 c 1
 38 619 38 641 44 647 c 1
 94 646 145 645 210 645 c 0
 268 645 309 646 358 647 c 1
 364 641 364 619 358 613 c 1
 298 610 281 605 281 522 c 2
EndSplineSet
Position2: "'cpsp' Versalabstaende 1" dx=2 dy=0 dh=5 dv=0
EndChar

StartChar: K
Encoding: 75 75 260
Width: 736
GlyphClass: 2
Flags: MW
AnchorPoint: "below" 336 -110 basechar 0
AnchorPoint: "cedilla" 142 -1 basechar 0
AnchorPoint: "above" 330 850 basechar 0
AnchorPoint: "right" 643 732 basechar 0
LayerCount: 2
Fore
SplineSet
108 523 m 2
 108 606 80 610 25 613 c 1
 15 619 15 641 25 647 c 1
 65 646 139 645 179 645 c 0
 219 645 291 646 331 647 c 1
 341 641 341 619 331 613 c 1
 276 610 248 606 248 523 c 2
 248 341.9 l 1
 281.1 352.6 308.8 372.1 374 430 c 2
 374 430 449.9 493.1 481.1 525 c 0
 531 576 534.9 607.4 476 613 c 1
 470 619 470 641 476 647 c 1
 513.5 646 559 645 599 645 c 0
 633.5 645 669 646 694 647 c 1
 700 641 700 619 694 613 c 1
 634.5 604.5 578.6 556.1 520.1 504 c 2
 411 407 l 2
 400.2 397.4 399 385 399 378 c 0
 399 370 411.9 353.3 429 333 c 2
 648 74 l 2
 673.6 43.7 696 36 726 32 c 1
 732 26 732 4 726 -2 c 1
 687 -1 647 0 608 0 c 0
 578 0 525 -1 505 -2 c 0
 501 -2 500.4 1 500 4 c 0
 498 20 484 48 464 74 c 2
 313 271 l 2
 292.7 297.2 278.4 311.1 248 318.3 c 1
 248 122 l 2
 248 39 276 35 331 32 c 1
 341 26 341 4 331 -2 c 1
 291 -1 219 0 179 0 c 0
 139 0 65 -1 25 -2 c 1
 15 4 15 26 25 32 c 1
 80 35 108 39 108 122 c 2
 108 523 l 2
EndSplineSet
Position2: "'cpsp' Versalabstaende 1" dx=2 dy=0 dh=5 dv=0
EndChar

StartChar: L
Encoding: 76 76 261
Width: 577
GlyphClass: 2
Flags: MW
AnchorPoint: "below" 260 -110 basechar 0
AnchorPoint: "cedilla" 260 1 basechar 0
AnchorPoint: "middle" 286 315 basechar 0
AnchorPoint: "above" 149 850 basechar 0
AnchorPoint: "right" 469 732 basechar 0
LayerCount: 2
Fore
SplineSet
349 42 m 2
 454 42 491 98 511 170 c 1
 523.4 171.8 544.2 169.7 554 165 c 1
 548 113 538 48 528 -2 c 1
 528 -2 437 0 408 0 c 2
 184.8 0 l 2
 146 0 31 -2 31 -2 c 1
 21 4 21 26 31 32 c 1
 86 35 114 39 114 122 c 2
 114 523 l 2
 114 606 86 610 31 613 c 1
 21 619 21 641 31 647 c 1
 31 647 145 645 185 645 c 0
 225 645 255 646 337 647 c 1
 347 641 347 619 337 613 c 1
 282 610 254 606 254 523 c 2
 254 121 l 2
 254 61 268 42 289 42 c 2
 349 42 l 2
EndSplineSet
Position2: "'cpsp' Versalabstaende 1" dx=2 dy=0 dh=5 dv=0
EndChar

StartChar: M
Encoding: 77 77 262
Width: 899
GlyphClass: 2
Flags: MW
AnchorPoint: "below" 393 -110 basechar 0
AnchorPoint: "cedilla" 107 2 basechar 0
AnchorPoint: "middle" 426 445 basechar 0
AnchorPoint: "above" 431 850 basechar 0
LayerCount: 2
Fore
SplineSet
662.7 116 m 2
 637 534 l 1
 635 534 l 1
 410 5 l 2
 406.1 -4.1 397 -8 391 -8 c 0
 385 -8 373.8 -2.1 371 5 c 2
 174.4 498 l 1
 170.2 498 l 1
 144 123 l 1
 138.6 66.7 144 37 210 32 c 1
 216 26 216 4 210 -2 c 1
 180 -1 120 0 96 0 c 0
 72 0 40 -1 10 -2 c 1
 4 4 4 26 10 32 c 1
 67 37 79 61.1 84.9 121 c 2
 125 533 l 2
 132 608 126 609 57 613 c 1
 51 619 51 641 57 647 c 1
 262 645 l 1
 441 201 l 1
 446 201 l 1
 636 645 l 1
 837 647 l 1
 843 641 843 619 837 613 c 1
 769 609 764 596 768.3 542 c 2
 798.1 121 l 2
 803.9 38.2 807 35 875 32 c 1
 881 26 881 4 875 -2 c 1
 841.8 -1 796 0 766 0 c 0
 736 0 646 -1 599 -2 c 1
 593 4 593 26 599 32 c 1
 664 35 667.7 35 662.7 116 c 2
EndSplineSet
Position2: "'cpsp' Versalabstaende 1" dx=2 dy=0 dh=5 dv=0
EndChar

StartChar: N
Encoding: 78 78 263
Width: 740
GlyphClass: 2
Flags: MW
AnchorPoint: "below" 348 -110 basechar 0
AnchorPoint: "cedilla" 125 -4 basechar 0
AnchorPoint: "middle" 356 320 basechar 0
AnchorPoint: "above" 346 850 basechar 0
LayerCount: 2
Fore
SplineSet
631 0 m 1
 612.8 -8.8 603 -12 567.8 -12 c 1
 567.8 -12 547.5 7.1 527.8 32 c 2
 192.8 430 l 2
 182.3 442.5 173.5 450 169 450 c 0
 163 450 161 440 161 430 c 2
 161 133 l 2
 161 42 178 39 248 32 c 1
 254 26 254 4 248 -2 c 1
 198 -1 179.7 0 136 0 c 0
 92.3 0 73 -1 24 -2 c 1
 18 4 18 26 24 32 c 1
 94 39 111 44 111 133 c 2
 111 550 l 1
 105 576 75 610 32 613 c 1
 26 619 26 641 32 647 c 1
 195 645 l 1
 284.1 540 l 1
 549.4 227.5 l 2
 563 211.4 576 205.5 576 231 c 2
 576 512 l 2
 576 603 559 606 489 613 c 1
 483 619 483 641 489 647 c 1
 539 646 559.8 645 605 645 c 0
 647.1 645 664 646 713 647 c 1
 719 641 719 619 713 613 c 1
 643 606 626 601 626 512 c 2
 626 102 l 2
 626 71 631 0 631 0 c 1
EndSplineSet
Position2: "'cpsp' Versalabstaende 1" dx=2 dy=0 dh=5 dv=0
EndChar

StartChar: O
Encoding: 79 79 264
Width: 730
GlyphClass: 2
Flags: MW
AnchorPoint: "below" 350 -110 basechar 0
AnchorPoint: "cedilla" 350 0 basechar 0
AnchorPoint: "middle" 346 322 basechar 0
AnchorPoint: "above" 335 850 basechar 0
AnchorPoint: "komb_OR" 620 606 basechar 0
LayerCount: 2
Fore
SplineSet
351 616 m 0
 261.9 616 188 533 188 329 c 0
 188 141 274 32 384 32 c 0
 485 32 543 141.9 543 308 c 0
 543 511 458 616 351 616 c 0
694 329 m 0
 694 230.9 663.2 148.5 608 89 c 0
 550.6 27.1 467 -10 364 -10 c 0
 194 -10 37 111 37 309 c 0
 37 401.4 66.2 484.2 118.1 546 c 0
 176.2 615.3 262.6 658 363 658 c 0
 546 658 694 528 694 329 c 0
EndSplineSet
Position2: "'cpsp' Versalabstaende 1" dx=2 dy=0 dh=5 dv=0
EndChar

StartChar: P
Encoding: 80 80 265
Width: 614
GlyphClass: 2
Flags: MW
AnchorPoint: "below" 240 -110 basechar 0
AnchorPoint: "cedilla" 150 -3 basechar 0
AnchorPoint: "middle" 286 464 basechar 0
AnchorPoint: "above" 277 850 basechar 0
AnchorPoint: "right" 509 732 basechar 0
LayerCount: 2
Fore
SplineSet
346 654 m 0
 421 654 476 642.8 513 621 c 0
 575.1 584.3 590 524.1 590 484 c 0
 590 430.9 572.7 366 523 325 c 0
 482.8 291.9 421.1 277 333 277 c 0
 309 277 312 278 298 280 c 1
 284 289 278 303 278 322 c 1
 292 320 313 319 328 319 c 0
 410 319 439 363 439 467 c 0
 439 589 372 613 314 613 c 0
 261 613 254 592 254 524 c 2
 254 122 l 2
 254 39 282 35 337 32 c 1
 347 26 347 4 337 -2 c 1
 297 -1 225 0 185 0 c 0
 145 0 71 -1 31 -2 c 1
 21 4 21 26 31 32 c 1
 86 35 114 39 114 122 c 2
 114 523 l 2
 114 606 86 610 31 613 c 1
 21 619 21 641 31 647 c 1
 71 647 306 654 346 654 c 0
EndSplineSet
Position2: "'cpsp' Versalabstaende 1" dx=2 dy=0 dh=5 dv=0
EndChar

StartChar: Q
Encoding: 81 81 266
Width: 730
GlyphClass: 2
Flags: MW
AnchorPoint: "middle" 336 324 basechar 0
AnchorPoint: "above" 348 850 basechar 0
AnchorPoint: "komb_OR" 620 606 basechar 0
AnchorPoint: "right" 619 732 basechar 0
LayerCount: 2
Fore
SplineSet
351 616 m 0
 261.9 616 188 533 188 329 c 0
 188 141 274 32 384 32 c 0
 485 32 543 141.9 543 308 c 0
 543 511 458 616 351 616 c 0
694 329 m 0
 694 230.9 663.2 148.5 608 89 c 0
 564.5 42 505.8 9.3 435 -3.7 c 1
 407.7 -11.1 366.3 -29.8 322.5 -60.2 c 1
 324.4 -60.1 326.2 -60 328 -60 c 0
 438 -60 509 -152 597 -152 c 0
 626 -152 662 -142 684 -115 c 1
 701 -137 l 1
 662 -193 620 -229 557 -229 c 0
 427 -229 364 -124 271 -124 c 0
 263.1 -124 248.8 -127.6 234.2 -137.7 c 1
 221.5 -151.7 209.4 -166.8 198 -183 c 1
 159 -153 l 1
 163.7 -145 169.5 -137.3 176.4 -130.1 c 0
 212.1 -87.3 267.4 -40.2 327.9 -8.2 c 1
 172.4 7.6 37 125.1 37 309 c 0
 37 401.4 66.2 484.2 118.1 546 c 0
 176.2 615.3 262.6 658 363 658 c 0
 546 658 694 528 694 329 c 0
EndSplineSet
Position2: "'cpsp' Versalabstaende 1" dx=2 dy=0 dh=5 dv=0
EndChar

StartChar: R
Encoding: 82 82 267
Width: 716
GlyphClass: 2
Flags: MW
AnchorPoint: "below" 308 -110 basechar 0
AnchorPoint: "cedilla" 178 -1 basechar 0
AnchorPoint: "above" 319 850 basechar 0
AnchorPoint: "right" 559 732 basechar 0
LayerCount: 2
Fore
SplineSet
455 467 m 0
 455 589 388 613 330 613 c 0
 277 613 254 592 254 524 c 2
 254 325 l 1
 297 325 l 2
 381 325 455 344.4 455 467 c 0
362 654 m 0
 437 654 492 642.8 529 621 c 0
 591.1 584.3 606 524.1 606 484 c 0
 606 382 528 330 474 308 c 1
 610 98 l 2
 638 56 661 32 706 32 c 1
 710 24 710.5 4.9 707 -2 c 1
 697 -7 645.3 -10 605 -10 c 0
 545 -10 504 34 473 79 c 2
 356 253 l 1
 342 275.8 333.4 282.7 254 283 c 1
 254 122 l 2
 254 39 282 35 337 32 c 1
 347 26 347 4 337 -2 c 1
 297 -1 225 0 185 0 c 0
 145 0 71 -1 31 -2 c 1
 21 4 21 26 31 32 c 1
 86 35 114 39 114 122 c 2
 114 523 l 2
 114 606 86 610 31 613 c 1
 21 619 21 641 31 647 c 1
 71 647 322 654 362 654 c 0
EndSplineSet
Position2: "'cpsp' Versalabstaende 1" dx=2 dy=0 dh=5 dv=0
EndChar

StartChar: S
Encoding: 83 83 268
Width: 504
GlyphClass: 2
Flags: MW
AnchorPoint: "below" 234 -110 basechar 0
AnchorPoint: "cedilla" 223.5 2 basechar 0
AnchorPoint: "middle" 236.1 345 basechar 0
AnchorPoint: "above" 231.9 850 basechar 0
AnchorPoint: "right" 480.8 732 basechar 0
LayerCount: 2
Fore
SplineSet
421 631 m 1
 428 573 432 532 432 479 c 1
 421 470 396 470 382 474 c 1
 364 540 336 617 251 617 c 0
 199.8 617 166 583 166 527 c 0
 166 470 237.3 418.4 277 398 c 0
 316 378 372 347.1 411 304 c 0
 440.5 271.4 463 236.1 463 184 c 0
 463 122.4 430.5 76.3 395 44.5 c 0
 353.8 7.6 305.2 -10 244 -10 c 0
 105.9 -10 103 10 46 10 c 1
 35 47 27 100 27 175 c 1
 43 179 60 184 77 178 c 1
 97 87 166 32 233 32 c 0
 294 32 337 65.8 337 115 c 0
 337 171 292 211 246 243 c 0
 203.3 272.7 120.4 307.1 74 369 c 0
 51.4 399.1 41 446.7 41 485 c 0
 41 533.6 68.7 580 106 610 c 0
 147.7 643.6 206.6 658 252 658 c 0
 345 658 366 639 421 631 c 1
EndSplineSet
Position2: "'cpsp' Versalabstaende 1" dx=2 dy=0 dh=5 dv=0
EndChar

StartChar: T
Encoding: 84 84 269
Width: 652
GlyphClass: 2
Flags: MW
AnchorPoint: "below" 340 -110 basechar 0
AnchorPoint: "cedilla" 333 1 basechar 0
AnchorPoint: "middle" 507 285 basechar 0
AnchorPoint: "above" 327 850 basechar 0
AnchorPoint: "right" 619 732 basechar 0
LayerCount: 2
Fore
SplineSet
405 123 m 2
 405 40 422 35 502 32 c 1
 508 26 508 4 502 -2 c 1
 452 -1 398.9 0 333 0 c 0
 268.6 0 217 -1 168 -2 c 1
 162 4 162 26 168 32 c 1
 248 35 265 40 265 123 c 2
 265 506 l 2
 265 567 255 604 218 604 c 2
 169 604 l 2
 103 604 62 579 42 499 c 1
 30 499 13 500 3 504 c 1
 14 552 24 605 28 650 c 0
 28 651 30 653 32 653 c 0
 70 650 188 645 265 645 c 2
 406 645 l 2
 485 645 596 650 630 653 c 0
 631 653 633 651 633 650 c 0
 634 605 639 553 646 507 c 1
 637 503 618 502 607 502 c 1
 590 579 548 604 473 604 c 2
 451 604 l 2
 415 604 405 567 405 503 c 2
 405 123 l 2
EndSplineSet
Position2: "'cpsp' Versalabstaende 1" dx=2 dy=0 dh=5 dv=0
EndChar

StartChar: U
Encoding: 85 85 270
Width: 732
GlyphClass: 2
Flags: MW
AnchorPoint: "below" 328 -110 basechar 0
AnchorPoint: "cedilla" 388 -6 basechar 0
AnchorPoint: "middle" 406 321 basechar 0
AnchorPoint: "above" 346 850 basechar 0
LayerCount: 2
Fore
SplineSet
227 522 m 2
 227 269 l 2
 227 204 229 129 278 82 c 0
 308.1 53.1 349 32 397 32 c 0
 566 32 581 165 581 277 c 2
 581 522 l 2
 581 605 564.5 606.5 489 613 c 1
 483 619 483 641 489 647 c 1
 534.8 646 586.8 645 616 645 c 0
 643.8 645 684 646 723 647 c 1
 729 641 729 619 723 613 c 1
 664 607 646 605 646 522 c 2
 646 295 l 2
 646 117 581 -10 376 -10 c 0
 328.6 -10 236.9 -8.9 174 32 c 0
 117.5 68.7 87 139 87 236 c 2
 87 522 l 2
 87 605 70 610 10 613 c 1
 4 619 4 641 10 647 c 1
 60 646 110.7 645 156 645 c 0
 203.7 645 270 646 319 647 c 1
 325 641 325 619 319 613 c 1
 242 610 227 605 227 522 c 2
EndSplineSet
Position2: "'cpsp' Versalabstaende 1" dx=2 dy=0 dh=5 dv=0
EndChar

StartChar: V
Encoding: 86 86 271
Width: 700
GlyphClass: 2
Flags: MW
AnchorPoint: "below" 348 -110 basechar 0
AnchorPoint: "cedilla" 348 3 basechar 0
AnchorPoint: "middle" 374 474 basechar 0
AnchorPoint: "above" 376 850 basechar 0
AnchorPoint: "right" 679 732 basechar 0
LayerCount: 2
Fore
SplineSet
594 543 m 2
 381 11 l 2
 373.6 -7.4 361.3 -12 347 -12 c 0
 333.3 -12 320.7 -5.9 314 11 c 2
 96 559 l 2
 78.1 604 45 609 6 613 c 1
 0 619 0 641 6 647 c 1
 43 646 99 645 140 645 c 0
 179 645 279 646 316 647 c 1
 322 641 322 619 316 613 c 1
 268 610 230.7 605.5 242 573 c 2
 366 216 l 1
 381.5 171 l 1
 398 210 l 1
 536 566 l 2
 550.6 603.8 505 610 467 613 c 1
 461 619 461 641 467 647 c 1
 504 646 559 645 600 645 c 0
 631.8 645 664 646 694 647 c 1
 700 641 700 619 694 613 c 1
 650 610 618.1 603.2 594 543 c 2
EndSplineSet
Position2: "'cpsp' Versalabstaende 1" dx=2 dy=0 dh=5 dv=0
EndChar

StartChar: W
Encoding: 87 87 272
Width: 1028
GlyphClass: 2
Flags: MW
AnchorPoint: "below" 495 -110 basechar 0
AnchorPoint: "cedilla" 325 -10 basechar 0
AnchorPoint: "above" 540 850 basechar 0
AnchorPoint: "right" 979 732 basechar 0
LayerCount: 2
Fore
SplineSet
574.5 613 m 1
 715 216 l 1
 729.5 174 l 1
 742 210 l 1
 855 545.5 l 2
 867.4 583 848 603.8 791 613 c 1
 785 619 785 641 791 647 c 1
 828 646 875 645 916 645 c 0
 950.8 645 985.2 646 1018 647 c 1
 1024 641 1024 619 1018 613 c 1
 974 610 934.4 581.6 913 522.5 c 2
 725 11 l 2
 718.3 -7.2 704.3 -12 691 -12 c 0
 675.7 -12 665.1 -7.6 658 11 c 2
 505 409.8 l 1
 355 11 l 2
 347.2 -9.7 331 -12 321 -12 c 0
 310 -12 295.1 -9.6 288 11 c 2
 100 559 l 2
 85.1 602.4 49 609 10 613 c 1
 4 619 4 641 10 647 c 1
 47 646 103 645 144 645 c 0
 183 645 283 646 320 647 c 1
 326 641 326 619 320 613 c 1
 272 610 235.9 606 246 573 c 2
 355 216 l 1
 364.5 184 l 1
 372 210 l 1
 514.6 613 l 1
 527.5 608.8 556.3 608.8 574.5 613 c 1
EndSplineSet
Position2: "'cpsp' Versalabstaende 1" dx=2 dy=0 dh=5 dv=0
EndChar

StartChar: X
Encoding: 88 88 273
Width: 718
GlyphClass: 2
Flags: MW
AnchorPoint: "below" 307 -110 basechar 0
AnchorPoint: "cedilla" 102 0 basechar 0
AnchorPoint: "middle" 596 345 basechar 0
AnchorPoint: "above" 372 850 basechar 0
AnchorPoint: "right" 689 732 basechar 0
LayerCount: 2
Fore
SplineSet
434 89 m 1
 342 246 l 2
 328.5 269.1 321.7 271.3 312 258 c 0
 269.7 199.7 231 142.3 199 82 c 0
 183.3 52.4 198.7 36 243 33 c 1
 249 27 249 5 243 -1 c 1
 203 0 144 1 121 1 c 0
 98 1 40 0 10 -1 c 1
 4 5 4 27 10 33 c 1
 54.7 37.3 90 45.4 117.8 81 c 2
 282 291 l 2
 298.2 311.7 297.9 316 278 344 c 2
 133.7 547 l 2
 95.9 600.1 77 610 35 613 c 1
 29 619 28 641 34 647 c 1
 64 646 150 645 189 645 c 0
 229 645 296 646 336 647 c 1
 342 641 342 619 336 613 c 1
 280 610 278.7 594.3 301 557 c 2
 377.7 428.7 l 2
 389 409.6 395.7 402 406.7 414.7 c 0
 448.2 462.5 480 516 507 564 c 1
 522 594 507.3 610 463 613 c 1
 457 619 457 641 463 647 c 1
 503 646 556 645 579 645 c 0
 602 645 651 646 681 647 c 1
 687 641 687 619 681 613 c 1
 636.3 608.7 605.7 600.8 578.2 565 c 2
 443 388.7 l 2
 426.2 366.7 425.6 359.5 447.7 327 c 2
 602.3 99 l 2
 638.9 45.1 665 36 707 33 c 1
 713 27 714 5 708 -1 c 1
 678 0 605 1 566 1 c 0
 526 1 450 0 410 -1 c 1
 404 5 404 27 410 33 c 1
 466 36 459.2 53.7 434 89 c 1
EndSplineSet
Position2: "'cpsp' Versalabstaende 1" dx=2 dy=0 dh=5 dv=0
EndChar

StartChar: Y
Encoding: 89 89 274
Width: 624
GlyphClass: 2
Flags: MW
AnchorPoint: "below" 322 -110 basechar 0
AnchorPoint: "cedilla" 322 1 basechar 0
AnchorPoint: "above" 345 850 basechar 0
LayerCount: 2
Fore
SplineSet
387 122 m 2
 387 39 404 35 484 32 c 1
 490 26 490 4 484 -2 c 1
 434 -1 380.3 0 325 0 c 0
 256.7 0 199 -1 150 -2 c 1
 144 4 144 26 150 32 c 1
 230 35 247 39 247 122 c 2
 247 259 l 2
 247 296 244.5 302.5 227 332 c 2
 99.7 547 l 2
 66.5 603.1 48 610 6 613 c 1
 0 619 -1 641 5 647 c 1
 35 646 108 645 147 645 c 0
 187 645 231 646 271 647 c 1
 277 641 277 619 271 613 c 1
 215 610 214.6 594.8 236 557 c 2
 340.4 373 l 2
 349.3 357.4 356 357 362.6 370 c 2
 466 564 l 2
 482.2 594.4 459.3 610 415 613 c 1
 409 619 409 641 415 647 c 1
 455 646 503 645 526 645 c 0
 549 645 589 646 619 647 c 1
 625 641 625 619 619 613 c 1
 574.3 608.7 555.2 603.4 532.2 565 c 2
 404 351 l 2
 391 329.4 387 307.5 387 267.7 c 2
 387 122 l 2
EndSplineSet
Position2: "'cpsp' Versalabstaende 1" dx=2 dy=0 dh=5 dv=0
EndChar

StartChar: Z
Encoding: 90 90 275
Width: 624
GlyphClass: 2
Flags: MW
AnchorPoint: "below" 287 -110 basechar 0
AnchorPoint: "cedilla" 287 4 basechar 0
AnchorPoint: "middle" 535 321 basechar 0
AnchorPoint: "above" 320 850 basechar 0
AnchorPoint: "right" 619 732 basechar 0
LayerCount: 2
Fore
SplineSet
429 44 m 2
 495 44 543 97 563 177 c 1
 575 177 592 176 602 172 c 1
 596 111.5 583 24.5 575 -5 c 0
 575 -6 573 -8 571 -8 c 0
 533 -5 415 0 338 0 c 2
 39 0 l 2
 25 0 20 5 20 15 c 0
 20 22 22.3 29.8 28 38 c 2
 402 579 l 2
 409 589 418 602 400 602 c 2
 209 602 l 2
 143 602 101 556 81 476 c 1
 69 476 52 477 42 481 c 1
 53 529 64 605 68 650 c 0
 68 651 70 653 72 653 c 0
 110 650 228 645 305 645 c 2
 506 645 l 2
 534.5 645 559 647 572 647 c 0
 585.5 647 589 642.8 589 637 c 0
 589 626.2 586.9 620.2 567 591 c 2
 213 72 l 2
 200 53 198 44 229 44 c 2
 429 44 l 2
EndSplineSet
Position2: "'cpsp' Versalabstaende 1" dx=2 dy=0 dh=5 dv=0
EndChar

StartChar: bracketleft
Encoding: 91 91 276
Width: 397
GlyphClass: 2
Flags: MW
LayerCount: 2
Fore
SplineSet
97 -193 m 1
 97 703 l 1
 342 703 l 1
 348 697 348 679 342 673 c 1
 205 663 197 648 197 561 c 2
 197 -50 l 2
 197 -137 204 -152 342 -163 c 1
 348 -169 348 -187 342 -193 c 1
 97 -193 l 1
EndSplineSet
EndChar

StartChar: backslash
Encoding: 92 92 277
Width: 307
GlyphClass: 2
Flags: MW
LayerCount: 2
Fore
SplineSet
76 698 m 1
 306 -48 l 1
 241 -48 l 1
 11 698 l 1
 76 698 l 1
EndSplineSet
EndChar

StartChar: bracketright
Encoding: 93 93 278
Width: 397
GlyphClass: 2
Flags: MW
LayerCount: 2
Fore
SplineSet
302 701 m 1
 302 -195 l 1
 57 -195 l 1
 51 -189 51 -171 57 -165 c 1
 194 -155 202 -140 202 -53 c 2
 202 558 l 2
 202 645 195 660 57 671 c 1
 51 677 51 695 57 701 c 1
 302 701 l 1
EndSplineSet
EndChar

StartChar: underscore
Encoding: 95 95 280
Width: 486
GlyphClass: 2
Flags: MW
LayerCount: 2
Fore
SplineSet
482 -103 m 1
 482 -154 l 1
 5 -154 l 1
 5 -103 l 1
 482 -103 l 1
EndSplineSet
EndChar

StartChar: a
Encoding: 97 97 281
Width: 506
GlyphClass: 2
Flags: MW
AnchorPoint: "below" 196 -110 basechar 0
AnchorPoint: "cedilla" 167 -3 basechar 0
AnchorPoint: "ogonek" 410 16 basechar 0
AnchorPoint: "above" 209 645 basechar 0
LayerCount: 2
Fore
SplineSet
295.2 48.5 m 1
 289 48 l 1
 256 22 198 -10 169 -10 c 0
 82 -10 44 26 44 95 c 0
 44 174 117.6 203 223 236 c 2
 290 257 l 1
 290 384 255 402 213 402 c 0
 179.5 402 172.3 390.3 170.8 379.2 c 0
 168.4 362 175.4 345.2 175.4 332 c 0
 175.4 307.8 148.6 285.8 113.2 285.8 c 0
 73.6 285.8 61.5 307.8 61.5 336.4 c 0
 61.5 402.4 174 444 247 444 c 0
 329 444 418 415 418 271 c 1
 416 127 l 2
 416 78 422 60 444 60 c 0
 463 60 473 64 486 74 c 1
 497.5 65.8 501.8 57.8 504 46 c 1
 467 11 428.3 -10 373 -10 c 0
 329 -10 302 8 295.2 48.5 c 1
290 218 m 1
 238 201 l 2
 167.3 177.9 164 147.1 164 110 c 0
 164 79 179 50 222 50 c 0
 240 50 265 66 290 86 c 1
 290 218 l 1
EndSplineSet
EndChar

StartChar: b
Encoding: 98 98 282
Width: 542
GlyphClass: 2
Flags: MW
AnchorPoint: "below" 234 -110 basechar 0
AnchorPoint: "middle" 236 215 basechar 0
AnchorPoint: "right" 420 580 basechar 0
LayerCount: 2
Fore
SplineSet
74 127 m 2
 74 565 l 2
 74 633.6 69 635 6 640 c 1
 1 649 0 660 3 672 c 1
 74 675 154 686 191 698 c 1
 200 698 207 694 207 685 c 2
 207 685 204 648 204 583 c 2
 204 388 l 1
 233 409 286 444 317 444 c 0
 369.7 444 418 434 454 393 c 0
 486.2 356.3 508 299.8 508 243 c 0
 508 99.9 391 -10 280 -10 c 0
 234.4 -10 173 0 134 30 c 1
 125 11.7 115 -2 102 -13 c 1
 91 -13 80 -10 68 -6 c 1
 72 32 74 44 74 127 c 2
204 348 m 1
 204 67 l 1
 223 44 245.7 32 275 32 c 0
 354 32 368 148.4 368 230 c 0
 368 328 331 373 282 373 c 0
 258.5 373 237 369.5 204 348 c 1
EndSplineSet
EndChar

StartChar: c
Encoding: 99 99 283
Width: 456
GlyphClass: 2
Flags: MW
AnchorPoint: "right" 490 580 basechar 0
AnchorPoint: "komb_OR" 500 466 basechar 0
AnchorPoint: "below" 236 -110 basechar 0
AnchorPoint: "cedilla" 242 -2 basechar 0
AnchorPoint: "ogonek" 361 42 basechar 0
AnchorPoint: "middle" 236 215 basechar 0
AnchorPoint: "above" 242 645 basechar 0
LayerCount: 2
Fore
SplineSet
422 87 m 1
 384 32 315 -10 255 -10 c 0
 183.5 -10 138.3 5.1 99 42 c 0
 60.2 78.5 37 136.4 37 201 c 0
 37 349 141 444 259 444 c 0
 368 444 422 385 422 340 c 0
 422 309 399 284 367 284 c 0
 335 284 308 304 305 331 c 0
 302 363 287 402 250 402 c 0
 197 402 172 347 172 236 c 0
 172 116 231 62 306 62 c 0
 335 62 369 81 409 118 c 1
 420 118 422 99 422 87 c 1
EndSplineSet
EndChar

StartChar: d
Encoding: 100 100 284
Width: 561
GlyphClass: 2
Flags: MW
AnchorPoint: "below" 221 -110 basechar 0
AnchorPoint: "ogonek" 312 20 basechar 0
AnchorPoint: "middle" 236 215 basechar 0
AnchorPoint: "above" 218 645 basechar 0
AnchorPoint: "komb_OR" 500 466 basechar 0
AnchorPoint: "right" 490 580 basechar 0
LayerCount: 2
Fore
SplineSet
351.6 94.8 m 1
 351.2 103.4 351 111.9 351 120 c 2
 351 366.2 l 1
 326.7 399.3 302.2 402 276 402 c 0
 245.7 402 218.5 386.1 202 359 c 0
 183.1 328 177 282.3 177 229 c 0
 177 112 216 56 266 56 c 0
 277.7 56 330.5 77.9 351.6 94.8 c 1
354.7 48 m 1
 346 48 l 1
 325 34 251 -10 224 -10 c 0
 168.2 -10 143 4 107 32 c 0
 58.4 69.8 37 138.5 37 198 c 0
 37 331 150 444 279 444 c 0
 307.9 444 331.9 439.4 351 432.6 c 1
 351 563 l 2
 351 632 346 633 283 638 c 1
 278 647 277 660 280 672 c 1
 351 675 431 686 468 698 c 1
 477 698 484 694 484 685 c 2
 484 685 481 648 481 583 c 2
 481 133 l 2
 481 76 491.5 60.1 546 55 c 1
 548 49 550 29 548 23 c 1
 479 14 419 0 382 -10 c 1
 368 -10 359.8 -5 359 7 c 2
 359 7 356.8 24.4 354.7 48 c 1
EndSplineSet
EndChar

StartChar: e
Encoding: 101 101 285
Width: 489
GlyphClass: 2
Flags: MW
AnchorPoint: "below" 239.2 -110 basechar 0
AnchorPoint: "cedilla" 246 -3 basechar 0
AnchorPoint: "ogonek" 389.3 41 basechar 0
AnchorPoint: "middle" 241 215 basechar 0
AnchorPoint: "above" 247.6 645 basechar 0
AnchorPoint: "komb_OR" 425 396 basechar 0
LayerCount: 2
Fore
SplineSet
177 275 m 1
 313 275 l 1
 315 277 315 290 315 296 c 0
 315 376 278 402 251 402 c 0
 239.7 402 212.9 391.8 197 368 c 0
 183.4 347.7 178 310 177 275 c 1
431 129 m 1
 441 129 446 111 446 98 c 1
 396 25 328 -10 259 -10 c 0
 187.9 -10 138.6 5.9 101 40 c 0
 58.2 78.8 37 139.5 37 198 c 0
 37 351 157 444 262 444 c 0
 409 444 442 351 442 266 c 0
 442 252 437 235 413 235 c 2
 173 235 l 1
 173 230 172 226 172 219 c 0
 172 121 220 76 298 76 c 0
 336 76 390 87 431 129 c 1
EndSplineSet
EndChar

StartChar: f
Encoding: 102 102 286
Width: 391
GlyphClass: 2
Flags: MW
AnchorPoint: "below" 132 -110 basechar 0
AnchorPoint: "middle" 136 215 basechar 0
AnchorPoint: "right" 410 750 basechar 0
LayerCount: 2
Fore
SplineSet
230 128 m 2
 230 44 246 35 307 32 c 1
 313 26 313 4 307 -2 c 1
 264 -1 220 0 165 0 c 0
 110 0 65 -1 23 -2 c 1
 17 4 17 26 23 32 c 1
 84 35 100 44 100 126 c 2
 100 384 l 1
 50 384 l 2
 27 384 23 387 23 394 c 2
 23 421 l 2
 23 429 64 434 98 434 c 2
 100 434 l 1
 100 454 l 2
 100 550 134 600 171 640 c 0
 209 681 265 698 312 698 c 0
 418 698 449 651 449 624 c 0
 449 581 425 560 392 560 c 0
 356 560 330 585 321 617 c 0
 314 641 310 656 293 656 c 0
 271 656 230 634 230 485 c 2
 230 434 l 1
 331 434 l 2
 350 434 351 430 351 424 c 2
 351 401 l 2
 351 389 334 384 316 384 c 2
 230 384 l 1
 230 128 l 2
EndSplineSet
EndChar

StartChar: g
Encoding: 103 103 287
Width: 521
GlyphClass: 2
Flags: MW
AnchorPoint: "below" 229 -319 basechar 0
AnchorPoint: "middle" 227 285 basechar 0
AnchorPoint: "above" 231 645 basechar 0
AnchorPoint: "right" 492 580 basechar 0
LayerCount: 2
Fore
SplineSet
290 288 m 0
 290 367 270 406 223 406 c 0
 184 406 166 379 166 305 c 0
 166 254 174 180 236 180 c 0
 262 180 290 192 290 288 c 0
175 -25 m 0
 154 -25 141 -23 131 -19 c 1
 120 -39 120 -62 120 -96 c 0
 120 -147 165 -196 231 -196 c 0
 269.3 -196 320 -193.9 351 -176.4 c 0
 383.9 -157.8 400 -117.2 400 -81 c 0
 400 -27.8 251.8 -25 175 -25 c 0
467 394 m 0
 442 394 424 415 420 428 c 1
 417 434 410 440 401 440 c 0
 391 440 358 422 350 412 c 1
 384 384 412 347 412 291 c 0
 412 246.1 391.8 210.5 363 185 c 0
 328.9 154.8 282 142 231 142 c 0
 200 142 178.5 143 157.5 153 c 1
 152.5 141 143 127 143 111 c 0
 143 71 170 69 188 69 c 0
 261.5 69 412.3 62 451 36 c 0
 491.3 8.9 501 -33.6 501 -55 c 0
 501 -165 342 -238 203 -238 c 0
 155.1 -238 88.7 -232.1 50 -205 c 0
 22.5 -185.7 11 -143 11 -106 c 0
 11 -89 55 -32 98 -6 c 1
 78.4 0.4 66.2 8.2 57 22 c 0
 47 37 44 48.9 44 68 c 0
 44 88.2 92 141 123 167.5 c 1
 75 194 46 247 46 296 c 0
 46 347.3 73.4 385.6 114 412 c 0
 147.1 433.5 188.9 444 232 444 c 0
 277 444 298 442 316 432 c 1
 345 458 403 491 447 491 c 0
 485 491 511 462 511 443 c 0
 511 406 495 394 467 394 c 0
EndSplineSet
EndChar

StartChar: h
Encoding: 104 104 288
Width: 619
GlyphClass: 2
Flags: MW
AnchorPoint: "below" 315 -110 basechar 0
AnchorPoint: "ogonek" 423 10 basechar 0
AnchorPoint: "middle" 264 215 basechar 0
AnchorPoint: "above" 299 645 basechar 0
AnchorPoint: "right" 429 580 basechar 0
LayerCount: 2
Fore
SplineSet
528 128 m 2
 528 44 544 35 605 32 c 1
 611 26 611 4 605 -2 c 1
 562 -1 518.4 0 463 0 c 0
 415.4 0 383 -1 341 -2 c 1
 335 4 335 26 341 32 c 1
 382 35 398 44 398 128 c 2
 398 295 l 2
 398 352 363 370 323 370 c 0
 305.1 370 271.5 358.1 230 331.6 c 1
 230 127 l 2
 230 44 245 35 287 32 c 1
 293 26 293 4 287 -2 c 1
 244 -1 212.6 0 165 0 c 0
 109.6 0 65 -1 23 -2 c 1
 17 4 17 26 23 32 c 1
 84 35 100 44 100 127 c 2
 100 565 l 2
 100 633.6 95 635 32 640 c 1
 27 649 26 660 29 672 c 1
 100 675 180 686 217 698 c 1
 226 698 233 694 233 685 c 2
 233 685 230 648 230 583 c 2
 230 371.6 l 1
 286.8 407.4 358.2 444 395 444 c 0
 481 444 528 394 528 284 c 2
 528 128 l 2
EndSplineSet
EndChar

StartChar: k
Encoding: 107 107 291
Width: 613
GlyphClass: 2
Flags: MW
AnchorPoint: "below" 290.1 -214.4 basechar 0
AnchorPoint: "cedilla" 107.9 -57.3 basechar 0
AnchorPoint: "above" 305.9 783.5 basechar 0
AnchorPoint: "right" 535.6 696.4 basechar 0
LayerCount: 2
Fore
SplineSet
100 127 m 2
 100 565 l 2
 100 633.6 95 635 32 640 c 1
 27 649 26 660 29 672 c 1
 100 675 180 686 217 698 c 1
 226 698 233 694 233 685 c 2
 233 685 230 648 230 583 c 2
 230 249 l 1
 260 249 306.3 266.2 319 277.2 c 0
 339 294.5 361.1 318.7 383 349 c 0
 411.5 388.5 396 398 342 402 c 1
 336 408 336 430 342 436 c 1
 379 435 426 434 463 434 c 0
 489 434 552 435 574 436 c 1
 580 430 580 408 574 402 c 1
 498 393.5 470.9 359.2 438.5 323.5 c 2
 389 269 l 2
 384.7 264.3 387.2 256.1 392 249 c 2
 508 78 l 2
 538.4 33.2 560.2 35.5 599 32 c 1
 605 26 605 4 599 -2 c 1
 562 -1 506 0 465 0 c 0
 430 0 385 -2 385 -2 c 1
 383 0 l 1
 383 26 l 2
 383 41 380 50 367 78 c 0
 350.1 114.5 322 156 299 190 c 0
 288.5 205.5 258 209 230 209 c 1
 230 127 l 2
 230 44 246.5 35.5 277 32 c 1
 283 26 283 4 277 -2 c 1
 253 -1 208.7 0 165 0 c 0
 109.6 0 65 -1 23 -2 c 1
 17 4 17 26 23 32 c 1
 84 35 100 44 100 127 c 2
EndSplineSet
EndChar

StartChar: uni02E1
Encoding: 737 737 292
Width: 161
GlyphClass: 2
Flags: MW
LayerCount: 2
Fore
SplineSet
104 739 m 1
 104 414 l 2
 104 392 112 387 129 387 c 2
 140 387 l 2
 142 387 145 386 145 382 c 2
 145 364 l 1
 145 364 105 365 79 365 c 0
 55 365 18 364 18 364 c 1
 18 382 l 2
 18 384 18 387 22 387 c 2
 30 387 l 1
 54 388 55 393 55 414 c 2
 55 673 l 2
 55 688 54 699 40 699 c 0
 33 699 23 698 13 695 c 1
 11 717 l 1
 43 721 65 727 90 739 c 1
 104 739 l 1
EndSplineSet
Colour: ff00ff
EndChar

StartChar: m
Encoding: 109 109 293
Width: 905
GlyphClass: 2
Flags: MW
AnchorPoint: "below" 455 -110 basechar 0
AnchorPoint: "cedilla" 137 9 basechar 0
AnchorPoint: "middle" 278 215 basechar 0
AnchorPoint: "above" 392 645 basechar 0
LayerCount: 2
Fore
SplineSet
228 122 m 2
 228 39 238 36 280 32 c 1
 286 26 286 4 280 -2 c 1
 237 -1 208.6 0 163 0 c 0
 109.6 0 68 -1 26 -2 c 1
 20 4 20 26 26 32 c 1
 87 37 98 39 98 122 c 2
 98 309 l 2
 98 366 87.5 373.9 33 379 c 1
 31 385 29 405 31 411 c 1
 100 420 160 434 197 444 c 1
 211 444 219.1 439.2 220 427 c 2
 220 427 223.3 403.9 225.7 374.2 c 1
 282.7 406.4 355.2 444 391 444 c 0
 449.5 444 489.5 415 504.8 371.5 c 1
 562.7 404.3 647.2 444 684 444 c 0
 770 444 810 394 810 284 c 2
 810 128 l 2
 810 44 826 35 887 32 c 1
 893 26 893 4 887 -2 c 1
 844 -1 800 0 745 0 c 0
 697 0 665 -1 623 -2 c 1
 617 4 617 26 623 32 c 1
 664 35 680 44 680 128 c 2
 680 295 l 2
 680 352 652 370 612 370 c 0
 595.9 370 553 358.4 515.4 338.8 c 1
 517.5 328.5 519 308.5 519 284 c 2
 519 128 l 2
 519 44 536 35 576 32 c 1
 582 26 582 4 576 -2 c 1
 533 -1 502 0 454 0 c 0
 406 0 374 -1 332 -2 c 1
 326 4 326 26 332 32 c 1
 373 35 389 44 389 128 c 2
 389 295 l 2
 389 352 359 370 319 370 c 0
 302.1 370 266.7 359.5 227.8 335.9 c 1
 227.9 331 228 326.1 228 321.3 c 2
 228 122 l 2
EndSplineSet
EndChar

StartChar: n
Encoding: 110 110 294
Width: 616
GlyphClass: 2
Flags: MW
AnchorPoint: "below" 265 -110 basechar 0
AnchorPoint: "cedilla" 128 9 basechar 0
AnchorPoint: "middle" 264 215 basechar 0
AnchorPoint: "above" 264 646 basechar 0
LayerCount: 2
Fore
SplineSet
228 122 m 2
 228 39 238 36 280 32 c 1
 286 26 286 4 280 -2 c 1
 237 -1 208.6 0 163 0 c 0
 109.6 0 68 -1 26 -2 c 1
 20 4 20 26 26 32 c 1
 87 37 98 39 98 122 c 2
 98 309 l 2
 98 366 87.5 373.9 33 379 c 1
 31 385 29 405 31 411 c 1
 100 420 160 434 197 444 c 1
 211 444 219.1 439.2 220 427 c 2
 220 427 224.2 397.4 226.5 362.1 c 1
 281.6 399.9 352.7 444 393 444 c 0
 479 444 526 394 526 284 c 2
 526 128 l 2
 526 44 542 35 603 32 c 1
 609 26 609 4 603 -2 c 1
 560 -1 516.4 0 461 0 c 0
 413.4 0 381 -1 339 -2 c 1
 333 4 333 26 339 32 c 1
 380 35 396 44 396 128 c 2
 396 295 l 2
 396 352 366 370 326 370 c 0
 308.4 370 267.7 350.4 228 323.1 c 1
 228 321.3 l 1
 228 122 l 2
EndSplineSet
EndChar

StartChar: o
Encoding: 111 111 295
Width: 551
GlyphClass: 2
Flags: MW
AnchorPoint: "below" 243 -110 basechar 0
AnchorPoint: "cedilla" 241 -3 basechar 0
AnchorPoint: "ogonek" 372 44 basechar 0
AnchorPoint: "middle" 236 215 basechar 0
AnchorPoint: "above" 238 645 basechar 0
AnchorPoint: "komb_OR" 420 396 basechar 0
LayerCount: 2
Fore
SplineSet
260 402 m 0
 193 402 177 321 177 229 c 0
 177 155 209 32 291 32 c 0
 327 32 374 63.9 374 184 c 0
 374 321 328 402 260 402 c 0
37 207 m 0
 37 266.1 53.8 326.4 91.7 370 c 0
 131.2 415.4 193.1 444 276 444 c 0
 424.5 444 514 346.8 514 216 c 0
 514 160.3 496.6 92.3 446 47 c 0
 404.9 10.2 345.5 -10 275 -10 c 0
 140.6 -10 37 76.4 37 207 c 0
EndSplineSet
EndChar

StartChar: p
Encoding: 112 112 296
Width: 581
GlyphClass: 2
Flags: MW
AnchorPoint: "below" 179 -319 basechar 0
AnchorPoint: "middle" 246 215 basechar 0
AnchorPoint: "above" 271 646 basechar 0
AnchorPoint: "right" 429 580 basechar 0
LayerCount: 2
Fore
SplineSet
95 309 m 2
 95 366 84.5 373.9 30 379 c 1
 28 385 26 405 28 411 c 1
 97 420 157 434 194 444 c 1
 208 444 216.1 439.2 217 427 c 2
 217 427 220.1 405.3 222.4 377 c 1
 228 377 l 1
 263 409 317 444 346 444 c 0
 397.7 444 447.9 429.2 483 394 c 0
 521.9 355 543 292.7 543 237 c 0
 543 89.5 444.4 -10 292 -10 c 0
 268 -10 246.5 -4 225 7 c 1
 225 -110 l 2
 225 -193 236 -196 297 -200 c 1
 303 -206 303 -228 297 -234 c 1
 254 -233 213.4 -232 160 -232 c 0
 106.6 -232 65 -233 23 -234 c 1
 17 -228 17 -206 23 -200 c 1
 84 -195 95 -193 95 -110 c 2
 95 309 l 2
225 65 m 1
 250 38 275 32 286 32 c 0
 373 32 403 126 403 210 c 0
 403 327 355 377 314 377 c 0
 290.5 377 253.5 363.6 224.7 337.6 c 1
 224.9 332.2 225 326.7 225 321.3 c 2
 225 65 l 1
EndSplineSet
EndChar

StartChar: q
Encoding: 113 113 297
Width: 573
GlyphClass: 2
Flags: MW
AnchorPoint: "below" 348 -319 basechar 0
AnchorPoint: "middle" 236 215 basechar 0
AnchorPoint: "above" 238 645 basechar 0
AnchorPoint: "right" 469 732 basechar 0
LayerCount: 2
Fore
SplineSet
483 -110 m 2
 483 -193 494 -196 555 -200 c 1
 561 -206 561 -228 555 -234 c 1
 512 -233 471 -232 418 -232 c 0
 365 -232 323 -233 281 -234 c 1
 275 -228 275 -206 281 -200 c 1
 342 -195 353 -193 353 -110 c 2
 353 28 l 1
 348 28 l 1
 331 20 268 -10 241 -10 c 0
 185.2 -10 151 2.9 116 28 c 0
 53.9 72.6 36 148.5 36 208 c 0
 36 341 155 444 288 444 c 0
 335.8 444 370.3 423.6 391.5 407.1 c 1
 414.4 427 450.9 444 464 444 c 0
 478 444 487 438 487 427 c 2
 487 427 483 371 483 321.3 c 2
 483 -110 l 2
353 71 m 1
 353 365.6 l 1
 331 392.7 308.7 402 285 402 c 0
 220 402 176 329 176 229 c 0
 176 82 238 46 288 46 c 0
 300 46 334 56 353 71 c 1
EndSplineSet
EndChar

StartChar: r
Encoding: 114 114 298
Width: 428
GlyphClass: 2
Flags: MW
AnchorPoint: "below" 135 -110 basechar 0
AnchorPoint: "cedilla" 134 7 basechar 0
AnchorPoint: "middle" 136 185 basechar 0
AnchorPoint: "above" 191 646 basechar 0
AnchorPoint: "right" 349 580 basechar 0
LayerCount: 2
Fore
SplineSet
228 268.3 m 2
 228 122 l 2
 228 39 239 36 300 32 c 1
 306 26 306 4 300 -2 c 1
 257 -1 216.4 0 163 0 c 0
 109.6 0 68 -1 26 -2 c 1
 20 4 20 26 26 32 c 1
 87 37 98 39 98 122 c 2
 98 309 l 2
 98 366 87.5 374.9 33 380 c 1
 31 386 29 405 31 411 c 1
 97 417.5 149.5 432 197 444 c 1
 211 444 219.2 435.8 220 427 c 2
 220 427 225 378 227 348 c 1
 231 348 l 1
 277 414 315 444 350 444 c 0
 386 444 416 414 416 388 c 0
 416 346 387.5 315.5 358.5 315.5 c 0
 336 315.5 319 323.5 312 331.9 c 0
 303.5 342.2 293.1 351 283.7 351 c 0
 269 351 260.2 343.8 252 334 c 0
 239 318.5 228 304 228 268.3 c 2
EndSplineSet
EndChar

StartChar: uni02E2
Encoding: 738 738 299
Width: 253
GlyphClass: 2
Flags: MW
AnchorPoint: "above" 128 805 basechar 0
LayerCount: 2
Fore
SplineSet
19 460 m 1
 25 462 29 463 34 463 c 0
 37 463 41 463 45 462 c 1
 59 413 90 383 120 383 c 3
 138 383 159 394 159 415 c 3
 159 431 152 455 126 467 c 0
 106 476 69 500 49 522 c 0
 36 536 29 551 29 571 c 3
 29 589 36 608 51 623 c 0
 72 644 105 657 140 657 c 3
 176 657 193 650 214 641 c 1
 220 620 223 595 223 571 c 1
 219 568 214 567 208 567 c 0
 205 567 201 567 197 568 c 1
 181 608 158 629 135 629 c 3
 116 629 103 617 103 602 c 3
 103 583 113 561 139 550 c 0
 169 537 197 520 216 499 c 0
 231 483 236 465 236 443 c 3
 236 386 173 357 122 357 c 3
 85 357 42 368 30 372 c 1
 24 397 22 427 19 460 c 1
EndSplineSet
Colour: ff00ff
EndChar

StartChar: t
Encoding: 116 116 300
Width: 358
GlyphClass: 2
Flags: MW
AnchorPoint: "below" 163 -110 basechar 0
AnchorPoint: "cedilla" 165 -3 basechar 0
AnchorPoint: "ogonek" 237 15 basechar 0
AnchorPoint: "middle" 127 215 basechar 0
AnchorPoint: "right" 279 580 basechar 0
LayerCount: 2
Fore
SplineSet
63 434 m 2
 91 434.1 l 1
 91 513.5 95 540.5 102 550 c 0
 108.8 559.2 138 565 155 572.1 c 0
 170.7 578.7 208 589.8 215.3 589.8 c 0
 220 589.8 223 587.4 223 581 c 2
 223 581 220 534.6 218 468 c 2
 217 434 l 1
 334 434 l 2
 339 434 342 432 342 428 c 2
 342 397 l 2
 342 388 328 384 318 384 c 2
 217 384 l 1
 217 284 218 177 218 127 c 0
 218 77 240 60 262 60 c 0
 281 60 306 64 319 74 c 1
 331 64 337 58 337 46 c 1
 317 18 256.3 -10 201 -10 c 0
 177.4 -10 140.5 -1.3 118 18 c 0
 96.6 36.3 88 70 88 105 c 0
 88 155 88.7 283.3 91 384 c 1
 26 384 l 2
 22 384 21 385 21 390 c 2
 21 419 l 1
 33.7 430 49 433.9 63 434 c 2
EndSplineSet
EndChar

StartChar: u
Encoding: 117 117 301
Width: 598
GlyphClass: 2
Flags: MW
AnchorPoint: "below" 239 -110 basechar 0
AnchorPoint: "cedilla" 213 0 basechar 0
AnchorPoint: "ogonek" 293 7 basechar 0
AnchorPoint: "middle" 252 215 basechar 0
AnchorPoint: "above" 255 645 basechar 0
LayerCount: 2
Fore
SplineSet
510 133 m 2
 510 76 520.5 60.1 575 55 c 1
 577 49 579 29 577 23 c 1
 508 14 448 0 411 -10 c 1
 397 -10 388.8 -5 388 7 c 2
 388 7 385.7 25.8 383.5 51 c 1
 326 18.8 253.3 -10 217 -10 c 0
 131 -10 89 43.5 89 150 c 2
 89 306 l 2
 89 390 68 400 22 402 c 1
 16 408 16 430 22 436 c 1
 65 435 102.5 434 154 434 c 0
 172.3 434 193 435 211 436 c 1
 217 430 221 419 221 402 c 0
 221 378 219 390 219 306 c 2
 219 139 l 2
 219 68.5 249 64 289 64 c 0
 306.5 64 340.2 65.9 380.8 91 c 1
 380.3 101.1 380 111.1 380 120.7 c 2
 380 306 l 2
 380 390 364 397 313 402 c 1
 307 408 307 430 313 436 c 1
 352 435 417.3 434 445 434 c 0
 464 434 484 435 502 436 c 1
 508 430 512 419 512 402 c 0
 512 378 510 390 510 306 c 2
 510 133 l 2
EndSplineSet
EndChar

StartChar: v
Encoding: 118 118 302
Width: 529
GlyphClass: 2
Flags: MW
AnchorPoint: "below" 241 -110 basechar 0
AnchorPoint: "middle" 247 267 basechar 0
AnchorPoint: "above" 256 646 basechar 0
AnchorPoint: "right" 460 580 basechar 0
LayerCount: 2
Fore
SplineSet
342 402 m 1
 336 408 336 430 342 436 c 1
 369 435 406 434 443 434 c 0
 465 434 497 435 519 436 c 1
 525 430 525 408 519 402 c 1
 466 397 453.3 369.4 433.4 324 c 2
 296 11 l 2
 287 -9.6 267 -12 257 -12 c 0
 244 -12 227 -6 221 9 c 2
 90.4 325 l 2
 69.6 375.4 67.5 395.2 10 402 c 1
 4 408 4 430 10 436 c 1
 47 435 98 434 133 434 c 0
 182.1 434 222 435 259 436 c 1
 265 430 265 408 259 402 c 1
 196.8 396.6 210.8 379.3 227.9 331 c 2
 291.1 153 l 2
 293.6 146 297.6 138.8 301.6 148 c 2
 380.7 331 l 2
 402.8 382.1 396 398 342 402 c 1
EndSplineSet
EndChar

StartChar: w
Encoding: 119 119 303
Width: 777
GlyphClass: 2
Flags: MW
AnchorPoint: "below" 352 -110 basechar 0
AnchorPoint: "above" 345 646 basechar 0
AnchorPoint: "right" 719 580 basechar 0
LayerCount: 2
Fore
SplineSet
481.9 331 m 2
 547.8 163.8 l 2
 551.6 154.2 557.6 152.9 562.1 165.2 c 2
 619.7 322.5 l 2
 638.5 372.4 634 398 580 402 c 1
 574 408 574 430 580 436 c 1
 617 435 660 434 697 434 c 0
 723 434 741 435 763 436 c 1
 769 430 769 408 763 402 c 1
 707 397 690.4 359.4 672.5 315.5 c 2
 550 11 l 2
 541.8 -9.5 525 -12 515 -12 c 0
 502 -12 483 -9.2 476 9 c 2
 380 258 l 1
 286 11 l 2
 278 -10 259 -12 249 -12 c 0
 236 -12 223.3 -10.1 216 9 c 2
 94.4 325 l 2
 74.7 376.3 71.5 395.2 14 402 c 1
 8 408 8 430 14 436 c 1
 51 435 102 434 137 434 c 0
 188.1 434 231 435 268 436 c 1
 274 430 274 408 268 402 c 1
 205.8 396.6 215.7 378.9 231.9 331 c 2
 289.3 161.2 l 2
 292.7 151.3 297.4 153.1 299.9 160 c 2
 395 423.5 l 1
 414.4 421.5 432.9 421.7 451 423 c 1
 451 423 463.1 378.6 481.9 331 c 2
EndSplineSet
EndChar

StartChar: uni02E3
Encoding: 739 739 304
Width: 332
GlyphClass: 2
Flags: MW
AnchorPoint: "above" 158 805 basechar 0
LayerCount: 2
Fore
SplineSet
12 389 m 2
 12 399 32 400 46 400 c 2
 54 400 l 1
 54 400 58 403 64 412 c 1
 64 412 128 490 132 493 c 1
 108 523 82 559 58 589 c 1
 54 596 53 597 51 597 c 2
 45 597 l 2
 22 597 10 601 10 608 c 2
 10 628 l 1
 173 628 l 1
 173 608 l 2
 173 601 165 598 149 597 c 1
 152 585 177 549 177 549 c 1
 201 580 204 588 204 588 c 2
 205 589 207 593 207 597 c 1
 195 598 183 600 183 608 c 2
 183 628 l 1
 327 628 l 1
 327 610 l 1
 325 601 313 597 292 597 c 0
 282 597 273 585 262 573 c 1
 245 551 227 528 210 506 c 1
 231 476 256 440 279 410 c 0
 284 403 288 401 294 400 c 0
 318 399 329 394 329 389 c 2
 329 367 l 1
 310 369 275 371 256 371 c 0
 233 371 191 369 169 368 c 1
 169 389 l 2
 169 396 176 399 191 400 c 1
 191 403 191 405 190 406 c 2
 190 406 167 440 162 448 c 1
 143 425 131 409 130 400 c 1
 148 400 156 396 156 389 c 2
 156 368 l 1
 137 369 103 370 87 370 c 0
 65 370 29 369 12 368 c 1
 12 389 l 2
EndSplineSet
Colour: ff00ff
EndChar

StartChar: y
Encoding: 121 121 305
Width: 558
GlyphClass: 2
Flags: MW
AnchorPoint: "below" 242 -319 basechar 0
AnchorPoint: "above" 262 645 basechar 0
LayerCount: 2
Fore
SplineSet
242 -168 m 0
 230.8 -187.9 203 -212 182 -222 c 0
 168.2 -228.5 138.2 -232 125 -232 c 0
 111.6 -232 95.4 -225.1 86 -214 c 0
 76.5 -202.7 74 -187.1 74 -174 c 0
 74 -154 96 -128 134 -128 c 0
 148 -128 151 -132 169 -132 c 0
 197 -132 209.1 -113.7 222.3 -83 c 2
 246 -28 l 2
 254 -10 235 8 218 32 c 1
 89 328 l 2
 61.7 390.6 54 398 10 402 c 1
 4 408 4 430 10 436 c 1
 30 435 87 434 121 434 c 0
 157 434 217 435 254 436 c 1
 260 430 260 408 254 402 c 1
 193 397 202.8 379 221 338 c 2
 314 129 l 2
 314.9 127.2 315.3 125.9 315.4 125 c 1
 315.5 125.5 315.7 126.2 316 127 c 2
 419 358 l 2
 435 394 403 399 371 402 c 1
 365 408 365 430 371 436 c 1
 408 435 442 434 477 434 c 0
 505 434 523 435 548 436 c 1
 554 430 554 408 548 402 c 1
 511 399 481 368 467 339 c 0
 414 227 365 119 285 -74 c 0
 273 -104 257.8 -139.9 242 -168 c 0
EndSplineSet
EndChar

StartChar: z
Encoding: 122 122 306
Width: 452
GlyphClass: 2
Flags: MW
AnchorPoint: "below" 207 -110 basechar 0
AnchorPoint: "cedilla" 208 4 basechar 0
AnchorPoint: "middle" 207 215 basechar 0
AnchorPoint: "above" 220 646 basechar 0
AnchorPoint: "right" 399 580 basechar 0
LayerCount: 2
Fore
SplineSet
61 446 m 0
 78.5 442.6 87.9 436 120 436 c 2
 313 436 l 2
 342 436 410 438 415 438 c 0
 422 438 427 435 427 431 c 0
 427 427 424.3 419.2 409 394 c 0
 348.7 294.8 248.8 136.7 175.3 42 c 1
 176 39 l 1
 272 39 l 2
 324 39 344.5 57.2 370 110 c 2
 384 139 l 1
 396 139 417.5 136.7 424 133 c 1
 417 83 404 31 392 -3 c 1
 40 0 l 2
 25 0 17 5 17 12 c 0
 17 17 17.4 20.4 26 32 c 0
 102.4 134.9 199.9 282.2 267.8 395 c 1
 266 396.8 l 1
 164 394 l 2
 134 393 103 371 83 298 c 1
 71.4 295.4 48.8 297.3 40 301 c 1
 48 350 54 395 55 440 c 0
 55 442.4 58.6 446 61 446 c 0
EndSplineSet
EndChar

StartChar: braceleft
Encoding: 123 123 307
Width: 307
GlyphClass: 2
Flags: MW
LayerCount: 2
Fore
SplineSet
208 552 m 2
 216 386 l 2
 220.3 297 178.2 268.2 111 249 c 1
 111 245 l 1
 178.8 216.8 220.4 177.3 216 95 c 2
 208 -54 l 2
 203.5 -138 244 -188 288 -188 c 1
 294 -194 294 -206 288 -212 c 1
 187 -212 101 -179 106 -49 c 2
 112 121 l 2
 114 182 87.5 222 14 231 c 1
 6 239 5 254 14 263 c 1
 88 270 112 320 112 370 c 1
 106 554 l 2
 102 667 198 707 288 707 c 1
 294 701 294 689 288 683 c 1
 250 672 203 654.9 208 552 c 2
EndSplineSet
EndChar

StartChar: bar
Encoding: 124 124 308
Width: 220
GlyphClass: 2
Flags: MW
LayerCount: 2
Fore
SplineSet
140 -233 m 1
 80 -233 l 1
 80 698 l 1
 140 698 l 1
 140 -233 l 1
EndSplineSet
EndChar

StartChar: braceright
Encoding: 125 125 309
Width: 307
GlyphClass: 2
Flags: MW
LayerCount: 2
Fore
SplineSet
99 -56 m 2
 91 110 l 2
 86.7 199 128.8 227.8 196 247 c 1
 196 251 l 1
 128.2 279.2 86.6 318.7 91 401 c 2
 99 550 l 2
 103.5 634 63 684 19 684 c 1
 13 690 13 702 19 708 c 1
 120 708 206 675 201 545 c 2
 195 375 l 2
 193 314 219.5 274 293 265 c 1
 301 257 302 242 293 233 c 1
 219 226 195 176 195 126 c 1
 201 -58 l 2
 205 -171 109 -211 19 -211 c 1
 13 -205 13 -193 19 -187 c 1
 57 -176 104 -158.9 99 -56 c 2
EndSplineSet
EndChar

StartChar: asciitilde
Encoding: 126 126 310
Width: 473
GlyphClass: 2
Flags: MW
LayerCount: 2
Fore
SplineSet
152 268 m 0
 124 268 70 261 46 204 c 1
 36 207 l 1
 28 216 22 230 20 236 c 1
 49 323.5 128 341 167 341 c 0
 200 341 241.3 330.7 263 309 c 0
 282.5 289.5 307 280 318 280 c 0
 346 280 400 287 424 344 c 1
 434 341 l 1
 442 332 448 318 450 312 c 1
 421 223.5 342 207 303 207 c 0
 278 207 237 220 211 244 c 0
 190.1 263.3 175 268 152 268 c 0
EndSplineSet
EndChar

StartChar: exclamdown
Encoding: 161 161 312
Width: 266
GlyphClass: 2
Flags: MW
LayerCount: 2
Fore
SplineSet
133 -224 m 0
 96 -224 61 -200 61 -149 c 0
 61 -114 69 -76 75 -43 c 0
 91.3 54.9 104 155 105 204 c 0
 105.4 223 109.9 246 133 246 c 0
 159.1 246 162 226 163 192 c 0
 164.3 144.3 178.2 24.4 191 -46 c 0
 198 -81 205 -110 205 -149 c 0
 205 -205 164 -224 133 -224 c 0
206 376 m 0
 206 337 172 305 132 305 c 0
 92 305 60 335 60 374 c 0
 60 412 94 444 134 444 c 0
 174 444 206 414 206 376 c 0
EndSplineSet
EndChar

StartChar: cent
Encoding: 162 162 313
Width: 540
GlyphClass: 2
Flags: MW
LayerCount: 2
Fore
SplineSet
262 584 m 1
 296 584 l 1
 296 514.7 l 1
 395.6 509.9 445 454 445 411 c 0
 445 380 422 355 390 355 c 0
 358 355 331 375 328 402 c 0
 325.7 426.3 316.5 454.7 296 466.9 c 1
 296 136.5 l 1
 306.6 133.5 317.7 132 329 132 c 0
 358 132 392 152 432 189 c 1
 443 189 445 170 445 158 c 1
 410.8 108.4 351.3 69.4 296 62.2 c 1
 296 -12 l 1
 262 -12 l 1
 262 61.3 l 1
 199.6 63.5 158.3 78.9 122 113 c 0
 83.2 149.5 60 207.4 60 272 c 0
 60 411.6 152.5 504 262 514.1 c 1
 262 584 l 1
262 151.8 m 1
 262 472.2 l 1
 215.9 464.9 190 410.1 190 307 c 0
 190 233.6 219.5 179.2 262 151.8 c 1
EndSplineSet
EndChar

StartChar: sterling
Encoding: 163 163 314
Width: 540
GlyphClass: 2
Flags: MW
LayerCount: 2
Fore
SplineSet
82 292 m 2
 59 292 54 296 54 303 c 2
 54 319 l 2
 54 329 65 339 101 339 c 2
 132 339 l 1
 132 363 l 2
 132 459 168 512 218 560 c 1
 259 597 315 614 369 614 c 0
 392 614 463 609 463 562 c 0
 463 528 440 505 406 505 c 0
 388 505 372 517 358 531 c 0
 342 548 343 574 321 574 c 0
 274 574 262 502 262 414 c 2
 262 339 l 1
 352 339 l 2
 371 339 383 334 383 328 c 2
 383 312 l 2
 383 298 355 292 335 292 c 2
 261.7 292 l 1
 257.8 183.8 208.5 138.1 171.4 109 c 1
 239.8 108.9 270.6 93 294.5 80 c 0
 310.8 71.2 324.5 64 345 64 c 0
 375 64 419 85 445 120 c 1
 454.1 118.2 463.5 112 468 105 c 1
 449 53 402 -10 327 -10 c 0
 283.2 -10 243.5 11 215 29.3 c 0
 192.3 43.9 170 52 151 52 c 0
 116 52 113 38 113 25 c 0
 113 -4 81.5 -18 52 -18 c 0
 29.5 -18 18 -2 18 15 c 0
 18 44 53 78 84 94 c 0
 88.3 96.2 92.7 98.1 97.1 99.7 c 1
 115 120.6 132 165 132 284 c 2
 132 292 l 1
 82 292 l 2
EndSplineSet
EndChar

StartChar: currency
Encoding: 164 164 315
Width: 463
GlyphClass: 2
Flags: MW
LayerCount: 2
Fore
SplineSet
114 300 m 0
 114 230 164 177 230 177 c 0
 297 177 346 231 346 299 c 0
 346 371 290.1 422 232 422 c 0
 167 422 114 369 114 300 c 0
230 122 m 0
 192 122 159 131 130 147 c 1
 116 129 95 103 84 89 c 1
 23 148 l 1
 76 191 l 1
 48 226 33 261 33 299 c 0
 33 338 48 374 77 409 c 1
 61 421 40 437 25 450 c 1
 80 507 l 1
 130 452 l 1
 160 468 193 477 232 477 c 0
 272 477 302 467 331 451 c 1
 347 470 371 498 382 512 c 1
 440 451 l 1
 385 406 l 1
 413 372 427 337 427 299 c 0
 427 263 412 228 386 193 c 1
 402 180 423 162 438 149 c 1
 384 91 l 1
 333 149 l 1
 303 132 269 122 230 122 c 0
EndSplineSet
EndChar

StartChar: yen
Encoding: 165 165 316
Width: 540
GlyphClass: 2
Flags: MW
LayerCount: 2
Fore
SplineSet
478 177 m 1
 478 135 l 1
 349 135 l 1
 349 122 l 2
 349 39 366 35 446 32 c 1
 452 26 452 4 446 -2 c 1
 396 -1 352.1 0 292 0 c 0
 225.7 0 171 -1 122 -2 c 1
 116 4 116 26 122 32 c 1
 202 35 219 39 219 122 c 2
 219 135 l 1
 98 135 l 1
 98 177 l 1
 219 177 l 1
 219 245 l 1
 98 245 l 1
 98 287 l 1
 216.3 287 l 1
 213.4 297.4 207.4 309.2 195 332 c 2
 107.7 492 l 1
 81.6 542.7 56 565 14 568 c 1
 8 574 7 596 13 602 c 1
 43 601 111 600 150 600 c 0
 190 600 229 601 269 602 c 1
 275 596 275 574 269 568 c 1
 213 565 211.4 555.2 223 531 c 2
 298.4 373 l 2
 310.1 348.5 318.8 347.3 328.6 370 c 2
 398 531 l 2
 409.7 559.9 392.3 565 348 568 c 1
 342 574 342 596 348 602 c 1
 388 601 426 600 449 600 c 0
 472 600 502 601 532 602 c 1
 538 596 538 574 532 568 c 1
 487.3 563.7 463.4 549.3 445.2 510 c 1
 367 351 l 2
 353 322.6 349.9 311.6 349.2 287 c 1
 478 287 l 1
 478 245 l 1
 349 245 l 1
 349 177 l 1
 478 177 l 1
EndSplineSet
EndChar

StartChar: brokenbar
Encoding: 166 166 317
Width: 220
GlyphClass: 2
Flags: MW
LayerCount: 2
Fore
SplineSet
140 674 m 1
 140 312 l 1
 80 312 l 1
 80 674 l 1
 140 674 l 1
140 161 m 1
 140 -201 l 1
 80 -201 l 1
 80 161 l 1
 140 161 l 1
EndSplineSet
EndChar

StartChar: section
Encoding: 167 167 318
Width: 466
GlyphClass: 2
Flags: MW
LayerCount: 2
Fore
SplineSet
409 -26 m 0
 409 -95 360 -169 223 -169 c 0
 150 -169 52 -125 52 -37 c 0
 52 -11 83 12 105 12 c 0
 147 12 169 -28 169 -39 c 0
 169 -65 153 -73 153 -87 c 0
 153 -94 163 -134 221 -134 c 0
 266 -134 299 -100 299 -33 c 0
 299 18 232 55 181 83 c 0
 70 145 30 197 30 276 c 0
 30 327.4 63.4 370.6 98.5 402.1 c 1
 78.4 428 64 462 64 504 c 0
 64 537 83 583 116 613 c 0
 149 643 196 658 244 658 c 0
 342 658 415 613 415 528 c 0
 415 500 382 478 359 478 c 0
 316 478 299 518 299 529 c 0
 299 560 313 561 313 577 c 0
 313 599 300 623 248 623 c 0
 191 623 168 576 168 524 c 0
 168 477 198 459 244 437 c 0
 356 382 437 342 437 219 c 0
 437 164.2 401.2 120 363.5 88.3 c 1
 392.3 53.2 409 13.7 409 -26 c 0
118.2 380.8 m 1
 109.5 364.3 107 344.7 107 324 c 0
 107 275 137 229 247 176 c 0
 284.1 158.6 316.8 136.2 342.9 110.8 c 1
 355.3 127.6 360 147.8 360 171 c 0
 360 255 294 291 161 352 c 0
 146.8 358.6 131.9 368.3 118.2 380.8 c 1
EndSplineSet
EndChar

StartChar: dieresis
Encoding: 168 168 319
Width: 410
GlyphClass: 2
Flags: MW
LayerCount: 2
Fore
SplineSet
243 573 m 0
 243 604 267 628 298 628 c 0
 328 628 353 604 353 573 c 0
 353 543 328 519 298 519 c 0
 267 519 243 543 243 573 c 0
57 573 m 0
 57 604 82 628 112 628 c 0
 143 628 167 604 167 573 c 0
 167 543 143 519 112 519 c 0
 82 519 57 543 57 573 c 0
EndSplineSet
EndChar

StartChar: copyright
Encoding: 169 169 320
Width: 641
GlyphClass: 2
Flags: MW
LayerCount: 2
Fore
SplineSet
439 218 m 1
 421 188 383 158 334 158 c 0
 296 158 252 173 227 200 c 0
 200 229 187 267 187 306 c 0
 187 387 249 450 328 450 c 0
 391 450 407 436 425 430 c 1
 430 400 433 382 434 360 c 1
 430 357 423 357 416 357 c 1
 393 402 381 417 338 417 c 0
 308 417 274 392 274 305 c 0
 274 235 296 198 347 198 c 0
 393 198 412 218 422 233 c 1
 431 230 435 224 439 218 c 1
EndSplineSet
Refer: 2156 -1 N 1 0 0 1 0 0 2
EndChar

StartChar: ordfeminine
Encoding: 170 170 321
Width: 297
GlyphClass: 2
Flags: MW
LayerCount: 2
Fore
SplineSet
169 519 m 1
 170 591.5 158 615 135 615 c 0
 105 615 88 603 88 590 c 0
 88 578 93 578 93 565 c 0
 93 550 73 537 54 537 c 0
 39 537 20 546 20 569 c 0
 20 609 85.5 645 137 645 c 0
 161 645 192 641.8 213 626 c 0
 241.5 604.5 246.6 577.8 245 513 c 2
 243 433 l 2
 241.9 389.9 248 386 257 386 c 0
 261 386 270 390 273 392 c 1
 283 376 l 1
 266 361 234 348 215 348 c 0
 188 348 173 357 170 381 c 1
 146 357 111 348 92 348 c 0
 71 348 53 351 37 363 c 0
 20 375 15 398 15 418 c 0
 15 458 63.4 493.2 128 509 c 2
 169 519 l 1
167 408 m 1
 169 492 l 1
 104 471 89 440 89 421 c 0
 89 400 96 385 122 385 c 0
 140 385 149 391 167 408 c 1
EndSplineSet
EndChar

StartChar: guillemotleft
Encoding: 171 171 322
Width: 555
GlyphClass: 2
Flags: MW
LayerCount: 2
Fore
SplineSet
74 207 m 1
 74 223 l 1
 141.9 284.1 187.1 323.3 258 407 c 1
 267.5 404 282 395 287 385 c 1
 247.5 309.5 214 254 183 215 c 1
 214 176 247.5 120.5 287 45 c 1
 282 35 267.5 26 258 23 c 1
 187.1 106.7 141.9 145.9 74 207 c 1
262 207 m 1
 262 223 l 1
 329.9 284.1 375.1 323.3 446 407 c 1
 455.5 404 470 395 475 385 c 1
 435.5 309.5 402 254 371 215 c 1
 402 176 435.5 120.5 475 45 c 1
 470 35 455.5 26 446 23 c 1
 375.1 106.7 329.9 145.9 262 207 c 1
EndSplineSet
EndChar

StartChar: logicalnot
Encoding: 172 172 323
Width: 560
GlyphClass: 2
Flags: MW
LayerCount: 2
Fore
SplineSet
463 133 m 1
 463 347 l 1
 24 347 l 1
 24 401 l 1
 537 401 l 1
 537 133 l 1
 463 133 l 1
EndSplineSet
EndChar

StartChar: registered
Encoding: 174 174 325
Width: 641
GlyphClass: 2
Flags: MW
LayerCount: 2
Fore
SplineSet
423 372 m 0
 423 320 366 296 366 296 c 1
 414 214 l 2
 427 192 438 183 454 183 c 1
 454 170 l 1
 444 167 436 166 431 166 c 0
 402 166 375 178 363 204 c 1
 315 282 l 1
 311 284 293 285 288 285 c 1
 288 194 l 2
 288 189 288 187 295 187 c 2
 307 187 l 2
 315 187 318 185 318 181 c 2
 318 167 l 1
 318 167 264 169 250 169 c 2
 194 167 l 1
 194 181 l 2
 194 185 198 187 205 187 c 2
 217 187 l 2
 223 187 225 188 225 195 c 2
 225 413 l 2
 225 418 224 424 221 424 c 2
 205 423 l 2
 198 423 195 425 195 429 c 2
 195 442 l 1
 216 445 254 447 328 447 c 0
 403 447 423 402 423 372 c 0
361 372 m 0
 361 406 350 427 316 427 c 0
 305 427 293 426 288 424 c 1
 288 309 l 1
 319 309 361 310 361 372 c 0
EndSplineSet
Refer: 2156 -1 N 1 0 0 1 0 0 2
EndChar

StartChar: macron
Encoding: 175 175 326
Width: 397
GlyphClass: 2
Flags: MW
LayerCount: 2
Fore
SplineSet
315 519 m 2
 71 519 l 2
 62 519 59 532 59 539 c 0
 59 551 69 573 81 573 c 2
 325 573 l 2
 335 573 339 560 339 554 c 0
 339 542 328 519 315 519 c 2
EndSplineSet
EndChar

StartChar: degree
Encoding: 176 176 327
Width: 267
GlyphClass: 2
Flags: MW
LayerCount: 2
Fore
SplineSet
196 524 m 0
 196 555 176 593 134 593 c 0
 94 593 71 558 71 524 c 0
 71 491 95 458 134 458 c 0
 173 458 196 492 196 524 c 0
28 525 m 0
 28 584 76 631 134 631 c 0
 192 631 239 584 239 525 c 0
 239 467 192 420 134 420 c 0
 76 420 28 467 28 525 c 0
EndSplineSet
EndChar

StartChar: uni00B2
Encoding: 178 178 329
Width: 340
GlyphClass: 2
Flags: MW
LayerCount: 2
Fore
SplineSet
33 626 m 0
 33 654 85 709 164 709 c 0
 191 709 225.5 707.5 249.5 688.5 c 0
 270.5 672.5 279 654 279 622 c 0
 279 597.7 272.4 580 250 556 c 0
 235.5 540.5 212 518.8 194 503 c 2
 151.3 465.5 l 1
 132.8 450.8 125.5 434.3 124 421 c 1
 206 421 l 2
 237 421 261 453 272 483 c 1
 283 483 295 481 300 477 c 1
 296 438 280 393 271 364 c 1
 35 364 l 1
 35 405.8 59.6 444.9 94.2 478.5 c 1
 152.9 532.5 l 2
 179.3 556.8 190 586.1 190 608 c 0
 190 631.8 185.8 651 178 664 c 0
 171.9 674.1 158.3 679 150 679 c 0
 128 679 117 674 112 661 c 0
 110.8 657.4 110.5 644.3 110.5 637.8 c 0
 110.5 632.8 110.7 627.6 110.7 623 c 0
 110.7 618.5 110.5 614.6 110 612 c 0
 106.6 595.6 88.3 583 67.3 583 c 0
 40.4 583 33 600.6 33 626 c 0
EndSplineSet
EndChar

StartChar: uni00B3
Encoding: 179 179 330
Width: 340
GlyphClass: 2
Flags: MW
LayerCount: 2
Fore
SplineSet
197 635 m 0
 197 664 177 679 155 679 c 0
 133 679 110 663 108 640 c 1
 108 626 97 600 68 600 c 0
 36 600 35 624 35 628 c 0
 35 647 69 709 172 709 c 0
 237 709 283 682 283 640 c 0
 283 615 265 590 236 571 c 0
 235 570 234 568 236 567 c 0
 273 556 309 536 309 482 c 0
 309 406 228 359 138 359 c 0
 92 359 36 368 26 400 c 0
 19 422 35 445 61 445 c 0
 89 445 99 417 106 408 c 0
 114 399 127 389 148 389 c 0
 168 389 214 412 214 474 c 0
 214 518 180 530 139 530 c 0
 130 530 118 529 105 526 c 1
 105 556 l 1
 149 562 197 592 197 635 c 0
EndSplineSet
EndChar

StartChar: mu
Encoding: 181 181 332
Width: 559
GlyphClass: 2
Flags: MW
LayerCount: 2
Fore
SplineSet
343.2 48.5 m 1
 335 48 l 1
 294 15 267 -10 212 -10 c 0
 196 -10 180 -9 166 -3 c 1
 168 -35 165 -67 171 -96 c 0
 177 -122 183 -151 183 -168 c 0
 183 -211 152 -232 120 -232 c 0
 100 -232 47 -206 47 -163 c 0
 47 -142 50 -118 54 -92 c 0
 58 -66 64 -40 64 -4 c 0
 64 10 62 26 61 46 c 1
 58 72 47 111.5 47 137 c 2
 47 323 l 2
 47 348 36 434 36 434 c 1
 174 447 l 1
 174 447 177 375 177 343 c 2
 177 160 l 2
 177 97 185 53 220 53 c 0
 261 53 312 68 334 98 c 1
 334 434 l 1
 464 448 l 1
 464 127 l 2
 464 78 474 60 496 60 c 0
 515 60 525 64 538 74 c 1
 550 64 556 58 556 46 c 1
 519 11 476.3 -10 421 -10 c 0
 377 -10 350 8 343.2 48.5 c 1
EndSplineSet
EndChar

StartChar: paragraph
Encoding: 182 182 333
Width: 602
GlyphClass: 2
Flags: MW
LayerCount: 2
Fore
SplineSet
498 -144 m 2
 498 -200 506 -205 538 -206 c 1
 567 -206 l 2
 571 -206 573 -209 573 -213 c 2
 573 -234 l 1
 244 -234 l 1
 244 -213 l 2
 244 -208 246 -206 250 -206 c 2
 279 -206 l 1
 312 -205 318 -195 318 -143 c 2
 318 227 l 1
 304 220 273 215 241 215 c 0
 158 215 27 261 27 439 c 0
 27 562 98 646 230 646 c 0
 305 646 366 641 393 641 c 0
 428 641 462 644 462 644 c 1
 573 646 l 1
 573 625 l 2
 573 621 571 618 567 618 c 2
 538 618 l 2
 502 618 498 602 498 556 c 2
 498 -144 l 2
407 -207 m 0
 436 -207 439 -187 439 -145 c 2
 439 556 l 2
 439 614 426 615 410 616 c 1
 378 616 377 584 377 553 c 2
 377 -143 l 2
 377 -172 381 -207 407 -207 c 0
EndSplineSet
EndChar

StartChar: periodcentered
Encoding: 183 183 334
Width: 250
GlyphClass: 2
Flags: MW
LayerCount: 2
Fore
SplineSet
125 186 m 0
 84 186 57 218 57 253 c 0
 57 288 88 320 125 320 c 0
 159 320 193 291 193 253 c 0
 193 217 163 186 125 186 c 0
EndSplineSet
EndChar

StartChar: uni00B9
Encoding: 185 185 336
Width: 340
GlyphClass: 2
Flags: MW
LayerCount: 2
Fore
SplineSet
135 640 m 0
 122 640 103 634 78 625 c 1
 70.1 631.1 68 646 68 658 c 1
 115 675 160 691 205 714 c 0
 210.3 716.9 231.7 719 237 714 c 1
 237 449 l 2
 237 398 258 395 292 393 c 1
 296 385 296 370 292 363 c 1
 262 364 231.6 364 193 364 c 0
 157.7 364 108 364 78 363 c 1
 74 369 73 385 78 393 c 1
 118 395 149 398 149 449 c 2
 149 599 l 2
 149 631 147 640 135 640 c 0
EndSplineSet
EndChar

StartChar: ordmasculine
Encoding: 186 186 337
Width: 368
GlyphClass: 2
Flags: MW
LayerCount: 2
Fore
SplineSet
39 474 m 0
 39 559 108 611 186 611 c 0
 214.700195312 611 237.799804688 607.900390625 262 594 c 0
 304.5 569.5 330 522.700195312 330 480 c 0
 330 412 281 348 181 348 c 0
 93 348 39 402 39 474 c 0
180 582 m 0
 130 582 127 538 127 484 c 0
 127 435 132 381 192 381 c 0
 219 381 243 392 243 464 c 0
 243 544 230 582 180 582 c 0
EndSplineSet
EndChar

StartChar: guillemotright
Encoding: 187 187 338
Width: 555
GlyphClass: 2
Flags: MW
LayerCount: 2
Fore
SplineSet
481 223 m 1
 481 207 l 1
 413.1 145.9 367.9 106.7 297 23 c 1
 287.5 26 273 35 268 45 c 1
 307.5 120.5 341 176 372 215 c 1
 341 254 307.5 309.5 268 385 c 1
 273 395 287.5 404 297 407 c 1
 367.9 323.3 413.1 284.1 481 223 c 1
293 223 m 1
 293 207 l 1
 225.1 145.9 179.9 106.7 109 23 c 1
 99.5 26 85 35 80 45 c 1
 119.5 120.5 153 176 184 215 c 1
 153 254 119.5 309.5 80 385 c 1
 85 395 99.5 404 109 407 c 1
 179.9 323.3 225.1 284.1 293 223 c 1
EndSplineSet
EndChar

StartChar: onequarter
Encoding: 188 188 339
Width: 700
GlyphClass: 2
Flags: MW
LayerCount: 2
Fore
SplineSet
572 601 m 1
 614 593 l 1
 155 -62 l 1
 114 -54 l 1
 572 601 l 1
EndSplineSet
Refer: 1073 8308 N 1 0 0 1 348 -499 2
Refer: 336 185 N 1 0 0 1 -3 -49 2
LCarets2: 2 0 0
EndChar

StartChar: onehalf
Encoding: 189 189 340
Width: 700
GlyphClass: 2
Flags: MW
LayerCount: 2
Fore
SplineSet
552 601 m 1
 594 593 l 1
 135 -62 l 1
 94 -54 l 1
 552 601 l 1
EndSplineSet
Refer: 336 185 N 1 0 0 1 -1 -49 2
Refer: 329 178 N 1 0 0 1 358 -443 2
LCarets2: 2 0 0
EndChar

StartChar: threequarters
Encoding: 190 190 341
Width: 700
GlyphClass: 2
Flags: MW
LayerCount: 2
Fore
SplineSet
582 601 m 1
 624 593 l 1
 165 -62 l 1
 124 -54 l 1
 582 601 l 1
EndSplineSet
Refer: 1073 8308 N 1 0 0 1 352 -497 2
Refer: 330 179 N 1 0 0 1 -2 -51 2
LCarets2: 2 0 0
EndChar

StartChar: questiondown
Encoding: 191 191 342
Width: 430
GlyphClass: 2
Flags: MW
LayerCount: 2
Fore
SplineSet
279 -140 m 0
 279 -119 270 -113 270 -86 c 0
 270 -61 293 -45 323 -45 c 0
 347 -45 380 -65 380 -103 c 0
 380 -138 361 -161 327 -189 c 0
 297 -214 251 -228 190 -228 c 0
 76 -228 5 -167 5 -75 c 0
 5 -1 68 45 118 82 c 0
 146 102 181 129 181 201 c 2
 181 214 l 2
 181 239 185.5 248 214 248 c 0
 240.5 248 246 236 246 214 c 2
 246 199 l 2
 246 158 246 101 175 36 c 0
 140 5 120 -32 120 -82 c 0
 120 -140 143.9 -192 200 -192 c 0
 244 -192 279 -168 279 -140 c 0
285 372 m 0
 285 333 251 301 211 301 c 0
 171 301 139 331 139 370 c 0
 139 408 173 440 213 440 c 0
 253 440 285 410 285 372 c 0
EndSplineSet
EndChar

StartChar: Agrave
Encoding: 192 192 343
Width: 740
GlyphClass: 2
Flags: MW
LayerCount: 2
Fore
SplineSet
273 283 m 2
 425 283 l 1
 343.1 520 l 1
 336.2 520 l 1
 247.8 296.3 l 2
 244 286 251 283 273 283 c 2
165 79 m 2
 149 38 196.4 34.6 234 32 c 1
 240 26 240 4 234 -2 c 1
 197 -1 142 0 101 0 c 0
 62 0 44 -1 7 -2 c 1
 1 4 1 26 7 32 c 1
 50.5 35 81 40 107 102 c 2
 323.8 614 l 1
 359 614 419 649 434 658 c 1
 640 86 l 2
 658 35 691.2 35.5 730 32 c 1
 736 26 736 4 730 -2 c 1
 693 -1 637 0 596 0 c 0
 557 0 462 -1 425 -2 c 1
 419 4 419 26 425 32 c 1
 472.6 35.4 513 31 499 72 c 2
 443 235 l 1
 253 235 l 2
 229 235 223 231 218 218 c 2
 165 79 l 2
EndSplineSet
Refer: 2228 -1 N 1 0 0 1 501 0 2
Position2: "'cpsp' Versalabstaende 1" dx=2 dy=0 dh=5 dv=0
EndChar

StartChar: Adieresis.alt
Encoding: 1114112 -1 347
Width: 740
GlyphClass: 2
Flags: MW
AnchorPoint: "above" 362 894 basechar 0
LayerCount: 2
Fore
SplineSet
167 697 m 0
 167 729 191 754 223 754 c 0
 255 754 279 729 279 697 c 0
 279 665 255 641 223 641 c 0
 191 641 167 665 167 697 c 0
484 697 m 0
 484 729 509 754 541 754 c 0
 573 754 596 729 596 697 c 0
 596 665 573 641 541 641 c 0
 509 641 484 665 484 697 c 0
EndSplineSet
Refer: 24 65 N 1 0 0 1 0 0 2
Position2: "'cpsp' Versalabstaende 1" dx=2 dy=0 dh=5 dv=0
EndChar

StartChar: AE
Encoding: 198 198 349
Width: 956
GlyphClass: 2
Flags: MW
AnchorPoint: "below" 549 -107 basechar 0
AnchorPoint: "cedilla" 549 4 basechar 0
AnchorPoint: "above" 553 850 basechar 0
LayerCount: 2
Fore
SplineSet
112 102 m 2
 364 562 l 2
 383.8 598.1 358 613 312 613 c 0
 306 613 304 616 304 620 c 2
 304 645 l 1
 306 647 l 1
 513 645 l 1
 811 645 l 2
 835 645 843 646 860 649 c 0
 863 649 864 648 864 646 c 0
 866 638 871 542 876 501 c 1
 866.2 496.3 845.4 494.2 833 496 c 1
 811 565 790 603 715 603 c 2
 630 603 l 2
 606 603 589 578 589 554 c 2
 589 367 l 1
 670 367 l 2
 737 367 758 374 761 429 c 1
 767 435 798 435 804 429 c 1
 803 399 802 377 802 343 c 0
 802 309 803 290 804 255 c 1
 798 249 767 249 761 255 c 1
 758 300 739 317 670 317 c 2
 589 317 l 1
 589 90 l 2
 589 63 608 42 630 42 c 2
 731 42 l 2
 807 42 852 98 872 170 c 1
 885.1 173.2 906.6 170.9 917 165 c 1
 909 114 904 48 890 -2 c 1
 890 -2 800 0 752 0 c 2
 516 0 l 1
 516 0 411 -1 362 -2 c 1
 356 4 356 26 362 32 c 1
 432 35 449 39 449 122 c 2
 449 266 l 1
 271 266 l 1
 170 79 l 2
 148.9 40 201.4 34.6 239 32 c 1
 245 26 245 4 239 -2 c 1
 202 -1 147 0 106 0 c 0
 67 0 49 -1 12 -2 c 1
 6 4 6 26 12 32 c 1
 55.5 35 80.2 44 112 102 c 2
297 316 m 1
 449 316 l 1
 449 545 l 2
 449 571 437 578 420 546 c 2
 297 316 l 1
EndSplineSet
Position2: "'cpsp' Versalabstaende 1" dx=2 dy=0 dh=5 dv=0
EndChar

StartChar: Ccedilla
Encoding: 199 199 350
Width: 706
GlyphClass: 2
Flags: MW
AnchorPoint: "above" 371 850 basechar 0
LayerCount: 2
Fore
SplineSet
301 -105 m 1
 295 -99 l 1
 340.6 -7.8 l 1
 269.1 -1.9 209.1 16.3 158 53 c 0
 77.8 110.7 37 221.1 37 315 c 0
 37 535.2 202 658 398 658 c 0
 521 658 566 618 617 613 c 1
 626 558 634 510 639 458 c 1
 627.7 452 608 449 596 453 c 1
 570 539 525 617 387 617 c 0
 268 617 188 489.4 188 334 c 0
 188 178 280 42 396 42 c 0
 466 42 547 68 618 146 c 1
 629 146 646 134 651 125 c 1
 583 36 494 -10 397 -10 c 0
 389.5 -10 382 -9.9 374.7 -9.7 c 1
 360 -45 l 1
 405.4 -54.1 452.9 -74.5 452.9 -129.1 c 0
 452.9 -179.3 400.8 -219 336 -219 c 0
 304 -219 295 -214.2 272 -202 c 1
 272 -192 272.9 -180.2 282 -176 c 1
 309 -186 320 -190 340 -190 c 0
 370 -190 390 -176 390 -149 c 0
 390 -111.4 337 -107 301 -105 c 1
EndSplineSet
Position2: "'cpsp' Versalabstaende 1" dx=2 dy=0 dh=5 dv=0
EndChar

StartChar: Egrave
Encoding: 200 200 351
Width: 609
GlyphClass: 2
Flags: MW
AnchorPoint: "below" 279 -107 basechar 0
AnchorPoint: "cedilla" 279 4 basechar 0
LayerCount: 2
Fore
SplineSet
323 365 m 2
 390 365 411 374 414 429 c 1
 420 435 451 435 457 429 c 1
 456 399 455 376.5 455 343 c 0
 455 308.7 456 290 457 255 c 1
 451 249 420 249 414 255 c 1
 411 300 392 319 323 319 c 2
 242 319 l 1
 242 90 l 2
 242 63 261 42 283 42 c 2
 384 42 l 2
 460 42 505 98 525 170 c 1
 538.1 173.2 559.6 171 570 165 c 1
 562 114 557 48 543 -2 c 1
 543 -2 453 0 405 0 c 2
 170 0 l 1
 170 0 64 -1 15 -2 c 1
 9 4 9 26 15 32 c 1
 85 35 102 39 102 122 c 2
 102 522 l 2
 102 605 85 610 15 613 c 1
 9 619 9 641 15 647 c 1
 65 646 169 645 169 645 c 1
 464 645 l 2
 488 645 496 646 513 649 c 0
 516 649 517 648 517 646 c 0
 519 638 524 542 529 501 c 1
 519.2 496.3 498.4 494.2 486 496 c 1
 464 565 443 603 368 603 c 2
 283 603 l 2
 259 603 242 578 242 554 c 2
 242 365 l 1
 323 365 l 2
EndSplineSet
Refer: 2228 -1 N 1 0 0 1 450 0 2
Position2: "'cpsp' Versalabstaende 1" dx=2 dy=0 dh=5 dv=0
EndChar

StartChar: Igrave
Encoding: 204 204 355
Width: 367
GlyphClass: 2
Flags: MW
LayerCount: 2
Fore
SplineSet
114 523 m 2
 114 606 86 610 31 613 c 1
 21 619 21 641 31 647 c 1
 71 646 145 645 185 645 c 0
 225 645 297 646 337 647 c 1
 347 641 347 619 337 613 c 1
 282 610 254 606 254 523 c 2
 254 122 l 2
 254 39 282 35 337 32 c 1
 347 26 347 4 337 -2 c 1
 297 -1 225 0 185 0 c 0
 145 0 71 -1 31 -2 c 1
 21 4 21 26 31 32 c 1
 86 35 114 39 114 122 c 2
 114 523 l 2
EndSplineSet
Refer: 2228 -1 N 1 0 0 1 360 0 2
Position2: "'cpsp' Versalabstaende 1" dx=2 dy=0 dh=5 dv=0
EndChar

StartChar: Eth
Encoding: 208 208 359
Width: 734
GlyphClass: 2
Flags: MW
AnchorPoint: "above" 341 850 basechar 0
LayerCount: 2
Fore
SplineSet
254 119 m 2
 254 52 280 40 350 40 c 0
 426 40 535 102 535 284 c 0
 535 435 513 604 316 604 c 0
 280 604 254 584 254 529 c 2
 254 326.5 l 1
 290.6 327.1 326 328.3 358 330 c 1
 348 280 l 1
 318.9 281.5 287 282.6 254 283.3 c 1
 254 119 l 2
185 0 m 0
 145 0 31 -2 31 -2 c 1
 21 4 21 26 31 32 c 1
 86 35 114 39 114 122 c 2
 114 283.4 l 1
 80 282.8 47.2 281.6 17 280 c 1
 27 330 l 1
 54.2 328.6 83.5 327.5 114 326.8 c 1
 114 523 l 2
 114 606 86 610 31 613 c 1
 21 619 21 641 31 647 c 1
 31 647 145 645 185 645 c 0
 225 645 267 646 320 646 c 0
 566 646 686 494 686 309 c 0
 686 207.4 653 124 605 82 c 0
 534.3 20.2 434.5 -2 347 -2 c 0
 307 -2 225 0 185 0 c 0
EndSplineSet
Position2: "'cpsp' Versalabstaende 1" dx=2 dy=0 dh=5 dv=0
EndChar

StartChar: Ograve
Encoding: 210 210 361
Width: 730
GlyphClass: 2
Flags: MW
AnchorPoint: "cedilla" 350 0 basechar 0
AnchorPoint: "below" 350 -110 basechar 0
AnchorPoint: "above" 344 894 basechar 0
AnchorPoint: "komb_OR" 620 606 basechar 0
LayerCount: 2
Fore
SplineSet
351 616 m 0
 261.9 616 188 533 188 329 c 0
 188 141 274 32 384 32 c 0
 485 32 543 141.9 543 308 c 0
 543 511 458 616 351 616 c 0
694 329 m 0
 694 230.9 663.2 148.5 608 89 c 0
 550.6 27.1 467 -10 364 -10 c 0
 194 -10 37 111 37 309 c 0
 37 401.4 66.2 484.2 118.1 546 c 0
 176.2 615.3 262.6 658 363 658 c 0
 546 658 694 528 694 329 c 0
EndSplineSet
Refer: 2228 -1 N 1 0 0 1 540 0 2
Position2: "'cpsp' Versalabstaende 1" dx=2 dy=0 dh=5 dv=0
EndChar

StartChar: Odieresis.alt
Encoding: 1114113 -1 365
Width: 730
GlyphClass: 2
Flags: MW
AnchorPoint: "above" 344 894 basechar 0
LayerCount: 2
Fore
SplineSet
80 717 m 0
 80 749 104 774 136 774 c 0
 168 774 192 749 192 717 c 0
 192 685 168 661 136 661 c 0
 104 661 80 685 80 717 c 0
539 717 m 0
 539 749 564 774 596 774 c 0
 628 774 651 749 651 717 c 0
 651 685 628 661 596 661 c 0
 564 661 539 685 539 717 c 0
EndSplineSet
Refer: 264 79 N 1 0 0 1 0 0 2
Position2: "'cpsp' Versalabstaende 1" dx=2 dy=0 dh=5 dv=0
EndChar

StartChar: multiply
Encoding: 215 215 366
Width: 527
GlyphClass: 2
Flags: MW
LayerCount: 2
Fore
SplineSet
306 232 m 1
 426 111 l 1
 383 69 l 1
 262 187 l 1
 144 69 l 1
 103 111 l 1
 221 227 l 1
 103 346 l 1
 147 393 l 1
 266 273 l 1
 382 393 l 1
 426 351 l 1
 306 232 l 1
EndSplineSet
EndChar

StartChar: Oslash
Encoding: 216 216 367
Width: 730
GlyphClass: 2
Flags: MW
AnchorPoint: "below" 350 -110 basechar 0
AnchorPoint: "cedilla" 350 0 basechar 0
AnchorPoint: "above" 351 850 basechar 0
LayerCount: 2
Fore
SplineSet
88 -45 m 1
 52 -14 l 1
 129.8 81.7 l 1
 73.2 136.4 37 213.8 37 309 c 0
 37 401.4 66.2 484.2 118.1 546 c 0
 176.2 615.3 262.6 658 363 658 c 0
 434 658 499.7 638.4 553.5 602.9 c 1
 608 670 l 1
 645 641 l 1
 590.7 574.1 l 1
 654.3 516.5 694 432 694 329 c 0
 694 230.9 663.2 148.5 608 89 c 0
 550.6 27.1 467 -10 364 -10 c 0
 292.2 -10 222.6 11.6 166.3 51.5 c 1
 88 -45 l 1
351 616 m 0
 261.9 616 188 533 188 329 c 0
 188 271.9 196 222.1 210.1 180.4 c 1
 493.1 528.7 l 1
 458.1 586.6 407.7 616 351 616 c 0
515.7 481.7 m 1
 231.4 131.6 l 1
 267 67 321.7 32 384 32 c 0
 485 32 543 141.9 543 308 c 0
 543 377.5 533.1 435.5 515.7 481.7 c 1
EndSplineSet
Position2: "'cpsp' Versalabstaende 1" dx=2 dy=0 dh=5 dv=0
EndChar

StartChar: Ugrave
Encoding: 217 217 368
Width: 732
GlyphClass: 2
Flags: MW
AnchorPoint: "above" 344 894 basechar 0
LayerCount: 2
Fore
SplineSet
227 522 m 2
 227 269 l 2
 227 204 229 129 278 82 c 0
 308.1 53.1 349 32 397 32 c 0
 566 32 581 165 581 277 c 2
 581 522 l 2
 581 605 564.5 606.5 489 613 c 1
 483 619 483 641 489 647 c 1
 534.8 646 586.8 645 616 645 c 0
 643.8 645 684 646 723 647 c 1
 729 641 729 619 723 613 c 1
 664 607 646 605 646 522 c 2
 646 295 l 2
 646 117 581 -10 376 -10 c 0
 328.6 -10 236.9 -8.9 174 32 c 0
 117.5 68.7 87 139 87 236 c 2
 87 522 l 2
 87 605 70 610 10 613 c 1
 4 619 4 641 10 647 c 1
 60 646 110.7 645 156 645 c 0
 203.7 645 270 646 319 647 c 1
 325 641 325 619 319 613 c 1
 242 610 227 605 227 522 c 2
EndSplineSet
Refer: 2228 -1 N 1 0 0 1 540 0 2
Position2: "'cpsp' Versalabstaende 1" dx=2 dy=0 dh=5 dv=0
EndChar

StartChar: Udieresis.alt
Encoding: 1114114 -1 371
Width: 732
GlyphClass: 2
Flags: MW
AnchorPoint: "above" 344 894 basechar 0
LayerCount: 2
Fore
SplineSet
263 697 m 0
 263 729 287 754 319 754 c 0
 351 754 375 729 375 697 c 0
 375 665 351 641 319 641 c 0
 287 641 263 665 263 697 c 0
430 697 m 0
 430 729 455 754 487 754 c 0
 519 754 542 729 542 697 c 0
 542 665 519 641 487 641 c 0
 455 641 430 665 430 697 c 0
227 522 m 2
 227 269 l 2
 227 204 229 129 278 82 c 0
 308.1 53.1 349 32 397 32 c 0
 566 32 581 165 581 277 c 2
 581 522 l 2
 581 605 574 606 559 613 c 1
 553 619 553 641 559 647 c 1
 578 646 594 645 616 645 c 0
 658 645 674 646 723 647 c 1
 729 641 729 619 723 613 c 1
 663 606 646 605 646 522 c 2
 646 295 l 2
 646 117 581 -10 376 -10 c 0
 328.6 -10 236.9 -8.9 174 32 c 0
 117.5 68.7 87 139 87 236 c 2
 87 522 l 2
 87 605 70 610 10 613 c 1
 4 619 4 641 10 647 c 1
 60 646 99 645 156 645 c 0
 192 645 230 646 249 647 c 1
 255 641 255 619 249 613 c 1
 232 610 227 605 227 522 c 2
EndSplineSet
Position2: "'cpsp' Versalabstaende 1" dx=2 dy=0 dh=5 dv=0
EndChar

StartChar: Thorn
Encoding: 222 222 373
Width: 616
GlyphClass: 2
Flags: MW
AnchorPoint: "above" 281 850 basechar 0
LayerCount: 2
Fore
SplineSet
114 523 m 2
 114 606 86 610 31 613 c 1
 21 619 21 641 31 647 c 1
 71 646 145 645 185 645 c 0
 225 645 297 646 337 647 c 1
 347 641 347 619 337 613 c 1
 282 610 254 606 254 523 c 2
 254 521.2 l 1
 290.5 523 334.5 523 352 523 c 0
 537 523 582 414 582 343 c 0
 582 268 516 150 339 150 c 0
 305.1 150 271.2 150.9 254 156 c 1
 254 122 l 2
 254 39 282 35 337 32 c 1
 347 26 347 4 337 -2 c 1
 297 -1 225 0 185 0 c 0
 145 0 71 -1 31 -2 c 1
 21 4 21 26 31 32 c 1
 86 35 114 39 114 122 c 2
 114 523 l 2
254 194.4 m 1
 264.7 192.6 287.6 191 322 191 c 0
 394 191 431 234 431 343 c 0
 431 430.7 400 482 340 482 c 0
 321.8 482 277.1 477.6 254 477.6 c 1
 254 194.4 l 1
EndSplineSet
Position2: "'cpsp' Versalabstaende 1" dx=2 dy=0 dh=5 dv=0
EndChar

StartChar: germandbls
Encoding: 223 223 374
Width: 615
GlyphClass: 2
Flags: MW
LayerCount: 2
Fore
SplineSet
100 126 m 2
 100 368 l 2
 100 380 99.1 382.4 85 384 c 2
 41 389 l 2
 35.4 389.6 30 390 30 394 c 2
 30 414 l 2
 30 422 41 434 58 434 c 0
 89 434 100 455 100 482 c 0
 100 646 267 698 345 698 c 0
 384.4 698 429.7 691.8 456 678 c 0
 499.1 655.3 521 606.8 521 577 c 0
 521 536.9 503.9 495.4 476 467 c 0
 450.4 440.9 415.4 426.8 380 411 c 1
 380 409 l 1
 477 376 574 289 574 173 c 0
 574 68 495 -10 403 -10 c 0
 320 -10 286 45 286 98 c 0
 286 116 302 146 330 146 c 0
 354 146 379 130 379 106 c 0
 379 86 364 75 364 53 c 0
 364 41 385 32 403 32 c 0
 431 32 432 105 432 156 c 0
 432 249 403 322 319 386 c 1
 319 409 l 1
 386 461 386 491 386 564 c 0
 386 603.8 379 656 326 656 c 0
 254 656 230 555 230 447 c 2
 230 128 l 2
 230 44 246 36 257 32 c 1
 263 26 263 4 257 -2 c 1
 234 0 200.9 0 165 0 c 0
 109.6 0 65 -1 23 -2 c 1
 17 4 17 26 23 32 c 1
 84 35 100 44 100 126 c 2
EndSplineSet
EndChar

StartChar: ae
Encoding: 230 230 381
Width: 715
GlyphClass: 2
Flags: MW
AnchorPoint: "below" 327 -109 basechar 0
AnchorPoint: "ogonek" 604 30 basechar 0
AnchorPoint: "above" 332 644 basechar 0
LayerCount: 2
Fore
SplineSet
502 402 m 0
 450 402 427 334 418 255 c 1
 488.2 259.6 559.2 260.4 579 283 c 1
 579 344 558 402 502 402 c 0
284 93 m 0
 290.9 107.2 290 162 291 209 c 1
 196 197 151 156 151 111 c 0
 151 97.6 152.4 82.4 156 72 c 0
 163.3 50.6 178.1 40 197 40 c 0
 221.1 40 264 52 284 93 c 0
524 71 m 0
 562 71 628 87 669 129 c 1
 679 129 684 111 684 98 c 1
 634 25 576 -10 507 -10 c 0
 458.5 -10 412.7 -0.9 386 18 c 0
 366.6 31.7 348 43 337 67 c 1
 293 12 209.5 -10 182 -10 c 0
 141.5 -10 110 -6 84 11.7 c 0
 57.6 29.7 37 62.6 37 99 c 0
 37 182.1 124 234 291 248 c 1
 291 353 265 402 218 402 c 0
 181 402 155 393 155 371 c 0
 155 351 162 340 162 328 c 0
 162 314 150 287 105 287 c 0
 70 287 53 313 53 339 c 0
 53 399 148 444 220 444 c 0
 273 444 342 428 368 374 c 1
 408 431 456 444 513 444 c 0
 662.3 444 683.9 357 683.9 294.9 c 0
 683.9 273.9 681.3 264.2 680 246 c 1
 639.2 219.3 522.5 219.3 416 217 c 1
 417 116 463 71 524 71 c 0
EndSplineSet
EndChar

StartChar: ccedilla
Encoding: 231 231 382
Width: 456
GlyphClass: 2
Flags: MW
AnchorPoint: "above" 255 834 basechar 0
LayerCount: 2
Fore
SplineSet
173 -101 m 1
 167 -95 l 1
 210.7 -7.7 l 1
 163.6 -2.2 129.5 13.3 99 42 c 0
 60.2 78.5 37 136.4 37 201 c 0
 37 349 141 444 259 444 c 0
 368 444 422 385 422 340 c 0
 422 309 399 284 367 284 c 0
 335 284 308 304 305 331 c 0
 302 363 287 402 250 402 c 0
 197 402 172 347 172 236 c 0
 172 116 231 62 306 62 c 0
 335 62 369 81 409 118 c 1
 420 118 422 99 422 87 c 1
 384 32 315 -10 255 -10 c 0
 251.6 -10 248.3 -10 245 -9.9 c 1
 232 -41 l 1
 277.4 -50.1 324.9 -70.5 324.9 -125.1 c 0
 324.9 -175.3 272.8 -215 208 -215 c 0
 176 -215 167 -210.2 144 -198 c 1
 144 -188 144.9 -176.2 154 -172 c 1
 181 -182 192 -186 212 -186 c 0
 242 -186 262 -172 262 -145 c 0
 262 -107.4 209 -103 173 -101 c 1
EndSplineSet
EndChar

StartChar: eth
Encoding: 240 240 391
Width: 559
GlyphClass: 2
Flags: MW
LayerCount: 2
Fore
SplineSet
35 209 m 0
 35 289.5 69.2 344.7 115 382 c 0
 168.2 425.3 237.1 444 286 444 c 0
 302 444 320 442 337 439 c 1
 317 485 289 526 258 557 c 1
 224 533 179 503 148 483 c 1
 124 519 l 1
 229 589 l 1
 201.8 616.2 172 645.2 145 664 c 1
 170 698 l 1
 217 673 257 650 286 627 c 1
 320 651 367 681 398 702 c 1
 422 666 l 1
 323 600 l 1
 365 562 417.6 514.8 453 462 c 0
 494.4 400.2 516 323.9 516 239 c 0
 516 156 493.3 92.9 449 52 c 0
 402.1 8.7 331.8 -10 269 -10 c 0
 131 -10 35 105 35 209 c 0
285 32 m 0
 323 32 376 67 376 225 c 0
 376 271 371 320 365 361 c 1
 343 385 313 402 284 402 c 0
 201 402 175 300 175 227 c 0
 175 116 228 32 285 32 c 0
EndSplineSet
EndChar

StartChar: oslash
Encoding: 248 248 393
Width: 567
GlyphClass: 2
Flags: MW
AnchorPoint: "ogonek" 372 44 basechar 0
AnchorPoint: "cedilla" 241 -3 basechar 0
AnchorPoint: "below" 243 -110 basechar 0
LayerCount: 2
Fore
SplineSet
450 475 m 1
 487 446 l 1
 442.2 391.3 l 1
 491.7 350.3 519 288.3 519 216 c 0
 519 160.3 501.6 92.3 451 47 c 0
 409.9 10.2 350.5 -10 280 -10 c 0
 228.4 -10 181.4 2.7 143 25.8 c 1
 94 -34 l 1
 58 -2 l 1
 104.8 54.9 l 1
 65.6 92.5 42 144.7 42 207 c 0
 42 266.1 58.8 326.4 96.7 370 c 0
 136.2 415.4 198.1 444 281 444 c 0
 327.6 444 368.4 434.4 402.5 417.2 c 1
 450 475 l 1
265 402 m 0
 198 402 182 321 182 229 c 0
 182 208.2 184.5 183.4 190 158.6 c 1
 345.6 347.9 l 1
 325.7 383 297.9 402 265 402 c 0
365.6 297.7 m 1
 207.4 104.6 l 1
 225.6 63.7 254.4 32 296 32 c 0
 332 32 379 63.9 379 184 c 0
 379 227.9 374.3 266.1 365.6 297.7 c 1
EndSplineSet
EndChar

StartChar: thorn
Encoding: 254 254 396
Width: 588
GlyphClass: 2
Flags: MW
AnchorPoint: "above" 278 646 basechar 0
LayerCount: 2
Fore
SplineSet
232 341 m 1
 232 65 l 1
 257 38 282 32 293 32 c 0
 380 32 410 126 410 210 c 0
 410 327 362 377 321 377 c 0
 297 377 261 368 232 341 c 1
232 -110 m 2
 232 -193 243 -196 304 -200 c 1
 310 -206 310 -228 304 -234 c 1
 261 -233 220 -232 167 -232 c 0
 114 -232 72 -233 30 -234 c 1
 24 -228 24 -206 30 -200 c 1
 91 -195 102 -193 102 -110 c 2
 102 568 l 2
 102 625 91.5 630.9 37 636 c 1
 35 642 33 664 35 670 c 1
 104 679 184.5 687 213 698 c 1
 227 698 236 692 236 681 c 2
 236 681 232 625 232 575.3 c 2
 232 378.155172414 l 1
 235 381 l 2
 270 413 324 444 353 444 c 0
 404.7 444 454.9 429.2 490 394 c 0
 528.9 355 550 292.7 550 237 c 0
 550 89.5 451.4 -10 299 -10 c 0
 275 -10 253.5 -4 232 7 c 1
 232 -110 l 2
EndSplineSet
EndChar

StartChar: Aogonek
Encoding: 260 260 402
Width: 740
GlyphClass: 2
Flags: MW
AnchorPoint: "above" 365 850 basechar 0
LayerCount: 2
Fore
SplineSet
677 -177 m 1
 651 -213 607 -232 568 -232 c 0
 548.7 -232 532.4 -225.4 518 -216 c 0
 495.1 -201 479 -175.9 479 -136 c 0
 479 -87.6 526.3 -30.6 578.3 -0 c 1
 533.4 -0.2 457.2 -1.1 425 -2 c 1
 419 4 419 26 425 32 c 1
 472.6 35.4 513 31 499 72 c 2
 443 235 l 1
 253 235 l 2
 229 235 223 231 218 218 c 2
 165 79 l 2
 149 38 196.4 34.6 234 32 c 1
 240 26 240 4 234 -2 c 1
 197 -1 142 0 101 0 c 0
 62 0 44 -1 7 -2 c 1
 1 4 1 26 7 32 c 1
 50.5 35 81 40 107 102 c 2
 323.8 614 l 1
 359 614 419 649 434 658 c 1
 640 86 l 2
 658 35 691.2 35.5 730 32 c 1
 736 26 736 4 730 -2 c 1
 709.1 -1.4 682.3 -0.9 655.4 -0.5 c 1
 609 -10.5 571 -69.4 571 -130 c 0
 571 -162 588.5 -172 606 -172 c 0
 623 -172 647 -169 662 -154 c 1
 677 -177 l 1
273 283 m 2
 425 283 l 1
 343.1 520 l 1
 336.2 520 l 1
 247.8 296.3 l 2
 244 286 251 283 273 283 c 2
EndSplineSet
Position2: "'cpsp' Versalabstaende 1" dx=2 dy=0 dh=5 dv=0
EndChar

StartChar: aogonek
Encoding: 261 261 403
Width: 506
GlyphClass: 2
Flags: MW
AnchorPoint: "below" 146 -108 basechar 0
AnchorPoint: "cedilla" 167 -3 basechar 0
AnchorPoint: "above" 209 645 basechar 0
LayerCount: 2
Fore
SplineSet
487 -177 m 1
 461 -213 410 -232 371 -232 c 0
 321 -232 279 -201 279 -146 c 0
 279 -96.1 328.4 -48.1 378.8 -9.9 c 1
 376.9 -10 375 -10 373 -10 c 0
 329 -10 302 8 295.2 48.5 c 1
 289 48 l 1
 256 22 198 -10 169 -10 c 0
 82 -10 44 26 44 95 c 0
 44 174 117.6 203 223 236 c 2
 290 257 l 1
 290 384 255 402 213 402 c 0
 179.5 402 172.3 390.3 170.8 379.2 c 0
 168.5 362 175.4 345.2 175.4 332 c 0
 175.4 307.8 148.6 285.8 113.2 285.8 c 0
 73.6 285.8 61.5 307.7 61.5 336.3 c 0
 61.5 402.3 174 444 247 444 c 0
 329 444 418 415 418 271 c 1
 416 127 l 2
 416 78 422 60 444 60 c 0
 463 60 473 64 486 74 c 1
 497.5 65.8 501.8 57.8 504 46 c 1
 489 31.8 473.7 19.9 457.2 10.8 c 1
 458 10 l 1
 412 -32 381 -65 381 -125 c 0
 381 -151.5 398.5 -162 416 -162 c 0
 433 -162 457 -159 472 -144 c 1
 482.9 -151.5 487 -163.5 487 -177 c 1
290 218 m 1
 238 201 l 2
 167.3 177.9 164 147.1 164 110 c 0
 164 79 179 50 222 50 c 0
 240 50 265 66 290 86 c 1
 290 218 l 1
EndSplineSet
EndChar

StartChar: dcroat
Encoding: 273 273 415
Width: 561
GlyphClass: 2
Flags: MW
LayerCount: 2
Fore
SplineSet
351.6 94.8 m 1
 351.2 103.4 351 111.9 351 120 c 2
 351 366.2 l 1
 326.7 399.3 302.2 402 276 402 c 0
 245.7 402 218.5 386.1 202 359 c 0
 183.1 328 177 282.3 177 229 c 0
 177 112 216 56 266 56 c 0
 277.7 56 330.5 77.9 351.6 94.8 c 1
354.7 48 m 1
 346 48 l 1
 325 34 251 -10 224 -10 c 0
 168.2 -10 143 4 107 32 c 0
 58.4 69.8 37 138.5 37 198 c 0
 37 331 150 444 279 444 c 0
 307.9 444 331.9 439.4 351 432.6 c 1
 351 523.7 l 1
 314.8 523.2 279.7 522.1 248 520 c 1
 257 570 l 1
 286 568.1 318 566.9 351 566.4 c 1
 350.8 632 344.9 633.1 283 638 c 1
 278 647 277 660 280 672 c 1
 351 675 431 686 468 698 c 1
 477 698 484 694 484 685 c 2
 484 685 481 648 481 583 c 2
 481 566.8 l 1
 506.9 567.4 531.9 568.5 555 570 c 1
 546 520 l 1
 525.6 521.4 503.7 522.3 481 522.9 c 1
 481 133 l 2
 481 76 491.5 60.1 546 55 c 1
 548 49 550 29 548 23 c 1
 479 14 419 0 382 -10 c 1
 368 -10 359.8 -5 359 7 c 2
 359 7 356.8 24.4 354.7 48 c 1
EndSplineSet
EndChar

StartChar: dotlessi
Encoding: 305 305 419
Width: 322
GlyphClass: 2
Flags: MW
AnchorPoint: "below" 139 -108 basechar 0
AnchorPoint: "above" 132 645 basechar 0
LayerCount: 2
Fore
SplineSet
232 122 m 2
 232 39 243 36 304 32 c 1
 310 26 310 4 304 -2 c 1
 261 -1 220.4 0 167 0 c 0
 113.6 0 72 -1 30 -2 c 1
 24 4 24 26 30 32 c 1
 91 37 102 39 102 122 c 2
 102 314 l 2
 102 371 91.5 378.9 37 384 c 1
 35 390 33 410 35 416 c 1
 104 425 184.5 433 213 444 c 1
 227 444 236 438 236 427 c 2
 236 427 232 371 232 321.3 c 2
 232 122 l 2
EndSplineSet
EndChar

StartChar: kgreenlandic
Encoding: 312 312 426
Width: 603
GlyphClass: 2
Flags: MW
AnchorPoint: "below" 132 -108 basechar 0
AnchorPoint: "cedilla" 120 9 basechar 0
AnchorPoint: "above" 240 644 basechar 0
LayerCount: 2
Fore
SplineSet
232 122 m 2
 232 39 243 36 304 32 c 1
 310 26 310 4 304 -2 c 1
 261 -1 220.4 0 167 0 c 0
 113.6 0 72 -1 30 -2 c 1
 24 4 24 26 30 32 c 1
 91 37 102 39 102 122 c 2
 102 314 l 2
 102 371 91.5 378.9 37 384 c 1
 35 390 33 410 35 416 c 1
 104 425 184.5 433 213 444 c 1
 227 444 236 438 236 427 c 2
 236 427 232 371 232 321.3 c 2
 232 249 l 1
 261.6 249.7 296.6 266.5 309 277.2 c 0
 329 294.5 350 319.5 373 349 c 0
 396.9 379.7 376.9 398.6 362 400 c 2
 341 402 l 2
 330 403 328 406 328 412 c 2
 328 434 l 1
 333 436 l 1
 333 436 420 434 455 434 c 0
 494 434 570 436 570 436 c 1
 573 434 l 1
 573 412 l 2
 573 404 572 402.6 563 402 c 2
 533 400 l 2
 514.6 398.8 478 375 454 351 c 1
 430 324 379 269 379 269 c 2
 375 264 377 256 382 249 c 2
 498 78 l 2
 515 52 539.1 36.5 554 35 c 2
 583 32 l 2
 588 31.5 591 30 591 26 c 2
 591 0 l 1
 588 -2 l 1
 588 -2 518 0 479 0 c 0
 444 0 375 -2 375 -2 c 1
 373 0 l 1
 373 26 l 2
 373 41 370 50 357 78 c 0
 340.1 114.5 312 156 289 190 c 0
 278.8 205.1 259 208.8 232 209 c 1
 232 122 l 2
EndSplineSet
Comment: "Ist das so richtig?"
EndChar

StartChar: Lslash
Encoding: 321 321 435
Width: 577
GlyphClass: 2
Flags: MW
LayerCount: 2
Fore
SplineSet
349 42 m 2
 454 42 491 98 511 170 c 1
 523.4 171.8 544.2 169.7 554 165 c 1
 548 113 538 48 528 -2 c 1
 528 -2 437 0 408 0 c 2
 184.8 0 l 2
 146 0 31 -2 31 -2 c 1
 21 4 21 26 31 32 c 1
 86 35 114 39 114 122 c 2
 114 272.8 l 1
 88.1 256.8 63.2 240.9 42.7 226.7 c 1
 24.9 274.5 l 1
 50.8 288.7 82.3 305.9 114 323.8 c 1
 114 523 l 2
 114 606 86 610 31 613 c 1
 21 619 21 641 31 647 c 1
 31 647 145 645 185 645 c 0
 225 645 255 646 337 647 c 1
 347 641 347 619 337 613 c 1
 282 610 254 606 254 523 c 2
 254 409.6 l 1
 280.2 426.6 305.4 443.3 326.3 457.8 c 1
 344.1 410 l 1
 317.8 395.6 285.9 377.3 254 358.3 c 1
 254 121 l 2
 254 61 268 42 289 42 c 2
 349 42 l 2
EndSplineSet
Position2: "'cpsp' Versalabstaende 1" dx=2 dy=0 dh=5 dv=0
EndChar

StartChar: lslash
Encoding: 322 322 436
Width: 325
GlyphClass: 2
Flags: MW
LayerCount: 2
Fore
SplineSet
230 375.9 m 1
 230 127 l 2
 230 44 246 35 307 32 c 1
 313 26 313 4 307 -2 c 1
 264 -1 220.4 0 165 0 c 0
 109.6 0 65 -1 23 -2 c 1
 17 4 17 26 23 32 c 1
 84 35 100 44 100 127 c 2
 100 295 l 1
 76.2 279.5 53.5 264.1 32.7 249.7 c 1
 14.9 297.5 l 1
 41.5 312.1 70.4 328.7 100 346.3 c 1
 100 565 l 2
 100 633.6 95 635 32 640 c 1
 27 649 26 660 29 672 c 1
 100 675 180 686 217 698 c 1
 226 698 233 694 233 685 c 2
 233 685 230 648 230 583 c 2
 230 427.2 l 1
 253.3 442.4 275.7 457.5 296.3 471.8 c 1
 314.1 424 l 1
 287.6 409.5 259.2 393.2 230 375.9 c 1
EndSplineSet
EndChar

StartChar: Eng
Encoding: 330 330 444
Width: 753
GlyphClass: 2
Flags: MW
AnchorPoint: "below" 353 -109 basechar 0
AnchorPoint: "cedilla" 124 -3 basechar 0
AnchorPoint: "above" 346 804 basechar 0
LayerCount: 2
Fore
SplineSet
703 103 m 2
 703 -39 645 -92 601 -129 c 0
 560 -164 509 -187 450 -187 c 3
 421 -187 352 -163 352 -116 c 3
 352 -87 392 -60 410 -60 c 3
 450 -60 455 -88 468 -105 c 0
 478 -118 496 -128 514 -128 c 3
 557 -128 562 -99 563 81 c 2
 563 339 l 2
 563 440 547 501 521 538 c 0
 494 577 477 592 431 592 c 3
 381 592 317 537 264 474 c 0
 257 466 249 453 246 436 c 1
 246 122 l 2
 246 39 263 35 333 32 c 1
 336 29 338 22 338 15 c 3
 338 8 336 1 333 -2 c 1
 283 -1 239 0 189 0 c 3
 138 0 68 -1 19 -2 c 1
 16 1 14 8 14 15 c 3
 14 22 16 29 19 32 c 1
 89 35 106 39 106 122 c 2
 106 523 l 2
 106 606 89 610 19 613 c 1
 16 616 14 623 14 630 c 3
 14 637 16 644 19 647 c 1
 69 646 138 645 188 645 c 3
 201 645 228 646 237 647 c 0
 246 647 250 644 250 637 c 2
 250 637 246 597 246 532 c 2
 246 514 l 1
 249 514 255 521 255 521 c 1
 311 600 400 658 477 658 c 3
 539 658 604 633 639 592 c 0
 681 543 703 462 703 329 c 2
 703 103 l 2
EndSplineSet
Position2: "'cpsp' Versalabstaende 1" dx=2 dy=0 dh=5 dv=0
Comment: "Sieht in Times anders aus"
EndChar

StartChar: eng
Encoding: 331 331 445
Width: 561
GlyphClass: 2
Flags: MW
AnchorPoint: "below" 265 -111 basechar 0
AnchorPoint: "cedilla" 128 9 basechar 0
AnchorPoint: "middle" 264 215 basechar 0
AnchorPoint: "above" 264 646 basechar 0
LayerCount: 2
Fore
SplineSet
521 283 m 2
 521 110 l 2
 521 -79 497 -138 450 -176 c 0
 413 -207 368.9 -232.2 286.4 -232.2 c 0
 261.7 -232.2 215 -213.9 215 -176.2 c 0
 215 -152.8 242.3 -126.8 256.6 -126.8 c 0
 285.2 -126.8 300.8 -147.6 313.8 -160.6 c 0
 322.9 -169.7 339.7 -175 354 -175 c 0
 379 -175 398 -128.6 398 -92 c 0
 398 -26.4 391 19 391 76 c 2
 391 295 l 2
 391 352 351 370 311 370 c 0
 293.8 370 266.5 368.1 227.5 344.4 c 1
 227.8 336.7 228 328.9 228 321.3 c 2
 228 122 l 2
 228 39 238 36 280 32 c 1
 286 26 286 4 280 -2 c 1
 237 -1 208.6 0 163 0 c 0
 109.6 0 68 -1 26 -2 c 1
 20 4 20 26 26 32 c 1
 87 37 98 39 98 122 c 2
 98 309 l 2
 98 366 87.5 373.9 33 379 c 1
 31 385 29 405 31 411 c 1
 100 420 160 434 197 444 c 1
 211 444 219.1 439.2 220 427 c 2
 220 427 222.6 408.2 224.9 382.7 c 1
 282.2 415 346.6 444 383 444 c 0
 469 444 521 394 521 283 c 2
EndSplineSet
EndChar

StartChar: OE
Encoding: 338 338 452
Width: 925
GlyphClass: 2
Flags: MW
AnchorPoint: "above" 490 850 basechar 0
LayerCount: 2
Fore
SplineSet
639 367 m 2
 706 367 727 374 730 429 c 1
 736 435 767 435 773 429 c 1
 772 399 771 377 771 343 c 0
 771 309 772 290 773 255 c 1
 767 249 736 249 730 255 c 1
 727 300 708 317 639 317 c 2
 558 317 l 1
 558 90 l 2
 558 63 577 42 599 42 c 2
 700 42 l 2
 776 42 821 98 841 170 c 1
 854.1 173.2 875.6 170.9 886 165 c 1
 878 114 873 48 859 -2 c 1
 859 -2 769 0 721 0 c 2
 379 0 l 2
 178 0 43 138 43 319 c 0
 43 499 170 647 367 647 c 1
 417 646 485 645 485 645 c 1
 780 645 l 2
 804 645 812 646 829 649 c 0
 832 649 833 648 833 646 c 0
 835 638 840 542 845 501 c 1
 835.2 496.3 814.4 494.2 802 496 c 1
 780 565 759 603 684 603 c 2
 599 603 l 2
 575 603 558 578 558 554 c 2
 558 367 l 1
 639 367 l 2
377 40 m 2
 389 40 l 2
 411.5 40 418 76.9 418 122 c 2
 418 522 l 2
 418 566.8 412.2 604 389 604 c 2
 355 604 l 2
 270 604 194 536 194 328 c 0
 194 125 286 40 377 40 c 2
EndSplineSet
Position2: "'cpsp' Versalabstaende 1" dx=2 dy=0 dh=5 dv=0
EndChar

StartChar: oe
Encoding: 339 339 453
Width: 828
GlyphClass: 2
Flags: MW
AnchorPoint: "above" 454 645 basechar 0
AnchorPoint: "ogonek" 361 41 basechar 0
LayerCount: 2
Fore
SplineSet
260 402 m 0
 193 402 177 321 177 229 c 0
 177 155 209 32 291 32 c 0
 327 32 374 63.9 374 184 c 0
 374 321 328 402 260 402 c 0
37 207 m 0
 37 266.1 53.8 326.4 91.7 370 c 0
 131.2 415.4 193.1 444 276 444 c 0
 353.3 444 414.7 417.6 455.7 373.9 c 1
 499.4 419.1 557.7 444 612 444 c 0
 759 444 792 351 792 266 c 0
 792 252 787 235 763 235 c 2
 523 235 l 1
 523 230 522 226 522 219 c 0
 522 121 570 76 648 76 c 0
 686 76 740 87 781 129 c 1
 791 129 796 111 796 98 c 1
 746 25 678 -10 609 -10 c 0
 537.9 -10 488.6 5.9 451 40 c 0
 448.9 41.9 446.8 43.9 444.8 45.9 c 1
 403.7 9.8 344.8 -10 275 -10 c 0
 140.6 -10 37 76.4 37 207 c 0
527 275 m 1
 663 275 l 1
 665 277 665 290 665 296 c 0
 665 376 628 402 601 402 c 0
 589.7 402 562.9 391.8 547 368 c 0
 533.4 347.7 528 310 527 275 c 1
EndSplineSet
EndChar

StartChar: Scedilla
Encoding: 350 350 464
Width: 504
GlyphClass: 2
Flags: MW
LayerCount: 2
Fore
SplineSet
185 -101 m 1
 179 -95 l 1
 221.6 -9.8 l 1
 105.4 -7.8 99.7 10 46 10 c 1
 35 47 27 100 27 175 c 1
 43 179 60 184 77 178 c 1
 97 87 166 32 233 32 c 0
 294 32 337 65.8 337 115 c 0
 337 171 292 211 246 243 c 0
 203.3 272.7 120.4 307.1 74 369 c 0
 51.4 399.1 41 446.7 41 485 c 0
 41 533.6 68.7 580 106 610 c 0
 147.7 643.6 206.6 658 252 658 c 0
 345 658 366 639 421 631 c 1
 428 573 432 532 432 479 c 1
 421 470 396 470 382 474 c 1
 364 540 336 617 251 617 c 0
 199.8 617 166 583 166 527 c 0
 166 470 237.3 418.4 277 398 c 0
 316 378 372 347.1 411 304 c 0
 440.5 271.4 463 236.1 463 184 c 0
 463 122.4 430.5 76.3 395 44.5 c 0
 356.8 10.3 312.1 -7.3 257 -9.7 c 1
 244 -41 l 1
 289.4 -50.1 336.9 -70.5 336.9 -125.1 c 0
 336.9 -175.3 284.8 -215 220 -215 c 0
 188 -215 179 -210.2 156 -198 c 1
 156 -188 156.9 -176.2 166 -172 c 1
 193 -182 204 -186 224 -186 c 0
 254 -186 274 -172 274 -145 c 0
 274 -107.4 221 -103 185 -101 c 1
EndSplineSet
Position2: "'cpsp' Versalabstaende 1" dx=2 dy=0 dh=5 dv=0
EndChar

StartChar: scedilla
Encoding: 351 351 465
Width: 427
GlyphClass: 2
Flags: MW
LayerCount: 2
Fore
SplineSet
48 146 m 1
 64 150 72 151 88 148 c 1
 109 74.5 156.9 29 202 29 c 0
 229 29 261 45.9 261 78 c 0
 261 102 250 138 210 156 c 0
 179.5 169.7 125 205 94 239 c 0
 74.5 260.4 63 284.3 63 314 c 0
 63 341 74 368.6 97 392 c 0
 128.6 424.2 179.3 444 232 444 c 0
 287 444 312 434 344 420 c 1
 353 388 357 350 357 314 c 1
 347 307 336 306 318 309 c 1
 293 370 259 402 224 402 c 0
 195 402 176 383 176 360 c 0
 176 330.9 190 299.4 230 282 c 0
 276 262 317.5 237.3 346.4 205 c 0
 368.6 180.2 377 152.9 377 119 c 0
 377 38 293.8 -4 220.2 -9.4 c 1
 207 -41 l 1
 252.4 -50.1 299.9 -70.5 299.9 -125.1 c 0
 299.9 -175.3 247.8 -215 183 -215 c 0
 151 -215 142 -210.2 119 -198 c 1
 119 -188 119.9 -176.2 129 -172 c 1
 156 -182 167 -186 187 -186 c 0
 217 -186 237 -172 237 -145 c 0
 237 -107.4 184 -103 148 -101 c 1
 142 -95 l 1
 184.8 -9.4 l 1
 133.9 -6.6 81.4 6.2 65 12 c 1
 56.5 49.5 52 96.5 48 146 c 1
EndSplineSet
EndChar

StartChar: uni0162
Encoding: 354 354 468
Width: 652
GlyphClass: 2
Flags: MW
LayerCount: 2
Fore
SplineSet
280 -101 m 1
 274 -95 l 1
 321.5 -0 l 1
 262.4 -0.1 214 -1.1 168 -2 c 1
 162 4 162 26 168 32 c 1
 248 35 265 40 265 123 c 2
 265 506 l 2
 265 567 255 604 218 604 c 2
 169 604 l 2
 103 604 62 579 42 499 c 1
 30 499 13 500 3 504 c 1
 14 552 24 605 28 650 c 0
 28 651 30 653 32 653 c 0
 70 650 188 645 265 645 c 2
 406 645 l 2
 485 645 596 650 630 653 c 0
 631 653 633 651 633 650 c 0
 634 605 639 553 646 507 c 1
 637 503 618 502 607 502 c 1
 590 579 548 604 473 604 c 2
 451 604 l 2
 415 604 405 567 405 503 c 2
 405 123 l 2
 405 40 422 35 502 32 c 1
 508 26 508 4 502 -2 c 1
 458 -1.1 411.6 -0.2 356.1 -0 c 1
 339 -41 l 1
 384.4 -50.1 431.9 -70.5 431.9 -125.1 c 0
 431.9 -175.3 379.8 -215 315 -215 c 0
 283 -215 274 -210.2 251 -198 c 1
 251 -188 251.9 -176.2 261 -172 c 1
 288 -182 299 -186 319 -186 c 0
 349 -186 369 -172 369 -145 c 0
 369 -107.4 316 -103 280 -101 c 1
EndSplineSet
Position2: "'cpsp' Versalabstaende 1" dx=2 dy=0 dh=5 dv=0
EndChar

StartChar: uni0163
Encoding: 355 355 469
Width: 358
GlyphClass: 2
Flags: MW
LayerCount: 2
Fore
SplineSet
132 -101 m 1
 126 -95 l 1
 170.4 -6.3 l 1
 151.8 -2.1 132.1 5.9 118 18 c 0
 96.6 36.3 88 70 88 105 c 0
 88 155 88.7 283.3 91 384 c 1
 26 384 l 2
 22 384 21 385 21 390 c 2
 21 419 l 1
 33.7 430 49 433.9 63 434 c 2
 91 434.1 l 1
 91 513.5 95 540.5 102 550 c 0
 108.8 559.2 138 565 155 572.1 c 0
 170.7 578.7 208 589.8 215.3 589.8 c 0
 220 589.8 223 587.4 223 581 c 2
 223 581 220 534.6 218 468 c 2
 217 434 l 1
 334 434 l 2
 339 434 342 432 342 428 c 2
 342 397 l 2
 342 388 328 384 318 384 c 2
 217 384 l 1
 217 284 218 177 218 127 c 0
 218 77 240 60 262 60 c 0
 281 60 306 64 319 74 c 1
 331 64 337 58 337 46 c 1
 317.4 18.5 258.4 -9 203.9 -10 c 1
 191 -41 l 1
 236.4 -50.1 283.9 -70.5 283.9 -125.1 c 0
 283.9 -175.3 231.8 -215 167 -215 c 0
 135 -215 126 -210.2 103 -198 c 1
 103 -188 103.9 -176.2 113 -172 c 1
 140 -182 151 -186 171 -186 c 0
 201 -186 221 -172 221 -145 c 0
 221 -107.4 168 -103 132 -101 c 1
EndSplineSet
EndChar

StartChar: Tbar
Encoding: 358 358 472
Width: 652
GlyphClass: 2
Flags: MW
LayerCount: 2
Fore
SplineSet
405 123 m 2
 405 40 422 35 502 32 c 1
 508 26 508 4 502 -2 c 1
 452 -1 398.9 0 333 0 c 0
 268.6 0 217 -1 168 -2 c 1
 162 4 162 26 168 32 c 1
 248 35 265 40 265 123 c 2
 265 318.4 l 1
 229.5 317.8 195.4 316.6 164 315 c 1
 174 365 l 1
 202.4 363.5 233.1 362.5 265 361.8 c 1
 265 506 l 2
 265 567 255 604 218 604 c 2
 169 604 l 2
 103 604 62 579 42 499 c 1
 30 499 13 500 3 504 c 1
 14 552 24 605 28 650 c 0
 28 651 30 653 32 653 c 0
 70 650 188 645 265 645 c 2
 406 645 l 2
 485 645 596 650 630 653 c 0
 631 653 633 651 633 650 c 0
 634 605 639 553 646 507 c 1
 637 503 618 502 607 502 c 1
 590 579 548 604 473 604 c 2
 451 604 l 2
 415 604 405 567 405 503 c 2
 405 361.6 l 1
 440.2 362.2 474.1 363.4 505 365 c 1
 495 315 l 1
 467.1 316.5 436.6 317.5 405 318.2 c 1
 405 123 l 2
EndSplineSet
Position2: "'cpsp' Versalabstaende 1" dx=2 dy=0 dh=5 dv=0
EndChar

StartChar: tbar
Encoding: 359 359 473
Width: 358
GlyphClass: 2
Flags: MW
LayerCount: 2
Fore
SplineSet
63 434 m 2
 91 434.1 l 1
 91 513.5 95 540.5 102 550 c 0
 108.8 559.2 138 565 155 572.1 c 0
 170.7 578.7 208 589.8 215.3 589.8 c 0
 220 589.8 223 587.4 223 581 c 2
 223 581 220 534.6 218 468 c 2
 217 434 l 1
 334 434 l 2
 339 434 342 432 342 428 c 2
 342 397 l 2
 342 388 328 384 318 384 c 2
 217 384 l 1
 217 344.5 217.1 303.9 217.3 266.2 c 1
 259.4 266.7 297.2 268 336 270 c 1
 326 220 l 1
 290.3 221.9 255.7 223.1 217.6 223.7 c 1
 217.8 183.8 218 149.6 218 127 c 0
 218 77 240 60 262 60 c 0
 281 60 306 64 319 74 c 1
 331 64 337 58 337 46 c 1
 317 18 256.3 -10 201 -10 c 0
 177.4 -10 140.5 -1.3 118 18 c 0
 96.6 36.3 88 70 88 105 c 0
 88 129.6 88.2 173 88.6 222.8 c 1
 67.9 222.1 47.8 221.2 25 220 c 1
 35 270 l 1
 54.3 269 71.7 268.1 89.1 267.5 c 1
 89.6 306.6 90.1 347.2 91 384 c 1
 26 384 l 2
 22 384 21 385 21 390 c 2
 21 419 l 1
 33.7 430 49 433.9 63 434 c 2
EndSplineSet
EndChar

StartChar: Uogonek
Encoding: 370 370 484
Width: 732
GlyphClass: 2
Flags: MW
AnchorPoint: "below" 188 -110 basechar 0
AnchorPoint: "cedilla" 328 4 basechar 0
AnchorPoint: "middle" 336 321 basechar 0
AnchorPoint: "above" 346 850 basechar 0
LayerCount: 2
Fore
SplineSet
573 -152 m 1
 547 -188 496 -207 457 -207 c 0
 407 -207 365 -176 365 -121 c 0
 365 -79.6 398.9 -39.6 439.2 -5.4 c 1
 419.8 -8.4 398.8 -10 376 -10 c 0
 328.6 -10 236.9 -8.9 174 32 c 0
 117.5 68.7 87 139 87 236 c 2
 87 522 l 2
 87 605 70 610 10 613 c 1
 4 619 4 641 10 647 c 1
 60 646 110.7 645 156 645 c 0
 203.7 645 270 646 319 647 c 1
 325 641 325 619 319 613 c 1
 242 610 227 605 227 522 c 2
 227 269 l 2
 227 204 229 129 278 82 c 0
 308.1 53.1 349 32 397 32 c 0
 566 32 581 165 581 277 c 2
 581 522 l 2
 581 605 564.5 606.5 489 613 c 1
 483 619 483 641 489 647 c 1
 534.8 646 586.8 645 616 645 c 0
 643.8 645 684 646 723 647 c 1
 729 641 729 619 723 613 c 1
 664 607 646 605 646 522 c 2
 646 295 l 2
 646 177.9 617.9 82.8 540.2 31.5 c 1
 496.3 -8.9 467 -41.7 467 -100 c 0
 467 -126.5 484.5 -137 502 -137 c 0
 519 -137 543 -134 558 -119 c 1
 568.9 -126.5 573 -138.5 573 -152 c 1
EndSplineSet
Position2: "'cpsp' Versalabstaende 1" dx=2 dy=0 dh=5 dv=0
EndChar

StartChar: uogonek
Encoding: 371 371 485
Width: 598
GlyphClass: 2
Flags: MW
LayerCount: 2
Fore
SplineSet
497 -177 m 1
 471 -213 427 -232 388 -232 c 0
 368.7 -232 352.4 -225.4 338 -216 c 0
 315.1 -201 299 -175.9 299 -136 c 0
 299 -90.5 340.9 -33.2 389.1 1.4 c 1
 388.5 3.1 388.1 4.9 388 7 c 2
 388 7 385.7 25.8 383.5 51 c 1
 326 18.8 253.3 -10 217 -10 c 0
 131 -10 89 43.5 89 150 c 2
 89 306 l 2
 89 390 68 400 22 402 c 1
 16 408 16 430 22 436 c 1
 65 435 102.5 434 154 434 c 0
 172.3 434 193 435 211 436 c 1
 217 430 221 419 221 402 c 0
 221 378 219 390 219 306 c 2
 219 139 l 2
 219 68.5 249 64 289 64 c 0
 306.5 64 340.2 65.9 380.8 91 c 1
 380.3 101.1 380 111.1 380 120.7 c 2
 380 306 l 2
 380 390 364 397 313 402 c 1
 307 408 307 430 313 436 c 1
 352 435 417.3 434 445 434 c 0
 464 434 484 435 502 436 c 1
 508 430 512 419 512 402 c 0
 512 378 510 390 510 306 c 2
 510 133 l 2
 510 76 520.5 60.1 575 55 c 1
 577 49 579 29 577 23 c 1
 531.4 17.1 489.8 8.9 456.1 1.2 c 1
 418.9 -21.2 391 -78 391 -130 c 0
 391 -162 408.5 -172 426 -172 c 0
 443 -172 467 -169 482 -154 c 1
 497 -177 l 1
EndSplineSet
EndChar

StartChar: longs
Encoding: 383 383 497
Width: 334
GlyphClass: 2
Flags: MW
LayerCount: 2
Fore
SplineSet
223 127 m 2
 223 44 239 35 300 32 c 1
 306 26 306 4 300 -2 c 1
 257 -1 213.4 0 158 0 c 0
 102.6 0 58 -1 16 -2 c 1
 10 4 10 26 16 32 c 1
 77 35 93 44 93 126 c 2
 93 376 l 2
 93 388 92 392 78 392 c 2
 34 392 l 2
 29 392 28 393 28 397 c 2
 28 414 l 2
 28 422 34 434 51 434 c 0
 80 434 94 438 94 470 c 0
 94 550.1 115 603 148 635 c 0
 182 668 218 698 277 698 c 0
 382 698 430 656.7 430 623 c 0
 430 584.9 411 558 374 558 c 0
 335 558 315 577 298 609 c 0
 275 653 274 656 257 656 c 0
 235 656 223 634 223 485 c 2
 223 127 l 2
EndSplineSet
EndChar

StartChar: uni0186
Encoding: 390 390 498
Width: 645
GlyphClass: 2
Flags: MW
LayerCount: 2
Fore
SplineSet
249 656 m 0
 346 656 424 639 488 593 c 0
 568.2 535.3 609 424.9 609 331 c 0
 609 110.8 444 -12 248 -12 c 0
 125 -12 80 28 29 33 c 1
 20 88 12 136 7 188 c 1
 18.3 194 38 197 50 193 c 1
 76 107 121 29 259 29 c 0
 378 29 458 156.6 458 312 c 0
 458 468 366 604 250 604 c 0
 180 604 99 578 28 500 c 1
 17 500 0 512 -5 521 c 1
 63 610 152 656 249 656 c 0
EndSplineSet
EndChar

StartChar: uni018E
Encoding: 398 398 500
Width: 620
GlyphClass: 2
Flags: MW
LayerCount: 2
Fore
SplineSet
282 367 m 2
 363 367 l 1
 363 554 l 2
 363 578 346 603 322 603 c 2
 237 603 l 2
 162 603 141 565 119 496 c 1
 107 494 86 496 76 501 c 1
 81 542 86 638 88 646 c 0
 88 648 89 649 92 649 c 0
 109 646 117 645 141 645 c 2
 436 645 l 1
 436 645 540 646 590 647 c 1
 596 641 596 619 590 613 c 1
 520 610 503 605 503 522 c 2
 503 122 l 2
 503 39 520 35 590 32 c 1
 596 26 596 4 590 -2 c 1
 541 -1 435 0 435 0 c 1
 220 0 l 2
 172 0 82 -2 82 -2 c 1
 68 48 63 114 55 165 c 1
 65 171 87 173 100 170 c 1
 120 98 165 42 241 42 c 2
 322 42 l 2
 344 42 363 63 363 90 c 2
 363 317 l 1
 282 317 l 2
 213 317 194 300 191 255 c 1
 185 249 154 249 148 255 c 1
 149 290 150 308.7 150 343 c 0
 150 376.5 149 399 148 429 c 1
 154 435 185 435 191 429 c 1
 194 374 215 367 282 367 c 2
EndSplineSet
EndChar

StartChar: uni018F
Encoding: 399 399 501
Width: 702
GlyphClass: 2
Flags: MW
LayerCount: 2
Fore
SplineSet
512 250 m 1
 193 253 l 1
 229 97 280 32 355 32 c 0
 439 32 490 115 512 250 c 1
105 494 m 1
 75 522 l 1
 151 620 226.5 658 336 658 c 0
 573 658 666 485 666 327 c 0
 666 131 546 -11 348 -11 c 0
 142 -11 57 92 40 305 c 1
 52 320 l 1
 515 305 l 1
 516 314 516 317 516 327 c 0
 516 505 433 577 332 577 c 0
 252 577 166 552 105 494 c 1
EndSplineSet
EndChar

StartChar: florin
Encoding: 402 402 502
Width: 485
GlyphClass: 2
Flags: MW
LayerCount: 2
Fore
SplineSet
356 698 m 0
 453 698 485 657 485 627 c 0
 485 605 474.6 575.8 445 571 c 0
 414 566 381 586.6 377 610 c 0
 372 639 365 662 348 662 c 0
 339 662 328.1 650.3 318 609 c 0
 306.4 561.6 300.2 487.9 294 434 c 1
 398 434 l 1
 414 424 406 404 392 387 c 1
 288 387 l 1
 287 383 286 378 286 374 c 0
 268.5 223.7 253 105.8 231.6 18 c 0
 218 -38 194 -83 173 -114 c 0
 141.6 -160.3 83 -190 53 -190 c 0
 -19 -190 -51 -160 -51 -131 c 0
 -51 -102 -32 -84 0 -84 c 0
 31 -84 38 -94 46 -102 c 0
 51.4 -107.4 58 -129 58 -130 c 0
 60 -137 66 -145 75 -145 c 0
 116 -143 124 10 133 118 c 0
 136.7 161.9 142 218 146 260 c 1
 155 387 l 1
 82 392 l 1
 88 429 l 1
 164 434 l 1
 166 452 168 458 172 482 c 0
 196.7 630.3 288 698 356 698 c 0
EndSplineSet
EndChar

StartChar: uni019E
Encoding: 414 414 503
Width: 615
GlyphClass: 2
Flags: MW
AnchorPoint: "below" 279.6 -111 basechar 0
AnchorPoint: "cedilla" 135 10 basechar 0
AnchorPoint: "above" 278.5 646 basechar 0
LayerCount: 2
Fore
SplineSet
228 122 m 2
 228 39 238 36 280 32 c 1
 286 26 286 4 280 -2 c 1
 237 -1 209 0 163 0 c 0
 110 0 68 -1 26 -2 c 1
 20 4 20 26 26 32 c 1
 87 37 98 39 98 122 c 2
 98 314 l 2
 98 371 87.5 376.9 33 382 c 1
 31 388 29 410 31 416 c 1
 100 425 180.5 433 209 444 c 1
 223 444 232 438 232 427 c 2
 232 427 230.6 407.7 229.5 381.8 c 1
 287 414.5 346.3 444 383 444 c 0
 469 444 521 394 521 284 c 2
 521 -104 l 2
 521 -188 537 -197 598 -200 c 1
 604 -206 604 -228 598 -234 c 1
 555 -233 511 -232 456 -232 c 0
 408 -232 376 -233 334 -234 c 1
 328 -228 328 -206 334 -200 c 1
 375 -197 391 -188 391 -104 c 2
 391 295 l 2
 391 352 351 370 311 370 c 0
 293 370 270.1 368 228.2 341.1 c 1
 228.1 334.5 228 327.8 228 321.3 c 2
 228 122 l 2
EndSplineSet
EndChar

StartChar: uni019F
Encoding: 415 415 504
Width: 730
GlyphClass: 2
Flags: MW
AnchorPoint: "below" 350 -110 basechar 0
AnchorPoint: "cedilla" 350 0 basechar 0
LayerCount: 2
Fore
SplineSet
694 329 m 0
 694 230.9 663.2 148.5 608 89 c 0
 550.6 27.1 467 -10 364 -10 c 0
 194 -10 37 111 37 309 c 0
 37 401.4 66.2 484.2 118.1 546 c 0
 176.2 615.3 262.6 658 363 658 c 0
 546 658 694 528 694 329 c 0
541.5 353 m 1
 529.8 526.5 449.8 616 351 616 c 0
 265.5 616 194 539.5 188.4 353 c 1
 541.5 353 l 1
543 309 m 1
 188.3 309 l 1
 194.2 133.3 278 32 384 32 c 0
 485 32 543 141.9 543 308 c 2
 543 309 l 1
EndSplineSet
EndChar

StartChar: Ohorn
Encoding: 416 416 505
Width: 730
GlyphClass: 2
Flags: MW
AnchorPoint: "below" 350 -110 basechar 0
AnchorPoint: "cedilla" 350 0 basechar 0
LayerCount: 2
Fore
SplineSet
701 663 m 0
 701 609 665 567 602 567 c 0
 600.8 567 599.5 567 598.2 567.1 c 1
 657.4 509.8 694 427.9 694 329 c 0
 694 230.9 663.2 148.5 608 89 c 0
 550.6 27.1 467 -10 364 -10 c 0
 194 -10 37 111 37 309 c 0
 37 401.4 66.2 484.2 118.1 546 c 0
 176.2 615.3 262.6 658 363 658 c 0
 427.1 658 486.9 642.1 537.5 612.8 c 1
 564.6 603.1 578.7 600 599 600 c 0
 610 600 644 609 644 643 c 0
 644 656 637 666 623 668 c 0
 589 672 576 695 576 715 c 0
 576 739 592 754 622 754 c 0
 679.5 754 701 711 701 663 c 0
351 616 m 0
 261.9 616 188 533 188 329 c 0
 188 141 274 32 384 32 c 0
 485 32 543 141.9 543 308 c 0
 543 511 458 616 351 616 c 0
EndSplineSet
EndChar

StartChar: ohorn
Encoding: 417 417 506
Width: 581
GlyphClass: 2
Flags: MW
AnchorPoint: "ogonek" 372 44 basechar 0
AnchorPoint: "cedilla" 241 -3 basechar 0
AnchorPoint: "below" 243 -110 basechar 0
LayerCount: 2
Fore
SplineSet
260 402 m 0
 193 402 177 321 177 229 c 0
 177 155 209 32 291 32 c 0
 327 32 374 63.9 374 184 c 0
 374 321 328 402 260 402 c 0
37 207 m 0
 37 266.1 53.8 326.4 91.7 370 c 0
 131.2 415.4 193.1 444 276 444 c 0
 325.7 444 368.8 433.1 404.2 413.7 c 1
 421 407 435.3 402 449 402 c 0
 460 402 484 411 484 445 c 0
 484 458 477 468 463 470 c 0
 429 474 416 497 416 517 c 0
 416 541 432 556 462 556 c 0
 519.5 556 541 513 541 465 c 0
 541 413.3 517.2 372.6 459.9 369.2 c 1
 494.9 329.4 514 276.3 514 216 c 0
 514 160.3 496.6 92.3 446 47 c 0
 404.9 10.2 345.5 -10 275 -10 c 0
 140.6 -10 37 76.4 37 207 c 0
EndSplineSet
EndChar

StartChar: uni01A7
Encoding: 423 423 507
Width: 479
GlyphClass: 2
Flags: MW
LayerCount: 2
Fore
SplineSet
58 631 m 1
 51 573 47 532 47 479 c 1
 58 470 83 470 97 474 c 1
 115 540 143 617 228 617 c 0
 279.2 617 313 583 313 527 c 0
 313 470 241.7 418.4 202 398 c 0
 163 378 107 347.1 68 304 c 0
 38.5 271.4 16 236.1 16 184 c 0
 16 122.4 48.5 76.3 84 44.5 c 0
 125.2 7.6 173.8 -10 235 -10 c 0
 373.1 -10 376 10 433 10 c 1
 444 47 452 100 452 175 c 1
 436 179 419 184 402 178 c 1
 382 87 313 32 246 32 c 0
 185 32 142 65.8 142 115 c 0
 142 171 187 211 233 243 c 0
 275.7 272.7 358.6 307.1 405 369 c 0
 427.6 399.1 438 446.7 438 485 c 0
 438 533.6 410.3 580 373 610 c 0
 331.3 643.6 272.4 658 227 658 c 0
 134 658 113 639 58 631 c 1
EndSplineSet
EndChar

StartChar: uni01A8
Encoding: 424 424 508
Width: 395
GlyphClass: 2
Flags: MW
LayerCount: 2
Fore
SplineSet
367 146 m 1
 363 72 367 54 357 0 c 1
 347.8 0.5 334 2 321 2 c 0
 299 2 246.3 -10 211 -10 c 0
 134 -10 28 24 28 119 c 0
 28 152.9 41.4 186.2 63.6 211 c 0
 92.5 243.3 139 267 185 287 c 0
 225 304.4 240 332.9 240 362 c 0
 240 390 217 402 188 402 c 0
 143 402 117 379 97 309 c 1
 79 306 68 307 58 314 c 1
 58 350 58 385 54 420 c 1
 83 426 128 444 183 444 c 0
 235.7 444 285.4 424.2 317 392 c 0
 340 368.6 351 337 351 310 c 0
 351 280.3 339.5 256.4 320 235 c 0
 289 201 235.5 167.7 205 154 c 0
 165 136 154 102 154 78 c 0
 154 45.9 191 29 218 29 c 0
 278 29 309 62 327 148 c 1
 343 151 351 150 367 146 c 1
EndSplineSet
EndChar

StartChar: uni01A9
Encoding: 425 425 509
Width: 592
GlyphClass: 2
Flags: MW
LayerCount: 2
Fore
SplineSet
529 645 m 2
 553 645 561 646 578 649 c 0
 581 649 582 648 582 646 c 0
 584 638 586 526 584 481 c 1
 574.2 476.3 553.4 474.2 541 476 c 1
 519 545 508 598 433 598 c 2
 230 598 l 1
 454 340 l 1
 453 339 l 1
 453 325 l 1
 190 104 l 1
 419 108 l 2
 485 109.1 543 112 570 200 c 1
 583.1 203.2 604.6 201 615 195 c 1
 607 144 592 48 578 -2 c 1
 578 -2 488 0.1 440 0 c 2
 143 0 l 2
 123 0 21 -2 21 -2 c 1
 15 4 15 27 21 33 c 1
 50 49 107.8 98 123 111 c 2
 316 276 l 1
 60 576 l 2
 49.4 588.4 33.7 604 22 613 c 1
 16 619 16 641 22 647 c 1
 22 647 145 645 165 645 c 2
 529 645 l 2
EndSplineSet
EndChar

StartChar: Uhorn
Encoding: 431 431 510
Width: 690
GlyphClass: 2
Flags: MW
AnchorPoint: "cedilla" 328 4 basechar 0
LayerCount: 2
Fore
SplineSet
656 613 m 0
 628 613 614 597 614 569 c 2
 614 293 l 2
 614 115 568 -12 362 -12 c 0
 273 -12 89 30 89 234 c 2
 89 569 l 2
 89 600 74 613 35 613 c 2
 8 613 l 2
 4 613 0 616 0 621 c 2
 0 645 l 1
 2 646 l 1
 2 646 109 645 148 645 c 0
 184 645 298 646 298 646 c 1
 300 645 l 1
 300 621 l 2
 300 616 297 613 292 613 c 2
 266 613 l 2
 225 613 211 597 211 569 c 2
 211 267 l 2
 211 202 212 137 265 84 c 0
 294 55 336 34 384 34 c 0
 552 34 547 163 547 275 c 2
 547 569 l 2
 547 600 532 613 493 613 c 2
 466 613 l 2
 462 613 458 616 458 621 c 2
 458 645 l 1
 460 646 l 1
 460 646 541 645 580 645 c 0
 663 645 690 650 690 671 c 0
 690 685 679 690 659 690 c 0
 625 690 612 711 612 731 c 0
 612 755 632 770 662 770 c 0
 700 770 728 733 728 686 c 0
 728 643 700 613 656 613 c 0
EndSplineSet
EndChar

StartChar: uhorn
Encoding: 432 432 511
Width: 531
GlyphClass: 2
Flags: MW
LayerCount: 2
Fore
SplineSet
510 133 m 2
 510 76 520.5 60.1 575 55 c 1
 577 49 579 29 577 23 c 1
 508 14 448 0 411 -10 c 1
 397 -10 388.8 -5 388 7 c 2
 388 7 385.7 25.8 383.5 51 c 1
 326 18.8 253.3 -10 217 -10 c 0
 131 -10 89 43.5 89 150 c 2
 89 306 l 2
 89 390 68 400 22 402 c 1
 16 408 16 430 22 436 c 1
 65 435 102.5 434 154 434 c 0
 172.3 434 193 435 211 436 c 1
 217 430 221 419 221 402 c 0
 221 378 219 390 219 306 c 2
 219 139 l 2
 219 68.5 249 64 289 64 c 0
 306.5 64 340.2 65.9 380.8 91 c 1
 380.3 101.1 380 111.1 380 120.7 c 2
 380 306 l 2
 380 390 364 397 313 402 c 1
 307 408 307 430 313 436 c 1
 351.1 435 414.3 434 443 434 c 1
 457.8 439.1 471 449.5 471 458 c 0
 471 469 463 478 444 479 c 0
 409 480 396 502 396 522 c 0
 396 546 413 561 442 561 c 0
 480 561 505 520 505 473 c 0
 505 461 501.5 447.5 493.4 435.5 c 1
 496.3 435.7 499.2 435.8 502 436 c 1
 508 430 512 419 512 402 c 0
 512 378 510 390 510 306 c 2
 510 133 l 2
EndSplineSet
EndChar

StartChar: uni01B5
Encoding: 437 437 512
Width: 624
GlyphClass: 2
Flags: MW
LayerCount: 2
Fore
SplineSet
429 44 m 2
 495 44 543 97 563 177 c 1
 575 177 592 176 602 172 c 1
 596 111.5 583 24.5 575 -5 c 0
 575 -6 573 -8 571 -8 c 0
 533 -5 415 0 338 0 c 2
 39 0 l 2
 25 0 20 5 20 15 c 0
 20 22 22.3 29.8 28 38 c 2
 211.2 303 l 1
 105 303 l 1
 105 342 l 1
 238.2 342 l 1
 402 579 l 2
 409 589 418 602 400 602 c 2
 209 602 l 2
 143 602 101 556 81 476 c 1
 69 476 52 477 42 481 c 1
 53 529 64 605 68 650 c 0
 68 651 70 653 72 653 c 0
 110 650 228 645 305 645 c 2
 506 645 l 2
 534.5 645 559 647 572 647 c 0
 585.5 647 589 642.8 589 637 c 0
 589 626.2 586.9 620.2 567 591 c 2
 397.2 342 l 1
 528 342 l 1
 528 303 l 1
 370.6 303 l 1
 213 72 l 2
 200 53 198 44 229 44 c 2
 429 44 l 2
EndSplineSet
EndChar

StartChar: uni01B6
Encoding: 438 438 513
Width: 452
GlyphClass: 2
Flags: MW
LayerCount: 2
Fore
SplineSet
61 446 m 0
 78.5 442.6 87.9 436 120 436 c 2
 313 436 l 2
 342 436 410 438 415 438 c 0
 422 438 427 435 427 431 c 0
 427 427 424.3 419.2 409 394 c 0
 381.6 349 346.1 291.9 308.6 234 c 1
 344 234 l 1
 344 200 l 1
 286.4 200 l 1
 248 141.9 208.9 85.3 175.3 42 c 1
 176 39 l 1
 272 39 l 2
 324 39 344.5 57.2 370 110 c 2
 384 139 l 1
 396 139 417.5 136.7 424 133 c 1
 417 83 404 31 392 -3 c 1
 40 0 l 2
 25 0 17 5 17 12 c 0
 17 17 17.4 20.4 26 32 c 0
 62.3 80.8 103.3 139.6 143.6 200 c 1
 69 200 l 1
 69 234 l 1
 166.1 234 l 1
 202.8 289.9 238.2 345.7 267.8 395 c 1
 266 396.8 l 1
 164 394 l 2
 134 393 103 371 83 298 c 1
 71.4 295.4 48.8 297.3 40 301 c 1
 48 350 54 395 55 440 c 0
 55 442.4 58.6 446 61 446 c 0
EndSplineSet
EndChar

StartChar: uni01B7
Encoding: 439 439 514
Width: 632
GlyphClass: 2
Flags: MW
AnchorPoint: "below" 272 -319 basechar 0
LayerCount: 2
Fore
SplineSet
532 646 m 2
 568 646 582 639 582 629 c 0
 582 622 571 603 562 586 c 2
 398 289 l 1
 534 257 596 161 596 54 c 0
 596 -85 476 -208 285 -208 c 0
 198 -208 35 -172 35 -105 c 0
 35 -80 51 -52 101 -52 c 0
 137 -52 172 -67 187 -88 c 0
 216 -129 263 -160 303 -160 c 0
 380 -160 464 -71 464 45 c 0
 464 200 365 252 304 252 c 0
 292 252 282 252 238 243 c 1
 435 600 l 1
 198 600 l 1
 142 599 117 509 113 464 c 1
 57 469 l 1
 79 674 l 1
 116 666 115 662 124 659 c 0
 142 652 160 646 168 646 c 2
 532 646 l 2
EndSplineSet
EndChar

StartChar: uni01B8
Encoding: 440 440 515
Width: 632
GlyphClass: 2
Flags: MW
LayerCount: 2
Fore
SplineSet
454 646 m 2
 462 646 480 652 499 659 c 0
 508 662 520 666 557 674 c 1
 579 469 l 1
 509 464 l 1
 505 509 481 599 424 600 c 1
 201 600 l 1
 264 484 334 358 397 243 c 1
 354 252 344 252 331 252 c 0
 271 252 171 200 171 45 c 0
 171 -46 255 -165 332 -165 c 0
 372 -165 419 -129 449 -88 c 1
 463 -67 499 -52 534 -52 c 0
 584 -52 601 -80 601 -105 c 0
 601 -172 438 -208 351 -208 c 0
 181 -208 40 -85 40 54 c 0
 40 161 102 257 237 289 c 1
 183 388 126 488 73 586 c 0
 64 603 54 621 54 629 c 0
 54 639 67 646 103 646 c 2
 454 646 l 2
EndSplineSet
EndChar

StartChar: uni01B9
Encoding: 441 441 516
Width: 473
GlyphClass: 2
Flags: MW
LayerCount: 2
Fore
SplineSet
328 433 m 2
 327 433 326 435 326 440 c 0
 326 441 326 444 326 446 c 1
 390 458 l 1
 423 298 l 1
 356 287 l 1
 336 373 317 386 298 386 c 2
 180 386 l 1
 230 294 288 190 339 98 c 1
 298 107 270 112 255 112 c 0
 189 112 133 51 133 -31 c 0
 133 -145 206 -190 247 -190 c 0
 274 -190 296 -168 309 -147 c 0
 322 -124 344 -117 378 -117 c 0
 416 -117 429 -134 429 -151 c 0
 429 -186 359 -227 256 -227 c 0
 100 -227 16 -127 16 -30 c 0
 16 69 81 138 195 156 c 1
 153 232 110 310 68 386 c 1
 61 402 56 413 56 416 c 0
 56 428 67 433 101 433 c 2
 328 433 l 2
EndSplineSet
EndChar

StartChar: uni01C0
Encoding: 448 448 517
Width: 206
GlyphClass: 2
Flags: MW
LayerCount: 2
Fore
SplineSet
133 0 m 1
 73 0 l 1
 73 698 l 1
 133 698 l 1
 133 0 l 1
EndSplineSet
EndChar

StartChar: uni01C2
Encoding: 450 450 519
Width: 353
GlyphClass: 2
Flags: MW
LayerCount: 2
Fore
SplineSet
311 328 m 1
 311 289 l 1
 196 289 l 1
 196 0 l 1
 136 0 l 1
 136 289 l 1
 25 289 l 1
 25 328 l 1
 136 328 l 1
 136 391 l 1
 25 391 l 1
 25 430 l 1
 136 430 l 1
 136 698 l 1
 196 698 l 1
 196 430 l 1
 311 430 l 1
 311 391 l 1
 196 391 l 1
 196 328 l 1
 311 328 l 1
EndSplineSet
EndChar

StartChar: uni01D7
Encoding: 471 471 540
Width: 732
GlyphClass: 2
Flags: MW
LayerCount: 2
Fore
SplineSet
494.1 873.1 m 1
 513.2 862.9 534.2 842.7 544.1 824.6 c 1
 541.8 814.1 l 1
 431 763 l 2
 419.9 757.9 410.9 756.9 404 756.9 c 0
 397.1 756.9 388.6 763.1 388.6 770.1 c 0
 388.6 776.3 388.8 781.3 396.3 788.6 c 0
 412.5 804.4 463.3 848.5 494.1 873.1 c 1
EndSplineSet
Refer: 371 -1 N 1 0 0 1 0 0 2
EndChar

StartChar: uni01D8
Encoding: 472 472 541
Width: 598
GlyphClass: 2
Flags: MW
LayerCount: 2
Fore
SplineSet
333 766.6 m 1
 335.4 767.5 341.8 768.4 345.8 768.4 c 0
 369.8 768.4 385 755.8 391.4 746.8 c 1
 399.4 726.1 l 1
 303.4 628.9 l 2
 292.2 618.1 281 614.5 273 614.5 c 0
 266.6 614.5 260.2 621.7 260.2 627.1 c 0
 260.2 632.5 261.8 640.6 266.6 648.7 c 2
 333 766.6 l 1
EndSplineSet
Refer: 394 252 N 1 0 0 1 0 0 2
EndChar

StartChar: uni01D9
Encoding: 473 473 542
Width: 732
GlyphClass: 2
Flags: MW
LayerCount: 2
Fore
SplineSet
297.4 858 m 1
 297.4 866.8 302.8 877.4 309.7 880.9 c 1
 339.7 870.3 384.4 850.1 405.2 831.6 c 1
 428.3 851 471.4 871.2 499.9 880.9 c 1
 506.8 877.4 510.7 866 510.7 857.2 c 1
 478.4 833.4 439.9 796.4 412.9 765.6 c 1
 402.1 761.2 l 1
 373.6 793.8 328.2 835.1 297.4 858 c 1
EndSplineSet
Refer: 371 -1 N 1 0 0 1 0 0 2
EndChar

StartChar: uni01DA
Encoding: 474 474 543
Width: 598
GlyphClass: 2
Flags: MW
LayerCount: 2
Fore
SplineSet
310.8 650.6 m 1
 270.8 650.6 l 1
 247.6 692 217.2 731 189.2 766.7 c 1
 208.4 782.9 l 1
 239.6 758.6 260.4 741.5 290 707.3 c 1
 317.2 739.7 341.2 758.6 372.4 782.9 c 1
 391.6 766.7 l 1
 362.8 730.7 334 692.9 310.8 650.6 c 1
EndSplineSet
Refer: 394 252 N 1 0 0 1 0 0 2
EndChar

StartChar: uni01DB
Encoding: 475 475 544
Width: 732
GlyphClass: 2
Flags: MW
LayerCount: 2
Fore
SplineSet
305.7 881.4 m 1
 286.5 870.8 265.6 851.5 255.6 833 c 1
 257.9 822.4 l 1
 368.8 771.4 l 2
 379.6 766.1 388.9 765.2 395.8 765.2 c 0
 402.7 765.2 411.2 771.4 411.2 778.4 c 0
 411.2 784.6 411.2 789.9 403.5 796.9 c 0
 387.3 812.7 336.5 856.8 305.7 881.4 c 1
263 697 m 0
 263 729 287 754 319 754 c 0
 351 754 375 729 375 697 c 0
 375 665 351 641 319 641 c 0
 287 641 263 665 263 697 c 0
430 697 m 0
 430 729 455 754 487 754 c 0
 519 754 542 729 542 697 c 0
 542 665 519 641 487 641 c 0
 455 641 430 665 430 697 c 0
227 522 m 2
 227 269 l 2
 227 204 229 129 278 82 c 0
 308.1 53.1 349 32 397 32 c 0
 566 32 581 165 581 277 c 2
 581 522 l 2
 581 605 574 606 559 613 c 1
 553 619 553 641 559 647 c 1
 578 646 594 645 616 645 c 0
 658 645 674 646 723 647 c 1
 729 641 729 619 723 613 c 1
 663 606 646 605 646 522 c 2
 646 295 l 2
 646 117 581 -10 376 -10 c 0
 328.6 -10 236.9 -8.9 174 32 c 0
 117.5 68.7 87 139 87 236 c 2
 87 522 l 2
 87 605 70 610 10 613 c 1
 4 619 4 641 10 647 c 1
 60 646 99 645 156 645 c 0
 192 645 230 646 249 647 c 1
 255 641 255 619 249 613 c 1
 232 610 227 605 227 522 c 2
EndSplineSet
EndChar

StartChar: uni01DC
Encoding: 476 476 545
Width: 598
GlyphClass: 2
Flags: MW
LayerCount: 2
Fore
SplineSet
241.2 789.6 m 1
 296.4 678 l 2
 299.6 671.7 303.6 661.8 303.6 654.6 c 0
 303.6 646.5 297.2 640.2 290 640.2 c 0
 283.6 640.2 275.6 644.7 262 658.2 c 2
 165.2 752.7 l 1
 166.8 762.6 l 1
 173.2 770.7 196.4 791.4 225.2 791.4 c 0
 229.2 791.4 238 790.5 241.2 789.6 c 1
EndSplineSet
Refer: 394 252 N 1 0 0 1 0 0 2
EndChar

StartChar: uni01DD
Encoding: 477 477 546
Width: 489
GlyphClass: 2
Flags: MW
AnchorPoint: "above" 214 645 basechar 0
LayerCount: 2
Fore
SplineSet
298 158 m 1
 162 158 l 1
 160 156 160 143 160 137 c 0
 160 57 197 31 224 31 c 0
 235.3 31 262.1 41.2 278 65 c 0
 291.6 85.3 297 123 298 158 c 1
44 304 m 1
 34 304 29 322 29 335 c 1
 79 408 147 443 216 443 c 0
 287.1 443 336.4 427.1 374 393 c 0
 416.8 354.2 438 293.5 438 235 c 0
 438 82 318 -11 213 -11 c 0
 66 -11 33 82 33 167 c 0
 33 181 38 198 62 198 c 2
 302 198 l 1
 302 203 303 207 303 214 c 0
 303 312 255 357 177 357 c 0
 139 357 85 346 44 304 c 1
EndSplineSet
EndChar

StartChar: uni01E0
Encoding: 480 480 549
Width: 740
GlyphClass: 2
Flags: MW
LayerCount: 2
Fore
SplineSet
441 777 m 1
 525 777 l 2
 535 777 539 769 539 762 c 0
 539 750 528 733 516 733 c 2
 433 733 l 1
 441 777 l 1
274 733 m 1
 189 733 l 2
 180 733 177 741 177 748 c 0
 177 759 187 777 199 777 c 2
 283 777 l 1
 274 733 l 1
EndSplineSet
Refer: 613 550 N 1 0 0 1 0 0 2
EndChar

StartChar: uni01E4
Encoding: 484 484 553
Width: 732
GlyphClass: 2
Flags: MW
LayerCount: 2
Fore
SplineSet
395 658 m 0
 519.5 658 572.5 623 625 623 c 1
 632 551 637 501 646 459 c 1
 634 453 618 451 602 453 c 1
 577 539 510.5 616 381 616 c 0
 328 616 273 595 234 542 c 0
 197 491 184 413 184 327 c 0
 184 195 238 32 407 32 c 0
 458 32 482 42 514 74 c 1
 514 164 l 1
 428 164 l 1
 428 203 l 1
 514 203 l 1
 514 223 l 2
 514 263 488 267 436 271 c 1
 430 277 430 302 436 308 c 1
 481 307 547 306 584 306 c 0
 622 306 669 307 697 308 c 1
 703 302 703 277 697 271 c 1
 669 268 654 258 654 223 c 2
 654 203 l 1
 735 203 l 1
 735 164 l 1
 654 164 l 1
 654 106 l 2
 654 95 659 87 669 78 c 1
 605 24 497 -10 385 -10 c 0
 280 -10 201 12 138 66 c 0
 69 124 33 217 33 307 c 0
 33 415 72 505 139 565 c 0
 208 627 297 658 395 658 c 0
EndSplineSet
EndChar

StartChar: uni01E5
Encoding: 485 485 554
Width: 521
GlyphClass: 2
Flags: MW
LayerCount: 2
Fore
SplineSet
290 288 m 0
 290 367 270 406 223 406 c 0
 184 406 166 379 166 305 c 0
 166 254 174 180 236 180 c 0
 262 180 290 192 290 288 c 0
175 -25 m 0
 154 -25 141 -23 131 -19 c 1
 120.7 -37.8 120 -59.3 120 -90 c 1
 399.7 -90 l 1
 399.9 -87 400 -84 400 -81 c 0
 400 -27.8 251.8 -25 175 -25 c 0
467 394 m 0
 442 394 424 415 420 428 c 1
 417 434 410 440 401 440 c 0
 391 440 358 422 350 412 c 1
 384 384 412 347 412 291 c 0
 412 246.1 391.8 210.5 363 185 c 0
 328.9 154.8 282 142 231 142 c 0
 200 142 178.5 143 157.5 153 c 1
 152.5 141 143 127 143 111 c 0
 143 71 170 69 188 69 c 0
 261.5 69 412.3 62 451 36 c 0
 491.3 8.9 501 -33.6 501 -55 c 0
 501 -67.1 499 -78.8 495.4 -90 c 1
 517 -90 l 1
 517 -127 l 1
 476.2 -127 l 1
 426.2 -195.7 308.8 -238 203 -238 c 0
 155.1 -238 88.7 -232.1 50 -205 c 0
 27.6 -189.3 15.8 -158 12.2 -127 c 1
 -1 -127 l 1
 -1 -90 l 1
 16.8 -90 l 1
 30.1 -65.7 64.3 -26.4 98 -6 c 1
 78.4 0.4 66.2 8.2 57 22 c 0
 47 37 44 48.9 44 68 c 0
 44 88.2 92 141 123 167.5 c 1
 75 194 46 247 46 296 c 0
 46 347.3 73.4 385.6 114 412 c 0
 147.1 433.5 188.9 444 232 444 c 0
 277 444 298 442 316 432 c 1
 345 458 403 491 447 491 c 0
 485 491 511 462 511 443 c 0
 511 406 495 394 467 394 c 0
391.4 -127 m 1
 125.6 -127 l 1
 139.6 -165.2 178.7 -196 231 -196 c 0
 269.3 -196 320 -193.9 351 -176.4 c 0
 370.1 -165.6 383.5 -147.5 391.4 -127 c 1
EndSplineSet
EndChar

StartChar: uni01EA
Encoding: 490 490 559
Width: 730
GlyphClass: 2
Flags: MW
LayerCount: 2
Fore
SplineSet
535 -169 m 1
 509 -205 458 -224 419 -224 c 0
 369 -224 327 -193 327 -138 c 0
 327 -89.8 373 -43.5 421.6 -5.9 c 1
 403.2 -8.6 383.9 -10 364 -10 c 0
 194 -10 37 111 37 309 c 0
 37 401.4 66.2 484.2 118.1 546 c 0
 176.2 615.3 262.6 658 363 658 c 0
 546 658 694 528 694 329 c 0
 694 230.9 663.2 148.5 608 89 c 0
 579.8 58.5 545.2 34.1 505 17.1 c 1
 459.6 -24.5 429 -57.4 429 -117 c 0
 429 -143.5 446.5 -154 464 -154 c 0
 481 -154 505 -151 520 -136 c 1
 530.9 -143.5 535 -155.5 535 -169 c 1
351 616 m 0
 261.9 616 188 533 188 329 c 0
 188 141 274 32 384 32 c 0
 485 32 543 141.9 543 308 c 0
 543 511 458 616 351 616 c 0
EndSplineSet
EndChar

StartChar: uni01EB
Encoding: 491 491 560
Width: 551
GlyphClass: 2
Flags: MW
LayerCount: 2
Fore
SplineSet
458 -154 m 1
 432 -190 381 -209 342 -209 c 0
 292 -209 250 -178 250 -123 c 0
 250 -81.2 284.6 -40.8 325.5 -6.3 c 1
 309.4 -8.8 292.6 -10 275 -10 c 0
 140.6 -10 37 76.4 37 207 c 0
 37 266.1 53.8 326.4 91.7 370 c 0
 131.2 415.4 193.1 444 276 444 c 0
 424.5 444 514 346.8 514 216 c 0
 514 160.3 496.6 92.3 446 47 c 0
 440.6 42.1 434.8 37.6 428.7 33.3 c 1
 429 33 l 1
 383 -9 352 -42 352 -102 c 0
 352 -128.5 369.5 -139 387 -139 c 0
 404 -139 428 -136 443 -121 c 1
 453.9 -128.5 458 -140.5 458 -154 c 1
260 402 m 0
 193 402 177 321 177 229 c 0
 177 155 209 32 291 32 c 0
 327 32 374 63.9 374 184 c 0
 374 321 328 402 260 402 c 0
EndSplineSet
EndChar

StartChar: uni01F6
Encoding: 502 502 571
Width: 924
GlyphClass: 2
Flags: MW
LayerCount: 2
Fore
SplineSet
503 135 m 2
 503 321 l 1
 224 321 l 1
 224 75 l 2
 224 47 233 35 256 35 c 2
 282 35 l 2
 298 35 312 31 312 23 c 2
 312 8 l 1
 302 -1 l 1
 302 -1 203 1 164 1 c 0
 128 1 22 -1 22 -1 c 1
 13 8 l 1
 13 23 l 2
 13 31 24 35 42 35 c 2
 68 35 l 2
 92 35 101 50 101 75 c 2
 101 571 l 2
 101 599 91 611 68 611 c 2
 42 611 l 2
 26 611 12 615 12 623 c 2
 12 638 l 1
 22 647 l 1
 22 647 122 645 161 645 c 0
 196 645 302 647 302 647 c 1
 312 638 l 1
 312 623 l 2
 312 615 300 611 282 611 c 2
 256 611 l 2
 232 611 224 596 224 571 c 2
 224 367 l 1
 503 367 l 1
 503 571 l 2
 503 599 494 611 471 611 c 2
 445 611 l 2
 429 611 415 615 415 623 c 2
 415 638 l 1
 425 647 l 1
 425 647 524 645 563 645 c 0
 599 645 705 647 705 647 c 1
 714 638 l 1
 714 623 l 2
 714 615 703 611 685 611 c 2
 659 611 l 2
 635 611 626 596 626 571 c 2
 626 132 l 2
 626 70 655 42 689 42 c 0
 751 42 802 144 802 238 c 0
 802 329 780 359 760 364 c 1
 743 366 701 373 701 405 c 0
 701 424 722 445 763 445 c 0
 847 445 882 372 882 250 c 0
 882 66 778 -12 689 -12 c 0
 573 -12 503 42 503 135 c 2
EndSplineSet
EndChar

StartChar: uni01F7
Encoding: 503 503 572
Width: 564
GlyphClass: 2
Flags: MW
LayerCount: 2
Fore
SplineSet
334 603 m 0
 301 603 262 572 188 500 c 1
 195 503 l 1
 195 103 l 1
 303 196 403 294 403 416 c 0
 403 538 385 603 334 603 c 0
198 658 m 1
 196 583 l 1
 244 624 296 658 356 658 c 0
 492 658 535 566 535 456 c 0
 535 301 365 159 186 21 c 1
 195 24 l 1
 195 -183 l 1
 19 -229 l 1
 7 -190 l 2
 6 -189 13 -187 28 -182 c 0
 34 -180 41 -178 47 -176 c 0
 65 -170 72 -154 72 -121 c 2
 72 536 l 2
 72 575 69 595 65 599 c 1
 54 598 46 596 35 595 c 0
 20 593 5 597 5 604 c 0
 4 612 3 625 3 633 c 1
 29 633 72 638 89 642 c 0
 104 645 122 648 145 658 c 1
 198 658 l 1
EndSplineSet
EndChar

StartChar: uni01F8
Encoding: 504 504 573
Width: 740
GlyphClass: 2
Flags: MW
LayerCount: 2
Fore
SplineSet
631 0 m 1
 612.8 -8.8 603 -12 567.8 -12 c 1
 567.8 -12 547.5 7.1 527.8 32 c 2
 192.8 430 l 2
 182.3 442.5 173.5 450 169 450 c 0
 163 450 161 440 161 430 c 2
 161 133 l 2
 161 42 178 39 248 32 c 1
 254 26 254 4 248 -2 c 1
 198 -1 179.7 0 136 0 c 0
 92.3 0 73 -1 24 -2 c 1
 18 4 18 26 24 32 c 1
 94 39 111 44 111 133 c 2
 111 550 l 1
 105 576 75 610 32 613 c 1
 26 619 26 641 32 647 c 1
 195 645 l 1
 284.1 540 l 1
 549.4 227.5 l 2
 563 211.4 576 205.5 576 231 c 2
 576 512 l 2
 576 603 559 606 489 613 c 1
 483 619 483 641 489 647 c 1
 539 646 559.8 645 605 645 c 0
 647.1 645 664 646 713 647 c 1
 719 641 719 619 713 613 c 1
 643 606 626 601 626 512 c 2
 626 102 l 2
 626 71 631 0 631 0 c 1
EndSplineSet
Refer: 2228 -1 N 1 0 0 1 510 0 2
EndChar

StartChar: Aringacute
Encoding: 506 506 575
Width: 740
GlyphClass: 2
Flags: MW
LayerCount: 2
Fore
SplineSet
553 891 m 1
 577.8 879.4 605.2 856.6 618 836 c 1
 615 824 l 1
 471 766 l 2
 464.4 763.3 458.4 761.7 453 760.6 c 1
 453.7 756.5 454 752.3 454 748 c 0
 454 703 415 665 368 665 c 0
 322 665 283 702 283 748 c 0
 283 794 321 831 368 831 c 0
 393.3 831 417.4 819.6 433.6 801.3 c 1
 459.9 822.8 517 865.8 553 891 c 1
368 797 m 0
 340 797 321 776 321 748 c 0
 321 722 339 699 368 699 c 0
 397 699 416 722 416 748 c 0
 416 777 395 797 368 797 c 0
EndSplineSet
Refer: 24 65 N 1 0 0 1 0 0 2
EndChar

StartChar: aringacute
Encoding: 507 507 576
Width: 506
GlyphClass: 2
Flags: MW
LayerCount: 2
Fore
SplineSet
240 829.6 m 1
 242.4 830.5 248.8 831.4 252.8 831.4 c 0
 276.8 831.4 292 818.8 298.4 809.8 c 1
 306.4 789.1 l 1
 210.4 691.9 l 2
 199.2 681.1 188 677.5 180 677.5 c 0
 173.6 677.5 167.2 684.7 167.2 690.1 c 0
 167.2 695.5 168.8 703.6 173.6 711.7 c 2
 240 829.6 l 1
EndSplineSet
Refer: 380 229 N 1 0 0 1 0 0 2
EndChar

StartChar: uni020B
Encoding: 523 523 592
Width: 322
GlyphClass: 2
Flags: MW
LayerCount: 2
Fore
SplineSet
265.3 507 m 1
 263.5 561 224.8 586 168.1 586 c 0
 125.8 586 74.5 571 71.8 507 c 1
 43 517 l 1
 52 622 122.2 660 168.1 660 c 0
 241 660 288.7 598 295 517 c 1
 265.3 507 l 1
EndSplineSet
Refer: 419 305 N 1 0 0 1 0 0 2
EndChar

StartChar: uni0222
Encoding: 546 546 611
Width: 578
GlyphClass: 2
Flags: MW
LayerCount: 2
Fore
SplineSet
391 530 m 0
 391 596 341 648 282 657 c 1
 282 625 l 1
 223 625 178 568 178 517 c 0
 178 462 241 421 304 391 c 1
 364 432 391 458 391 530 c 0
153 153 m 0
 153 53 246 29 283 29 c 0
 396 29 413 98 413 146 c 0
 413 230 338 270 264 304 c 1
 216 271 153 222 153 153 c 0
55 497 m 0
 55 587.2 147.3 652.7 265 658 c 1
 265 691 l 1
 462 691 507 588 507 534 c 0
 507 435 396 376 357 360 c 1
 431 327 537 274 537 171 c 0
 537 86 468 -12 278 -12 c 0
 169 -12 41 26 41 156 c 0
 41 252 155 314 207 333 c 1
 129 373 55 421 55 497 c 0
EndSplineSet
EndChar

StartChar: uni0223
Encoding: 547 547 612
Width: 493
GlyphClass: 2
Flags: MW
LayerCount: 2
Fore
SplineSet
245 22 m 0
 328 22 349 82 349 143 c 0
 349 208 298 252 228 305 c 1
 220 297 209 286 201 279 c 1
 202 279 l 1
 161 238 140 197 140 156 c 0
 140 80 182 22 245 22 c 0
326 528 m 0
 326 541 324 589 289 623 c 1
 312 661 l 1
 360 641 428 599 428 528 c 0
 428 442 343 385 311 368 c 1
 377 323 460 264 460 177 c 0
 460 59 378 -12 243 -12 c 0
 64 -12 33 99 33 147 c 0
 33 223 110 304 179 338 c 1
 174 342 170 346 165 350 c 0
 112 393 51 441 51 515 c 0
 51 591 125 637 171 658 c 1
 200 622 l 1
 163 592 161 552 161 536 c 0
 161 482 265 400 265 400 c 1
 284 418 326 464 326 528 c 0
EndSplineSet
EndChar

StartChar: uni0228
Encoding: 552 552 615
Width: 609
GlyphClass: 2
Flags: MW
AnchorPoint: "above" 273 850 basechar 0
LayerCount: 2
Fore
SplineSet
209 -101 m 1
 203 -95 l 1
 250.5 0 l 1
 170 0 l 1
 170 0 64 -1 15 -2 c 1
 9 4 9 26 15 32 c 1
 85 35 102 39 102 122 c 2
 102 522 l 2
 102 605 85 610 15 613 c 1
 9 619 9 641 15 647 c 1
 65 646 169 645 169 645 c 1
 464 645 l 2
 488 645 496 646 513 649 c 0
 516 649 517 648 517 646 c 0
 519 638 524 542 529 501 c 1
 519.2 496.3 498.4 494.2 486 496 c 1
 464 565 443 603 368 603 c 2
 283 603 l 2
 259 603 242 578 242 554 c 2
 242 365 l 1
 323 365 l 2
 390 365 411 374 414 429 c 1
 420 435 451 435 457 429 c 1
 456 399 455 376.5 455 343 c 0
 455 308.7 456 290 457 255 c 1
 451 249 420 249 414 255 c 1
 411 300 392 319 323 319 c 2
 242 319 l 1
 242 90 l 2
 242 63 261 42 283 42 c 2
 384 42 l 2
 460 42 505 98 525 170 c 1
 538.1 173.2 559.6 171 570 165 c 1
 562 114 557 48 543 -2 c 1
 543 -2 453 0 405 0 c 2
 285.1 0 l 1
 268 -41 l 1
 313.4 -50.1 360.9 -70.5 360.9 -125.1 c 0
 360.9 -175.3 308.8 -215 244 -215 c 0
 212 -215 203 -210.2 180 -198 c 1
 180 -188 180.9 -176.2 190 -172 c 1
 217 -182 228 -186 248 -186 c 0
 278 -186 298 -172 298 -145 c 0
 298 -107.4 245 -103 209 -101 c 1
EndSplineSet
EndChar

StartChar: uni0229
Encoding: 553 553 616
Width: 489
GlyphClass: 2
Flags: MW
AnchorPoint: "above" 224 645 basechar 0
LayerCount: 2
Fore
SplineSet
163 -106 m 1
 157 -100 l 1
 203.9 -6.2 l 1
 161.1 0.4 128 15.5 101 40 c 0
 58.2 78.8 37 139.5 37 198 c 0
 37 351 157 444 262 444 c 0
 409 444 442 351 442 266 c 0
 442 252 437 235 413 235 c 2
 173 235 l 1
 173 230 172 226 172 219 c 0
 172 121 220 76 298 76 c 0
 336 76 390 87 431 129 c 1
 441 129 446 111 446 98 c 1
 396 25 328 -10 259 -10 c 0
 251.5 -10 244.2 -9.9 237.2 -9.5 c 1
 222 -46 l 1
 267.4 -55.1 314.9 -75.5 314.9 -130.1 c 0
 314.9 -180.3 262.8 -220 198 -220 c 0
 166 -220 157 -215.2 134 -203 c 1
 134 -193 134.9 -181.2 144 -177 c 1
 171 -187 182 -191 202 -191 c 0
 232 -191 252 -177 252 -150 c 0
 252 -112.4 199 -108 163 -106 c 1
177 275 m 1
 313 275 l 1
 315 277 315 290 315 296 c 0
 315 376 278 402 251 402 c 0
 239.7 402 212.9 391.8 197 368 c 0
 183.4 347.7 178 310 177 275 c 1
EndSplineSet
EndChar

StartChar: uni022A
Encoding: 554 554 617
Width: 730
GlyphClass: 2
Flags: MW
AnchorPoint: "below" 350 -110 basechar 0
AnchorPoint: "cedilla" 350 0 basechar 0
LayerCount: 2
Fore
SplineSet
471.8 770 m 2
 238.9 770 l 2
 229.5 770 226.2 779 226.2 788 c 0
 226.2 800 236.3 820 247.4 820 c 2
 482 820 l 2
 490.5 820 494 811 494 803 c 0
 494 790 483.7 770 471.8 770 c 2
EndSplineSet
Refer: 365 -1 N 1 0 0 1 0 0 2
EndChar

StartChar: uni022C
Encoding: 556 556 619
Width: 730
GlyphClass: 2
Flags: MW
AnchorPoint: "below" 350 -110 basechar 0
AnchorPoint: "cedilla" 350 0 basechar 0
LayerCount: 2
Fore
SplineSet
516 776 m 1
 577 776 l 2
 587 776 590 768 590 761 c 0
 590 750 580 732 567 732 c 2
 507 732 l 1
 516 776 l 1
186 732 m 1
 124 732 l 2
 115 732 111 740 111 747 c 0
 111 758 121 776 133 776 c 2
 194 776 l 1
 186 732 l 1
413.4 769.9 m 0
 425.3 769.9 443.1 777.6 455 817.2 c 1
 466.9 817.2 478.8 808.4 478.8 795.2 c 1
 464.4 731.4 433 692.9 401.5 692.9 c 0
 382 692.9 363.2 699.5 346.2 716 c 1
 329.2 730.3 312.3 734.7 297 734.7 c 0
 278.3 734.7 264.7 732.5 255.3 690.7 c 1
 245.1 690.7 233.2 695.1 233.2 710.5 c 1
 246.8 766.6 274 812.8 303.8 812.8 c 0
 330.1 812.8 349.7 802.9 366.7 785.3 c 0
 382 769.9 404 769.9 413.4 769.9 c 0
EndSplineSet
Refer: 264 79 N 1 0 0 1 0 0 2
EndChar

StartChar: uni0230
Encoding: 560 560 623
Width: 730
GlyphClass: 2
Flags: MW
AnchorPoint: "below" 350 -110 basechar 0
AnchorPoint: "cedilla" 350 0 basechar 0
LayerCount: 2
Fore
SplineSet
436 771 m 1
 518 771 l 2
 527 771 531 763 531 756 c 0
 531 745 521 728 508 728 c 2
 427 728 l 1
 436 771 l 1
240 728 m 1
 155 728 l 2
 146 728 143 735 143 742 c 0
 143 753 153 771 165 771 c 2
 249 771 l 1
 240 728 l 1
EndSplineSet
Refer: 621 558 N 1 0 0 1 0 0 2
EndChar

StartChar: uni0250
Encoding: 592 592 627
Width: 456
GlyphClass: 2
Flags: MW
AnchorPoint: "below" 229 -114 basechar 0
LayerCount: 2
Fore
SplineSet
166.8 381.5 m 1
 173 382 l 1
 206 408 264 440 293 440 c 0
 380 440 418 404 418 335 c 0
 418 256 344.4 227 239 194 c 2
 172 173 l 1
 172 46 207 28 249 28 c 0
 282.5 28 289.7 39.7 291.2 50.8 c 0
 293.5 68 286.5 84.8 286.5 98 c 0
 286.5 122.2 313.4 144.2 348.8 144.2 c 0
 388.4 144.2 400.5 122.3 400.5 93.7 c 0
 400.5 27.7 288 -14 215 -14 c 0
 133 -14 44 15 44 159 c 1
 46 303 l 2
 46 352 40 370 18 370 c 0
 -1 370 -11 366 -24 356 c 1
 -35.5 364.2 -39.8 372.2 -42 384 c 1
 -5 419 33.7 440 89 440 c 0
 133 440 160 422 166.8 381.5 c 1
172 212 m 1
 224 229 l 2
 294.7 252.1 298 282.9 298 320 c 0
 298 351 283 380 240 380 c 0
 222 380 197 364 172 344 c 1
 172 212 l 1
EndSplineSet
Comment: "Anfang{IPA Extensions}"
Colour: ff0000
EndChar

StartChar: uni0251
Encoding: 593 593 628
Width: 532
GlyphClass: 2
Flags: MW
AnchorPoint: "below" 212 -114 basechar 0
AnchorPoint: "ogonek" 463 16 basechar 0
AnchorPoint: "middle" 236 215 basechar 0
AnchorPoint: "above" 228 645 basechar 0
AnchorPoint: "komb_OR" 500 466 basechar 0
AnchorPoint: "right" 490 580 basechar 0
LayerCount: 2
Fore
SplineSet
264 38 m 0
 288 38 318 62 336 81 c 1
 331 78 l 1
 331 345 l 1
 333 343 l 1
 322 363 295 403 248 403 c 0
 208 403 147 363 147 232 c 0
 147 97 208 38 264 38 c 0
417 -12 m 0
 380 -12 355 3 342 21 c 1
 317 5 278 -12 231 -12 c 0
 132 -12 27 82 27 211 c 0
 27 372 154 445 253 445 c 0
 293 445 328 435 353 421 c 1
 367 429 381 437 395 445 c 1
 448 445 l 1
 448 125 l 2
 448 67 448 43 450 43 c 0
 458 43 459 79 459 103 c 1
 525 103 l 1
 525 12 484 -12 417 -12 c 0
EndSplineSet
Colour: ff0000
EndChar

StartChar: uni0252
Encoding: 594 594 629
Width: 532
GlyphClass: 2
Flags: MW
AnchorPoint: "below" 259 -114 basechar 0
AnchorPoint: "ogonek" 399 26 basechar 0
AnchorPoint: "middle" 272 215 basechar 0
AnchorPoint: "above" 264 645 basechar 0
AnchorPoint: "komb_OR" 496 466 basechar 0
AnchorPoint: "right" 486 580 basechar 0
LayerCount: 2
Fore
SplineSet
264 395 m 0
 240 395 209 371 191 352 c 1
 197 355 l 1
 197 87 l 1
 194 89 l 1
 205 69 232 30 279 30 c 0
 319 30 380 69 380 200 c 0
 380 336 319 395 264 395 c 0
110 445 m 0
 147 445 172 429 185 411 c 1
 209 427 249 445 296 445 c 0
 395 445 500 351 500 222 c 0
 500 61 373 -12 274 -12 c 0
 234 -12 199 -3 174 11 c 1
 160 3 146 -5 133 -12 c 1
 80 -12 l 1
 80 308 l 2
 80 365 80 389 77 389 c 0
 70 389 68 354 68 330 c 1
 2 330 l 1
 2 420 43 445 110 445 c 0
EndSplineSet
Colour: ff0000
EndChar

StartChar: uni0254
Encoding: 596 596 630
Width: 456
GlyphClass: 2
Flags: MW
AnchorPoint: "below" 177 -114 basechar 0
LayerCount: 2
Fore
SplineSet
1 343 m 1
 39 398 108 440 168 440 c 0
 239.5 440 284.7 424.9 324 388 c 0
 362.8 351.5 386 293.6 386 229 c 0
 386 81 282 -14 164 -14 c 0
 55 -14 1 45 1 90 c 0
 1 121 24 146 56 146 c 0
 88 146 115 126 118 99 c 0
 121 67 136 28 173 28 c 0
 226 28 251 83 251 194 c 0
 251 314 192 368 117 368 c 0
 88 368 54 349 14 312 c 1
 3 312 1 331 1 343 c 1
EndSplineSet
Colour: ff0000
EndChar

StartChar: uni0258
Encoding: 600 600 631
Width: 452
GlyphClass: 2
Flags: MW
AnchorPoint: "below" 212 -114 basechar 0
AnchorPoint: "ogonek" 69 41 basechar 0
AnchorPoint: "above" 204 645 basechar 0
LayerCount: 2
Fore
SplineSet
155 291 m 0
 155 285 153 282 149 282 c 2
 306 282 l 1
 290 395 233 403 216 403 c 0
 189 403 155 380 155 291 c 0
54 99 m 1
 84 99 l 1
 118 62 148 44 191 44 c 0
 252 44 312 121 312 219 c 0
 312 226 312 230 311 235 c 1
 72 235 l 2
 48 235 33 242 33 256 c 0
 33 341 68 445 215 445 c 0
 320 445 430 354 430 201 c 0
 430 91 367 -12 215 -12 c 0
 133 -12 69 25 30 79 c 1
 54 99 l 1
EndSplineSet
Colour: ff0000
EndChar

